<?xml version="1.0" standalone="no"?>
<!DOCTYPE svg PUBLIC "-//W3C//DTD SVG 1.1//EN" "http://www.w3.org/Graphics/SVG/1.1/DTD/svg11.dtd" >
<svg xmlns="http://www.w3.org/2000/svg" xmlns:xlink="http://www.w3.org/1999/xlink" version="1.1">
<metadata>
Created by FontForge 20170731 at Mon Oct 24 06:35:19 2022
 By Aleksey,,,
Copyright (c) 2021 by Zelow Type.
</metadata>
<defs>
<font id="Raylig-AlternateMedium" horiz-adv-x="0" >
  <font-face 
    font-family="Raylig Alternate Medium"
    font-weight="500"
    font-stretch="condensed"
    units-per-em="2048"
    panose-1="0 0 0 0 0 0 0 0 0 0"
    ascent="1638"
    descent="-410"
    x-height="1008"
    cap-height="1491"
    bbox="-330 -584 6205 2046"
    underline-thickness="102"
    underline-position="-307"
    unicode-range="U+000D-FB02"
  />
<missing-glyph horiz-adv-x="1024" 
 />
    <glyph glyph-name="fi" unicode="fi" horiz-adv-x="1497" 
d="M795 55q130 0 151 41q25 58 25 264q0 373 -13 459q-13 80 -53.5 107.5t-130.5 27.5h-217v-469q0 -208 14 -301q12 -73 33 -94q44 -35 150 -35h6l10 -55h-680l10 55h6q66 0 84 4q28 3 50 19q21 18 30 39q13 23 19 76q10 59 10 292v469h-141v54h143v51q0 255 113.5 380.5
t320.5 125.5q137 0 221 -43.5t138 -159.5l47 10l24 -26l-288 -273l-23 29q6 7 14.5 24.5t19 55t15.5 80.5q5 46 -1 89.5t-23.5 83t-54 63.5t-87.5 24q-45 0 -75.5 -9.5t-50.5 -39.5t-31 -57.5t-16 -93t-6 -115t-1 -152.5v-47h211q181 20 461 20v-672q0 -212 24 -260
q21 -41 148 -41l8 -55h-623z" />
    <glyph glyph-name="fl" unicode="fl" horiz-adv-x="1566" 
d="M610 1102q8 8 19 23.5t30 57.5t29 91q11 59 8.5 114t-31.5 93.5t-77 38.5q-64 0 -90 -39q-19 -26 -20.5 -69t7.5 -81t23 -69q28 -63 38.5 -108t10.5 -99v-49h166v-54h-166v-467q0 -229 14 -303q13 -80 33 -92q43 -37 150 -37h6l8 -55h-678l10 55h6q48 0 84 4q25 3 48 19
t32 39q13 23 19 75q10 59 10 295v467h-143v54h143v51q3 37 0 76q-18 250 82 358q69 72 207 72q213 0 264 -201l45 8l25 -27l-289 -272zM866 55q131 0 152 43q24 48 24 264q0 242 -3.5 600t-8.5 390q-16 76 -35 92q-47 41 -149 41l-8 53q198 25 465 25v-1205q0 -207 24 -262
q21 -41 150 -41l8 -55h-629z" />
    <glyph glyph-name="ff.liga" unicode="ff" horiz-adv-x="1597" 
d="M1305 1104q8 8 19 23.5t30 57.5t30 91q10 59 7 114t-32 93.5t-77 38.5q-64 0 -90 -39q-19 -26 -20.5 -69t7.5 -81t23 -69q28 -63 38.5 -108t10.5 -99v-49h166v-54h-166v-467q0 -223 15 -303q13 -80 32 -92q43 -37 150 -37h6l8 -55h-678l11 55h6q48 0 84 4q25 3 48 19
t32 39q12 20 18 76q10 59 10 294v467h-436v-467q0 -224 12 -303q12 -78 35 -92q40 -37 148 -37h8l8 -55h-678l8 55h6q50 0 86 4q28 3 48 21q23 17 32 37q10 23 19 76q10 78 10 294v467h-143v54h143v51q0 49 -2 76q-7 101 5 175.5t48.5 134t109.5 90t181 30.5q217 0 264 -201
l45 8l25 -26l-287 -273l-24 31q8 8 19 23.5t30 57.5t30 91q10 45 11 85.5t-8.5 77t-36 59t-68.5 24.5q-52 3 -87 -11t-49.5 -39t-20.5 -54t-1 -60.5t11.5 -54.5t13.5 -39q28 -63 38.5 -108t10.5 -99v-49h436l2 51q0 49 -2 76q-18 250 82 358q69 72 207 72q213 0 264 -201
l45 8l25 -26l-289 -273z" />
    <glyph glyph-name="ffi.liga" unicode="ffi" horiz-adv-x="2179" 
d="M1489 55q130 0 151 41q25 57 25 264q0 380 -12 459q-13 80 -54 107.5t-131 27.5h-217v-469q0 -202 15 -301q12 -74 32 -94q44 -35 150 -35h6l10 -55h-680l11 55h6q66 0 84 4q27 3 49 19q23 19 31 39q12 21 18 76q10 59 10 292v469h-436v-469q0 -227 14 -301
q12 -77 33 -94q44 -35 150 -35h6l8 -55h-678l10 55h6q66 0 84 4q28 3 50 19q21 18 30 39q13 23 19 76q10 59 10 292v469h-143v54h143l2 51q0 49 -2 76q-7 100 4.5 174.5t48 134t109.5 90.5t182 31q215 0 262 -203l47 10l23 -26l-287 -273l-22 29q52 65 77 172q11 45 12 86
t-8 77.5t-35.5 59.5t-68.5 25q-61 3 -99 -18t-50 -52.5t-11.5 -70.5t8.5 -67.5t17 -49.5q29 -65 39 -109.5t10 -99.5v-47h438v51q0 254 114 380t321 126q137 0 220.5 -43.5t137.5 -159.5l47 10l25 -26l-289 -273l-23 29q6 7 14.5 24.5t19 55t15.5 80.5q5 46 -1 89.5t-23 83
t-53.5 63.5t-87.5 24q-45 0 -75.5 -9.5t-50.5 -39t-31 -58t-16.5 -93t-6.5 -115t-1 -152.5v-47h211q181 20 461 20v-672q0 -210 25 -260q21 -41 147 -41l8 -55h-622z" />
    <glyph glyph-name="ffl.liga" unicode="ffl" horiz-adv-x="2287" 
d="M1346 1104q8 8 19 23.5t30 57.5t30 91q11 42 9 86t-12 79.5t-36 58t-63 22.5q-64 0 -90 -39q-19 -26 -20.5 -69t7.5 -81t23 -69q28 -63 38.5 -108t10.5 -99v-49h166v-54h-166v-467q0 -204 15 -303q12 -77 32 -92q43 -37 150 -37h6l10 -55h-680l11 55h6q48 0 84 4
q28 3 49 21q22 16 31 37q12 20 18 76q10 59 10 294v467h-477v-467q0 -224 12 -303q12 -78 35 -92q40 -37 148 -37h8l8 -55h-678l8 55h6q50 0 86 4q28 3 48 21q23 17 32 37q10 23 19 76q10 78 10 294v467h-143v54h143v51q0 49 -2 76q-7 101 5 175.5t48.5 134t109.5 90
t181 30.5q217 0 264 -201l45 8l25 -26l-287 -273l-24 31q8 8 19 23.5t30 57.5t30 91q10 45 11 85.5t-8.5 77t-36 59t-68.5 24.5q-52 3 -87 -11t-49.5 -39t-20.5 -54t-1 -60.5t11.5 -54.5t13.5 -39q28 -63 38.5 -108t10.5 -99v-49h479v51q0 49 -2 76q-18 250 82 358
q69 72 207 72q217 0 264 -201l45 8l25 -26l-287 -273zM1579 57q131 0 152 43q24 40 24 265q0 242 -3.5 599.5t-8.5 389.5q-13 74 -35 92q-44 41 -149 41l-9 53q202 25 467 25v-1205q0 -214 25 -262q18 -41 147 -41l11 -55h-629z" />
    <glyph glyph-name="R.liga" unicode="Raylig" horiz-adv-x="6203" 
d="M3711 55q59 0 100.5 11.5t51.5 31.5q24 46 24 264q0 221 -4.5 589t-9.5 401q-13 76 -33 92q-46 43 -152 43l-6 51q198 25 465 25v-1205q0 -210 25 -260q10 -20 50.5 -31.5t98.5 -11.5l8 -55h-628zM1898 -106v-58h-329q-116 0 -201 21.5t-147 91.5q-169 194 -363 518
q-39 66 -58.5 97.5t-44.5 65.5t-38 45.5t-35 23t-41 13t-51 1.5h-74v-228q0 -222 12 -301q12 -76 33 -92q47 -37 158 -37l10 -55h-684l10 55q110 0 154 35q32 27 39 193q4 90 4 202v529q0 232 -12 305q-12 70 -31 84q-45 31 -154 31l-10 57h590q269 0 406 -93.5t137 -277.5
q0 -175 -118 -275t-325 -102l2 -12h193q46 -14 106 -59.5t111 -126.5q70 -112 119 -186t104 -149t99 -120.5t95 -87t101 -63t108 -33.5t125 -12zM4692 1212q-54 0 -93.5 40t-39.5 94t39.5 93.5t93.5 39.5q56 0 94.5 -38.5t38.5 -94.5t-39 -95t-94 -39zM631 776
q84 0 146.5 50.5t92 126t29.5 161.5q0 163 -68.5 246.5t-195.5 83.5h-119v-668h115zM5861 160q151 6 225 -67.5t54 -201.5q-9 -54 -47 -99t-94.5 -73.5t-120 -49.5t-132 -31.5t-121.5 -15.5t-97 -5q-18 0 -38 1.5t-56.5 9.5t-65 21t-54.5 40.5t-34 64.5q-9 44 2 82
q-7 0 -20 -1t-19 -1q-49 0 -99.5 18t-80.5 54q-44 56 -29 137q29 143 229 213q-89 55 -140.5 140t-51.5 194q0 138 70 238t187 149t267 49q129 0 238 -41q54 57 120.5 90t129.5 33q44 0 79 -14l43 -21l-133 -178l-39 18l15 50q-21 26 -80 26q-37 0 -80 -26
q108 -56 169.5 -151t61.5 -220q0 -206 -145 -316t-379 -110q-153 0 -282 63q-96 -26 -159 -74t-63 -116q0 -42 26 -67t54.5 -31.5t61.5 -6.5q52 0 115 19t99 35.5t111 54.5q14 7 59 31t65 33t55 24t64.5 21.5t59.5 7.5zM4395 55q58 0 99 11.5t51 31.5q26 43 26 262
q0 370 -14 459q-13 83 -51 108t-131 25l-9 54q200 22 463 22v-672q0 -207 23 -260q21 -41 147 -41l10 -55h-624zM2769 195l43 -21q-41 -95 -85 -141t-122 -53q-175 -16 -211 92q-14 44 -30 90t-21 63q-74 -248 -320 -248q-198 0 -284 101q-88 105 -68 233q6 36 24.5 65.5
t41 48.5t56.5 34t62 22.5t66.5 13.5t60 7.5t52.5 3.5q43 2 68.5 5t59 11.5t53.5 26.5t30 47q-5 17 -17 62.5t-20.5 73.5t-23 70.5t-29.5 69t-34.5 54t-44.5 40.5t-53 13q-18 0 -36.5 -1.5t-60.5 -15t-74.5 -37.5t-63.5 -74.5t-41 -119.5l-45 6q9 58 31.5 105.5t49.5 76.5
t62 51t63 32t58 16t42 7t20 1q156 10 270 -55q133 -76 180 -273l166 -610q7 -22 27 -25q19 -3 32 13q32 43 66 119zM3334 1008h430l-10 -56q-41 0 -74.5 -12.5t-46.5 -34.5q-30 -46 -125 -338l-188 -571q-27 -84 -49 -135q20 20 30 61l45 -10q-21 -91 -112 -131
q-147 -306 -303 -322q-53 0 -89 10t-65 42q-50 50 -43 116q4 29 15.5 52t26 39t39 28t44.5 19t53 12t55 7t58 5q115 8 176 29q72 174 76 184h-154l-272 686q-68 174 -119 219t-135 45l-10 56h645l-10 -56q-25 0 -38 -0.5t-33 -4.5t-30 -12t-18 -23t-8 -38q0 -83 98 -335
l139 -355l150 449q57 172 57 241q0 18 -6 31.5t-19 22t-28 13.5t-40 7.5t-46.5 3t-55.5 0.5zM5595 983q-56 0 -100 -24t-70.5 -62.5t-43.5 -91t-23.5 -104t-6.5 -107.5q0 -106 19 -182t53.5 -119t77 -62.5t94.5 -19.5q105 0 176.5 104t71.5 283q0 186 -58.5 285.5
t-189.5 99.5zM2062 102q92 0 154 46.5t98 170.5q-12 53 -55 213q-18 -30 -54.5 -46.5t-115.5 -26.5q-39 -5 -69 -20.5t-46 -35t-26.5 -44.5t-13.5 -44.5t-3 -40.5q0 -79 41.5 -125.5t89.5 -46.5zM5521 -336q153 0 256 66.5t103 158.5q0 37 -21 53.5t-51 16.5
q-54 0 -101 -12.5t-124 -40.5q-134 -51 -250 -66q-18 -38 -10 -76q6 -29 30 -50t48 -30.5t57 -14.5t42.5 -5h20.5zM2927 -494q120 12 245 256q-45 -10 -143 -18q-49 -4 -72.5 -6.5t-62 -11t-58 -20t-36.5 -33.5t-21 -52q-6 -43 29 -78q43 -43 119 -37z" />
    <glyph glyph-name=".notdef" horiz-adv-x="1024" 
 />
    <glyph glyph-name="uni0000" 
 />
    <glyph glyph-name="uni0000" 
 />
    <glyph glyph-name="uni000D" unicode="&#xd;" horiz-adv-x="485" 
 />
    <glyph glyph-name="space" unicode=" " horiz-adv-x="485" 
 />
    <glyph glyph-name="exclam" unicode="!" horiz-adv-x="727" 
d="M362 1509q54 0 90 -39t31 -92q-33 -347 -37 -395q0 -4 -30.5 -286t-30.5 -326h-45q0 44 -30.5 326t-30.5 286q-3 30 -16.5 181.5t-18.5 213.5q-5 53 30.5 92t87.5 39zM365 203q55 0 89.5 -37t34.5 -92q0 -56 -35.5 -91.5t-91.5 -35.5q-49 0 -90 35q-36 36 -36 92t37 92.5
t92 36.5z" />
    <glyph glyph-name="quotedbl" unicode="&#x22;" horiz-adv-x="974" 
d="M381 1688q31 0 53 -25q22 -22 19 -53l-52 -469h-41l-49 469q-3 29 17 53q22 25 53 25zM571 1688q32 0 54 -25q19 -23 16 -53l-49 -469h-41l-49 469q-3 30 16 53q22 25 53 25z" />
    <glyph glyph-name="numbersign" unicode="#" horiz-adv-x="1523" 
d="M1149 938l-98 -352h209l-21 -76h-209l-143 -512h-80l143 512h-501l-144 -512h-80l144 512h-207l20 76h209l98 352h-210l20 78h211l145 522h80l-145 -522h502l145 522h80l-146 -522h207l-20 -78h-209zM1071 938h-504l-98 -352h504z" />
    <glyph glyph-name="dollar" unicode="$" horiz-adv-x="1232" 
d="M668 827q42 -22 61 -32.5t59 -34t60.5 -38.5t54 -41.5t51.5 -49t41 -55t34.5 -65t19.5 -73t8 -84.5q0 -93 -39 -165.5t-105.5 -115.5t-146.5 -66t-170 -25l-10 -127h-78l10 127q-111 8 -181 44t-126 95l-27 -47l-34 16l92 385l37 -8q0 -166 71.5 -288.5t171.5 -149.5
l47 551q-7 4 -21.5 12t-21.5 12q-48 27 -76.5 44.5t-72.5 47.5t-71 54.5t-59.5 60.5t-50 71t-30 79.5t-12.5 93.5q0 138 128.5 240t305.5 102q35 0 51 -2l12 127h76v-17l-10 -116q106 -17 176 -67t111 -138l59 10l24 -27l-276 -262l-27 33q23 23 43.5 73.5t20.5 100.5
q0 14 -1 28t-8.5 44t-20.5 55t-41 52t-66 42zM594 868l41 484q-14 2 -47 2q-89 0 -144 -57t-55 -181q0 -78 52.5 -134.5t152.5 -113.5zM643 537l-43 -512q93 10 157 83t64 199q0 66 -46 119.5t-132 110.5z" />
    <glyph glyph-name="percent" unicode="%" horiz-adv-x="2117" 
d="M1423 1540l-10 -20l-633 -1520h-84l643 1540h84zM559 1473q200 0 323.5 -118.5t123.5 -312.5q0 -104 -35 -186t-96.5 -133.5t-141.5 -78t-174 -26.5q-126 0 -225 45.5t-160 143t-61 235.5q0 194 123 312.5t323 118.5zM559 664q60 0 102.5 56.5t61 140t18.5 181.5
q0 76 -10 142t-30.5 122t-56.5 88.5t-85 32.5q-64 0 -107 -57.5t-60 -141t-17 -186.5q0 -98 19 -181.5t62 -140t103 -56.5zM1561 930q200 0 323 -118t123 -312q0 -138 -61 -235.5t-160 -143t-225 -45.5q-94 0 -173.5 26.5t-141 78t-96 133.5t-34.5 186q0 194 122.5 312
t322.5 118zM1561 121q60 0 103 56t62 139.5t19 181.5q0 76 -10 142.5t-31 123t-57.5 89t-85.5 32.5t-85.5 -32.5t-57 -89t-30.5 -123t-10 -142.5q0 -98 19 -181.5t61.5 -139.5t102.5 -56z" />
    <glyph glyph-name="ampersand" unicode="&#x26;" horiz-adv-x="1832" 
d="M1800 55l10 -55h-557q-108 50 -237 135q-90 -87 -183 -121t-231 -34q-147 0 -262 48.5t-185.5 151t-70.5 246.5q0 75 22 146.5t67 137t122 117t178 78.5q-2 5 -3.5 15.5t-5 49t0.5 85.5q7 113 66.5 212t161.5 160.5t222 61.5q155 0 234.5 -76.5t79.5 -183.5
q0 -161 -111 -233t-336 -78q47 -165 128.5 -284t222.5 -251q63 120 36 336q-8 56 -46.5 91.5t-92.5 35.5h-102v45h436v-45h-27q-30 0 -50.5 -22t-20.5 -52q1 -136 -25.5 -234t-73.5 -190q123 -108 291 -192q77 -38 180 -69t162 -32zM866 1444q-78 0 -112.5 -86.5
t-16.5 -253.5q4 -38 12 -74t13 -52l6 -17q35 0 67 28t52.5 70.5t34 82.5t18.5 72q4 41 3 92t-21.5 94.5t-55.5 43.5zM594 39q213 0 334 154q-152 133 -272.5 305t-170.5 348q-69 -44 -122 -151t-44 -271q8 -157 84 -271t191 -114z" />
    <glyph glyph-name="quotesingle" unicode="'" horiz-adv-x="559" 
d="M279 1683q29 0 51 -22q21 -21 18 -55l-49 -469h-41l-51 469q-3 34 18 55q22 22 54 22z" />
    <glyph glyph-name="parenleft" unicode="(" horiz-adv-x="905" 
d="M414 662q0 -295 71 -518.5t213 -346.5l-41 -37q-47 38 -79 65.5t-87 82.5t-92.5 104t-82.5 123.5t-72.5 150t-46.5 173.5t-19 203t19 203t46.5 173t72.5 149.5t82.5 123.5t92.5 104t86.5 82t79.5 66l41 -39q-142 -124 -213 -345.5t-71 -516.5z" />
    <glyph glyph-name="parenright" unicode=")" horiz-adv-x="921" 
d="M492 662q0 295 -71.5 516.5t-213.5 345.5l41 39q48 -39 79.5 -66t86.5 -82t92.5 -104t82.5 -123.5t72.5 -149.5t46.5 -173t19 -203t-19 -203t-46.5 -173.5t-72.5 -150t-82.5 -123.5t-92.5 -104t-87 -82.5t-79 -65.5l-41 39q142 124 213.5 346t71.5 517z" />
    <glyph glyph-name="asterisk" unicode="*" horiz-adv-x="1296" 
d="M997 1139q37 -21 37 -66q0 -41 -26 -67q-28 -31 -56 -31q-29 0 -51 14q-17 9 -74 72q-44 50 -147 125q15 -125 37 -191q22 -67 22 -104q0 -39 -26 -62q-22 -22 -64 -22q-36 0 -63 24t-27 60q0 23 27 106q23 67 37 189q-125 -91 -154 -131q-62 -80 -117 -80
q-36 0 -61 29.5t-25 66.5q0 76 146 103q66 13 180 61q-128 53 -180 63q-26 5 -38 8t-37 12t-37 18.5t-23 26.5t-11 38q0 36 24.5 66t59.5 30q66 0 119 -80q29 -40 154 -131q-15 125 -37 191q-27 83 -27 104q0 36 27 60t63 24q41 0 66 -25q24 -21 24 -59q0 -37 -22 -104
q-22 -66 -37 -191q98 72 147 127q24 27 36 39.5t38 28.5t49 16q34 0 59 -30.5t25 -65.5q0 -25 -13 -44t-39.5 -30.5t-43.5 -17t-47 -11.5q-69 -13 -182 -63q112 -47 182 -61q72 -14 106 -35z" />
    <glyph glyph-name="plus" unicode="+" horiz-adv-x="1153" 
d="M623 1034v-346h329v-78h-329v-329h-78v329h-346v78h346v346h78z" />
    <glyph glyph-name="comma" unicode="," horiz-adv-x="698" 
d="M360 229q65 0 101.5 -47t36.5 -133q0 -20 -2.5 -42.5t-14.5 -61t-32 -73.5t-59 -75t-91 -71l-12 -9l-21 37l10 8q56 34 87 66t57 84q14 27 21 59t1 49v3l-2 2q-1 0 -6 -5q-34 -34 -76 -36q-57 -3 -90 30q-35 35 -35 95q0 53 35 86.5t92 33.5z" />
    <glyph glyph-name="hyphen" unicode="-" horiz-adv-x="1177" 
d="M250 618v78h657v-78h-657z" />
    <glyph glyph-name="period" unicode="." horiz-adv-x="497" 
d="M250 246q56 0 90.5 -36.5t34.5 -92.5q0 -54 -36.5 -90.5t-90.5 -36.5t-90.5 36.5t-36.5 90.5q0 55 36.5 92t92.5 37z" />
    <glyph glyph-name="slash" unicode="/" horiz-adv-x="655" 
d="M59 -186l451 1607h80l-451 -1607h-80z" />
    <glyph glyph-name="zero" unicode="0" horiz-adv-x="1167" 
d="M584 1391q117 0 211 -40.5t155 -108.5t102 -160.5t58.5 -191.5t17.5 -208q0 -327 -143 -514q-68 -88 -174.5 -138t-226.5 -50t-227.5 50t-174.5 138q-143 187 -143 514q0 109 17.5 208t58.5 191.5t102.5 160.5t155.5 108.5t211 40.5zM864 678q0 59 -6 132t-24.5 171.5
t-47.5 176.5t-82 133t-120 55q-68 0 -122 -58.5t-86.5 -155.5t-49.5 -213.5t-17 -240.5q0 -160 32.5 -307.5t97 -246.5t145.5 -99q82 0 148 99t99 246.5t33 307.5z" />
    <glyph glyph-name="one" unicode="1" horiz-adv-x="976" 
d="M362 195q13 86 13 288v566q0 73 -12 94.5t-52 21.5q-39 0 -110 -13t-88 -19l-15 47q4 1 16 4.5t22.5 6.5l17.5 5q265 80 356 132q70 41 70 75l53 -25v-895q0 -283 24 -338q19 -37 27 -49q27 -41 193 -41l8 -55h-762l10 55q63 0 109 4q58 6 84 39.5t36 96.5z" />
    <glyph glyph-name="two" unicode="2" horiz-adv-x="1071" 
d="M768 199q76 20 117 64.5t41 105.5h55v-369h-879v47q118 117 227 252.5t234 314.5q94 135 131.5 237.5t44.5 207.5q8 139 -41 211.5t-153 72.5q-17 0 -35.5 -3t-47 -17t-51.5 -36.5t-43 -66t-28 -102.5q-8 -61 14.5 -128t40.5 -79l6 -8l-28 -35l-303 287l26 29l47 -8
q49 105 157.5 160t246.5 55q91 0 167 -19.5t128.5 -52t88.5 -76.5t53 -92.5t17 -99.5q0 -44 -12 -89.5t-28.5 -84t-51 -87t-62.5 -83t-80.5 -89t-87 -88t-100.5 -97.5t-104 -101q-32 -32 -95.5 -91.5t-86.5 -82.5q337 3 475 41z" />
    <glyph glyph-name="three" unicode="3" horiz-adv-x="1099" 
d="M518 729q226 -2 371 -90t145 -229q0 -83 -29.5 -154.5t-80.5 -121.5t-118 -85t-142 -52t-154 -17q-260 0 -399 174l-7 6l39 35l7 -9q40 -57 128.5 -107.5t206.5 -51.5q121 -2 198.5 96t80.5 258q2 108 -37 175t-137.5 102.5t-265.5 35.5h-9v58h9q381 0 397 335
q11 259 -172 259q-67 0 -130.5 -54t-80.5 -164q-9 -61 10.5 -125t38.5 -81l6 -7l-28 -34l-291 272l26 31l47 -8q50 106 155.5 160.5t248.5 54.5q115 0 202 -28t133 -73t67.5 -93t21.5 -97q0 -173 -162 -277q-84 -55 -295 -88v-6z" />
    <glyph glyph-name="four" unicode="4" horiz-adv-x="1267" 
d="M408 55q55 0 90 3t62.5 14.5t42 25.5t25 44.5t14.5 62.5t7 88h-577v51l714 1055l125 -15v-1046h240v-45h-236q3 -79 12 -121t36 -71t70.5 -37.5t121.5 -8.5l10 -55h-766zM129 338h522v778l-522 -772v-6z" />
    <glyph glyph-name="five" unicode="5" horiz-adv-x="1044" 
d="M471 821q132 6 234.5 -27t161 -93t87.5 -132t29 -151q0 -106 -44 -191.5t-118 -138t-167 -80.5t-195 -28q-128 0 -232.5 46t-173.5 132l33 30q154 -163 348 -163q147 0 214 92.5t67 279.5q0 79 -13 143t-36 103.5t-49 67.5t-56 41t-53 18.5t-45 5.5q-54 0 -112 -18.5
t-93 -37.5t-84 -50l-8 -4l-31 20l37 643q423 21 557 45q54 10 84.5 40t30.5 69h55v-324h-688l-27 -428q67 41 145 64t142 26z" />
    <glyph glyph-name="six" unicode="6" horiz-adv-x="1138" 
d="M649 795q78 0 152.5 -26.5t135 -75t97.5 -125.5t37 -169q0 -103 -40.5 -185t-110.5 -132t-157.5 -76t-187.5 -26q-53 0 -109.5 16.5t-115 49t-110 87.5t-92 126t-64 171.5t-23.5 216.5q0 335 154 539q71 95 194.5 150t247.5 55q126 0 221.5 -63.5t149.5 -182.5l-45 -21
q-40 103 -129.5 162.5t-177.5 59.5q-361 0 -361 -738q21 39 47 69t65 58.5t95.5 44t126.5 15.5zM582 25q29 0 55 6.5t59 29.5t56.5 61.5t40 110t16.5 166.5q0 75 -9.5 133t-33.5 109.5t-70 79t-112 27.5q-180 0 -262 -246q17 -233 85.5 -355t174.5 -122z" />
    <glyph glyph-name="seven" unicode="7" horiz-adv-x="1005" 
d="M72 1370h886v-49q-5 -5 -42.5 -56t-99.5 -147t-122.5 -202.5t-112 -233t-67.5 -227.5q-40 -261 11 -453l1 -2h-352q0 225 150 549q32 69 77.5 144t86.5 133t97.5 127.5t88 105.5t80.5 91t55 62q-156 0 -226.5 -0.5t-171 -6.5t-147.5 -19q-63 -16 -100 -87t-37 -149l-55 6
v414z" />
    <glyph glyph-name="eight" unicode="8" horiz-adv-x="1148" 
d="M743 735q170 -49 256 -144.5t86 -232.5q0 -83 -29.5 -148.5t-78 -108t-115 -70.5t-136 -39.5t-146.5 -11.5t-147 11.5t-137 39.5t-116 70.5t-78.5 108t-29.5 148.5q0 67 32 126t85.5 100t113.5 69.5t125 44.5q-146 57 -228.5 146t-82.5 229q0 71 29 128t75 91.5
t108.5 57.5t124 32t126.5 9t126 -9t123 -32t108 -57.5t74.5 -91.5t28.5 -128q0 -115 -78.5 -205.5t-218.5 -132.5zM635 758q49 20 83 58t49.5 84.5t21.5 86t6 80.5q0 279 -217 279q-97 0 -150 -72t-53 -203q0 -62 22 -115.5t53.5 -87t69.5 -59t66.5 -36.5t48.5 -15zM506 653
q-1 -1 -13 -7t-19 -10t-22 -13.5t-25.5 -18.5t-25 -24t-24.5 -30t-21 -36t-18 -43.5t-11.5 -51.5t-4.5 -61q0 -333 262 -333q86 0 143.5 47.5t80.5 117.5t23 158q0 111 -76 183.5t-249 121.5z" />
    <glyph glyph-name="nine" unicode="9" horiz-adv-x="1155" 
d="M500 575q-78 0 -153 26.5t-136 75t-98 125.5t-37 169q0 103 40.5 185t110.5 132.5t158 76.5t188 26q53 0 109.5 -16.5t115 -49t110 -88t92 -126.5t64 -171.5t23.5 -216.5q0 -336 -153 -539q-71 -95 -194 -149.5t-248 -54.5q-126 0 -222.5 63.5t-150.5 181.5l47 21
q40 -103 129.5 -162t177.5 -59q358 0 358 737q-30 -53 -65 -90.5t-104.5 -67t-161.5 -29.5zM567 1346q-29 0 -55 -6.5t-59 -30t-56.5 -62t-40 -110t-16.5 -166.5q0 -75 9.5 -133t32.5 -109t69 -78.5t112 -27.5q183 0 264 245q-17 233 -85.5 355.5t-174.5 122.5z" />
    <glyph glyph-name="colon" unicode=":" horiz-adv-x="706" 
d="M354 1030q55 0 90 -38t35 -93q0 -54 -36.5 -90.5t-90.5 -36.5t-90.5 36.5t-36.5 90.5q0 56 37 93.5t92 37.5zM354 248q55 0 90 -37t35 -92t-35.5 -91t-91.5 -36q-49 0 -90 35q-37 37 -37 92t36.5 92t92.5 37z" />
    <glyph glyph-name="semicolon" unicode=";" horiz-adv-x="706" 
d="M358 756q-56 0 -91.5 36t-35.5 91q0 54 36.5 91.5t90.5 37.5q55 0 91 -37t36 -92q0 -56 -36 -92q-41 -35 -91 -35zM367 229q65 0 101 -47t36 -133q0 -20 -2.5 -42.5t-14.5 -61t-32 -73.5t-59 -75t-91 -71l-14 -9l-21 39l13 6q55 35 85 67t56 83q36 75 25 108q-2 4 -5 7
q-4 -4 -4 -7q-1 -1 -6 -5.5t-8 -6.5t-8.5 -6.5t-10.5 -6.5t-11.5 -5t-14.5 -4.5t-16 -1.5q-59 0 -91 32q-34 27 -34 93q0 54 35 87t92 33z" />
    <glyph glyph-name="less" unicode="&#x3c;" horiz-adv-x="1136" 
d="M168 651l754 310v-82l-639 -261l639 -256v-79l-754 301v67z" />
    <glyph glyph-name="equal" unicode="=" horiz-adv-x="1255" 
d="M238 864h753v-80h-753v80zM238 379v78h753v-78h-753z" />
    <glyph glyph-name="greater" unicode="&#x3e;" horiz-adv-x="1140" 
d="M973 586l-754 -310v82l639 260l-639 256v80l754 -299v-69z" />
    <glyph glyph-name="question" unicode="?" horiz-adv-x="1005" 
d="M549 1509q172 0 273.5 -75.5t101.5 -202.5q0 -31 -9.5 -63t-22 -57.5t-38.5 -57t-44 -51.5t-54 -51.5t-54 -46t-57 -46.5q-9 -7 -41.5 -30t-57.5 -41.5t-58 -49t-55 -59t-38 -65.5t-16 -74q0 -67 127 -172l8 -7l-31 -30l-6 4q-170 148 -170 274q0 55 20.5 106t54 92.5
t73.5 81.5t79.5 80.5t73 82.5t54 94.5t20.5 109.5q0 99 -30 154t-107 55t-125 -46t-62 -173q-4 -38 3.5 -81.5t15.5 -68t10 -24.5l-27 -33l-241 230l26 30l56 -10q19 30 28 44t30 42t37.5 43t45 35.5t56.5 30.5t67.5 18t83.5 8zM498 203q55 0 90 -37t35 -92
q0 -56 -35.5 -91.5t-91.5 -35.5q-49 0 -90 35q-37 37 -37 92q0 56 36.5 92.5t92.5 36.5z" />
    <glyph glyph-name="at" unicode="@" horiz-adv-x="1798" 
d="M1626 684q6 -275 -127 -420q-113 -119 -258 -119q-61 0 -103.5 35t-43.5 92q-2 65 26 150h-8q-11 -34 -20 -57t-35 -69t-55 -75t-78.5 -52.5t-108.5 -23.5q-123 0 -188.5 78.5t-65.5 204.5q0 53 19 116t66.5 135t116.5 130t180 96.5t245 38.5l272 -12q-49 -174 -114 -502
q-21 -97 -19.5 -149t31.5 -52q21 0 48.5 15t58.5 50.5t56.5 86t42.5 130t17 173.5q0 241 -149 377q-47 43 -105 71t-121.5 38.5t-102.5 13t-93 2.5q-132 0 -238 -52t-175 -143.5t-105.5 -214t-36.5 -264.5q0 -138 29 -252t78.5 -191.5t117 -131.5t143 -78.5t158.5 -24.5
q212 0 399 96l23 -36q-192 -111 -442 -111q-143 0 -280.5 52t-247 144t-176.5 232.5t-67 304.5q0 148 46.5 270.5t125 206.5t185 142.5t224.5 85t245 26.5q111 0 203 -22.5t153.5 -58.5t108.5 -87.5t73.5 -101.5t43 -107.5t22 -100t6.5 -85.5zM1106 502l96 399
q-77 0 -143 -43t-111 -115t-73 -161.5t-37 -188.5q-6 -66 4 -108t23.5 -55t27.5 -13q43 0 81 30.5t64 79.5t41.5 91t26.5 84z" />
    <glyph glyph-name="A" unicode="A" horiz-adv-x="1550" 
d="M1038 68q23 10 23 49q0 25 -37.5 134.5t-75.5 205.5l-76 207q-204 -32 -364 -148q-46 -34 -84 -72.5t-53 -58t-19 -27.5q-63 -179 -63 -219q0 -84 207 -84l10 -55h-506l10 55q110 0 163.5 39t88.5 148q4 14 72.5 213t135 392.5t67.5 196.5q29 85 40.5 118.5t26.5 81.5
t20 72t5 40q0 55 -23 69q-21 13 -117 13l-10 53h373q6 -18 246.5 -656.5t253.5 -666.5q32 -67 72.5 -90t119.5 -23l8 -55h-643l11 55q89 0 118 13zM393 479q183 179 463 228l-199 550z" />
    <glyph glyph-name="B" unicode="B" horiz-adv-x="1259" 
d="M1077 729q63 -36 111.5 -119.5t48.5 -185.5q0 -99 -37 -175.5t-95.5 -122.5t-141.5 -75.5t-164.5 -40t-173.5 -10.5h-596l10 55q52 0 79 3.5t52 17t37.5 41.5t21.5 76q11 86 11 294v517q0 310 -27 368q-9 20 -34.5 38.5t-47.5 21.5q-36 4 -92 4l-10 55h573
q99 0 186.5 -18.5t144 -46.5t90.5 -52.5t50 -44.5q60 -78 60 -184q0 -133 -133 -226.5t-336 -93.5v-12q137 0 244.5 -24.5t168.5 -59.5zM506 1444v-602q83 0 143.5 17t96 43.5t56.5 68t27.5 82t6.5 92.5q0 161 -75 230t-255 69zM571 47q79 0 143 22t105.5 58.5t69 86
t39.5 102t12 108.5q0 88 -30.5 156.5t-76 108t-107 64.5t-114.5 33.5t-106 8.5v-340q0 -261 12 -326q16 -82 53 -82z" />
    <glyph glyph-name="C" unicode="C" horiz-adv-x="1517" 
d="M1522 604l45 -16q-3 -9 -14.5 -36t-43.5 -86.5t-72 -119.5t-103 -128t-133.5 -119t-167 -85t-199.5 -34q-75 0 -149 10t-154.5 34.5t-151 62.5t-135.5 98.5t-111 138t-73 185.5t-27 236q0 171 63 316.5t170 243t249.5 152t301.5 54.5q209 0 348 -79.5t230 -243.5l63 10
l27 -29l-656 -624l-32 33l145 137q149 146 204.5 228.5t55.5 152.5q0 90 -48 174t-138 139t-199 55q-93 0 -180.5 -50t-156 -139.5t-109.5 -226.5t-41 -298q0 -130 38.5 -259.5t104 -232.5t161 -167t200.5 -64q97 0 187 32t156 80.5t125.5 113t97 121.5t67.5 113.5t41 82
t14 34.5z" />
    <glyph glyph-name="D" unicode="D" horiz-adv-x="1591" 
d="M563 1491q227 0 400 -34.5t288 -96.5t187.5 -156t103.5 -206t31 -253q0 -123 -27.5 -229.5t-92.5 -203t-163.5 -164.5t-248.5 -108t-339 -40h-669l10 55q109 0 156 37q45 39 45 395v517q0 217 -13 303q-12 78 -32 94q-47 37 -156 37l-10 53h530zM676 45q134 0 248.5 59
t190.5 157t118.5 223.5t42.5 258.5q0 346 -164 523.5t-455 177.5q-112 0 -147 -4v-979q0 -263 12 -330q12 -65 56 -86h98z" />
    <glyph glyph-name="E" unicode="E" horiz-adv-x="1243" 
d="M1157 532l49 9v-541h-1175l10 55q109 0 156 37q45 39 45 395v517q0 217 -13 303q-12 78 -32 94q-47 37 -156 37l-10 53h1097v-502l-49 6v135q0 316 -487 316q-13 0 -41 -1t-43 -1v-672q166 0 244 20.5t114 77.5q22 34 33.5 116t11.5 149l45 12v-799l-45 14
q0 84 -6.5 140.5t-26.5 98.5t-46.5 65t-76 37t-104.5 18t-143 4v-270q0 -261 14 -324q12 -64 60 -86q118 0 203 9.5t150.5 33t107 59t67.5 92t36.5 126.5t10.5 167z" />
    <glyph glyph-name="F" unicode="F" horiz-adv-x="1175" 
d="M33 1491h1097v-502l-49 6v135q0 316 -487 316q-13 0 -41 -1t-43 -1v-672q166 0 244 20.5t114 77.5q22 34 33.5 116t11.5 149l45 12v-799l-45 14q0 84 -6.5 140.5t-26.5 98.5t-46.5 65t-76 37t-104.5 18t-143 4v-252q0 -317 51 -375q17 -20 87 -31.5t128 -11.5l8 -55h-751
l10 55q109 0 156 37q45 39 45 381v531q0 217 -13 303q-12 78 -32 94q-47 37 -156 37z" />
    <glyph glyph-name="G" unicode="G" horiz-adv-x="1579" 
d="M397 827h1205l-11 -51q-124 0 -147 -47q-12 -22 -32.5 -316.5t-20.5 -412.5h-50l-14 307q-33 -69 -79 -126.5t-107.5 -103.5t-142.5 -71.5t-173 -25.5q-134 0 -253 29t-219.5 90.5t-173 151t-113.5 216t-41 278.5q0 118 33.5 229.5t101 208.5t160 169.5t219.5 114.5
t272 42q204 0 344 -78.5t231 -244.5l64 12l27 -31l-297 -282l-31 39q20 20 34.5 62t14.5 93q0 113 -58 203t-145.5 136t-183.5 46q-116 0 -211.5 -63.5t-154.5 -166.5t-91 -228.5t-32 -255.5q0 -133 39 -264t105 -233t161.5 -165t199.5 -63q99 0 182.5 39t138 100.5
t92.5 140.5t55 157t18 152l-4 68q0 40 -33 63q-11 8 -35 13.5t-60.5 9t-69 5.5t-80.5 2.5t-75 0.5h-72h-53h-423z" />
    <glyph glyph-name="H" unicode="H" horiz-adv-x="1679" 
d="M1475 92q49 -37 155 -37l8 -55h-686l9 55q60 0 92 4q36 6 66.5 44.5t33.5 89.5q10 132 10 294v310q-203 -9 -374 -78t-275 -184v-48q0 -195 14 -303q8 -73 33 -92q49 -37 156 -37l10 -55h-688l10 55q60 0 92 4q36 6 66 44t33 90q10 132 10 294v517q0 218 -12 301
q-12 80 -31 96q-47 37 -158 37l-10 53h688l-10 -53q-114 0 -156 -37q-24 -21 -35.5 -104.5t-11.5 -292.5v-406q115 108 285 173.5t364 72.5v160q0 218 -12 301q-11 78 -33 96q-47 37 -155 37l-11 53h688l-10 -53q-113 0 -155 -37q-24 -21 -36 -105t-12 -292v-517
q0 -187 15 -303q8 -73 33 -92z" />
    <glyph glyph-name="I" unicode="I" horiz-adv-x="761" 
d="M561 92q49 -37 156 -37l8 -55h-686l10 55q60 0 92 4q36 6 66 44t33 90q10 132 10 294v517q0 218 -12 301q-12 80 -31 96q-47 37 -158 37l-10 53h686l-8 -53q-114 0 -156 -37q-24 -21 -35.5 -104.5t-11.5 -292.5v-517q0 -195 14 -303q8 -73 33 -92z" />
    <glyph glyph-name="J" unicode="J" horiz-adv-x="753" 
d="M43 1491h676l-8 -53q-118 0 -156 -35q-14 -13 -23 -43.5t-15.5 -117.5t-6.5 -234v-744q0 -218 -124.5 -353.5t-336.5 -135.5q-45 0 -87 12.5t-69.5 29.5t-48 35.5t-30 30t-9.5 13.5l37 24q3 -4 8.5 -11t25.5 -24t42 -30t57.5 -24t73.5 -11q19 0 31 1t35.5 7.5t39.5 18.5
t36 37.5t32 61.5t20.5 92.5t8.5 127.5v842q0 304 -31 368q-21 52 -78 58q-36 4 -90 4z" />
    <glyph glyph-name="K" unicode="K" horiz-adv-x="1480" 
d="M1255 1436q-45 0 -84 -14t-78 -47t-66 -62.5t-71 -83.5l-231 -291h147q-2 -105 37.5 -254t107 -296.5t171 -271t215.5 -167.5l-31 -39q-64 16 -143.5 60.5t-170 124t-172 180.5t-152.5 241.5t-109 294.5l-115 -141v-185q0 -193 14 -301q8 -73 33 -92q49 -37 156 -37
l10 -55h-688l10 55q60 0 92 4q36 6 66 44t33 90q10 132 10 292v519q0 212 -13 301q-12 81 -30 96q-44 35 -158 35l-10 55h688l-10 -55q-116 0 -156 -35q-24 -21 -35.5 -104.5t-11.5 -292.5v-261l102 127q-2 11 -6 33.5t-6 34.5h66l245 307q40 49 60.5 101t9.5 75
q-10 15 -35 15h-47l-8 55h543l-11 -55h-168z" />
    <glyph glyph-name="L" unicode="L" horiz-adv-x="1198" 
d="M1108 508v96l53 10v-614h-1118l10 55q54 0 90 4q53 6 80 58q13 24 21 135t8 235v517q0 308 -27 372q-24 52 -80 58q-36 4 -92 4l-10 53h686l-10 -53q-119 0 -156 -37q-22 -22 -34.5 -104t-12.5 -293v-549q0 -243 14 -322q6 -33 21.5 -60.5t40.5 -27.5q163 0 261 19
t157 65q98 78 98 379z" />
    <glyph glyph-name="M" unicode="M" horiz-adv-x="1974" 
d="M1769 92q47 -37 156 -37l8 -55h-682l11 55q109 0 153 35q32 27 39 193q4 90 4 204v766l-401 -972l153 -281h-297l-598 1083v-591q0 -213 17.5 -296t60.5 -116q29 -25 150 -25l8 -55h-512l10 55q98 0 123 11q60 26 78 107.5t18 318.5l2 540q0 80 -1.5 128t-11 115.5
t-28.5 96.5q-22 34 -78 50t-102 16l-10 53h354l635 -1157l475 1157h430l-10 -53q-107 0 -154 -37q-47 -41 -47 -397v-517q0 -217 13 -303q11 -75 34 -92z" />
    <glyph glyph-name="N" unicode="N" horiz-adv-x="1669" 
d="M1626 1434q-39 0 -64 -2t-52.5 -10t-44.5 -22.5t-31.5 -39.5t-22.5 -62q-8 -39 -8 -229v-827l192 -242h-340l-933 1174q0 -932 10 -981q17 -85 66 -111.5t145 -26.5l10 -55h-512l10 55q37 0 63 2.5t53 10.5t45 23t32.5 40.5t21.5 61.5q8 38 8 217v598q0 233 -12 290
q-9 46 -26 74.5t-46.5 41.5t-58.5 16.5t-80 3.5l-10 53h362l953 -1188v768q0 182 -10 231q-8 37 -22.5 62.5t-32 39.5t-45 22t-52.5 10t-64 2l-10 53h516z" />
    <glyph glyph-name="O" unicode="O" horiz-adv-x="1720" 
d="M860 1511q173 0 324.5 -50t266.5 -143t181 -237t66 -321q0 -141 -43 -264t-120.5 -215.5t-182 -160t-230 -103t-262.5 -37.5q-171 3 -323 59t-266 154.5t-180 245.5t-66 321q0 178 65.5 322t179.5 237t265 142.5t325 49.5zM860 27q115 2 208.5 45.5t155 113.5t103.5 164
t60 193t18 205q0 99 -18 196.5t-59.5 192.5t-102.5 166.5t-155.5 116t-209.5 44.5q-113 0 -207 -44.5t-155.5 -116t-103.5 -166.5t-60.5 -192.5t-18.5 -196.5q0 -106 18 -205t60 -193t103.5 -164t155 -113.5t208.5 -45.5z" />
    <glyph glyph-name="P" unicode="P" horiz-adv-x="1275" 
d="M690 1491q567 0 567 -436q0 -190 -131.5 -315.5t-322.5 -125.5q-160 0 -289 52v-179q0 -224 12 -303q11 -74 33 -92q49 -37 156 -37l10 -55h-686l10 55q107 0 154 37q47 41 47 395v517q0 224 -12 303q-12 73 -35 92q-47 37 -154 37l-10 55h651zM731 666q97 0 173.5 105
t76.5 284q0 178 -94 283.5t-264 105.5h-109v-721q94 -57 217 -57z" />
    <glyph glyph-name="Q" unicode="Q" horiz-adv-x="1720" 
d="M2169 -156l31 -37q-254 -208 -435 -208q-85 0 -160 14t-140 41.5t-110 52t-107 62.5q-4 3 -6.5 4.5t-6 3.5t-6.5 4q-70 42 -108 62.5t-93.5 39.5t-105.5 19q-136 0 -252 -41l-189 -66l-14 43q25 9 146 59t171 74q2 1 11 5t12 6q-166 12 -309 70.5t-250 156.5t-168.5 240
t-61.5 311q0 178 65.5 322t180 237t265.5 142.5t325 49.5q173 0 324.5 -50t266.5 -143t181 -237t66 -321q0 -281 -161 -477.5t-435 -268.5l-303 -80l8 -14q190 51 239 51q91 0 196.5 -36.5t236.5 -100.5q16 -8 65.5 -32t68.5 -33t59.5 -26.5t64.5 -24t56 -13t60 -6.5
q82 0 152.5 35.5t169.5 109.5zM309 748q0 -106 18 -205t60 -193t103.5 -164t155 -113.5t208.5 -45.5q115 2 208.5 45.5t155 113.5t103.5 164t60 193t18 205q0 99 -18 196.5t-59.5 192.5t-102.5 166.5t-155.5 116t-209.5 44.5q-113 0 -207 -44.5t-155.5 -116t-103.5 -166.5
t-60.5 -192.5t-18.5 -196.5z" />
    <glyph glyph-name="R" unicode="R" horiz-adv-x="1380" 
d="M862 731q9 -113 44 -231t92.5 -227.5t145.5 -197t193 -128.5l-34 -37q-304 75 -486.5 280t-224.5 539h-82v-244q0 -223 12 -303q12 -73 33 -90q46 -37 158 -37l10 -55h-686l10 55q110 0 154 35q32 27 39 193q4 90 4 202v529q0 223 -13 303q-13 73 -30 86q-45 31 -154 31
l-10 57h592q269 0 405.5 -93.5t136.5 -277.5q0 -68 -29 -131t-86 -117.5t-153.5 -91.5t-220.5 -47zM510 1444v-668h115q64 0 113.5 24t77.5 60t46.5 84t24.5 89t6 81q0 160 -70 245t-194 85h-119z" />
    <glyph glyph-name="S" unicode="S" horiz-adv-x="1144" 
d="M610 868q54 -30 84.5 -48t79 -50t77 -57.5t62.5 -64t52.5 -76t31.5 -86.5t13 -103q0 -188 -155 -295.5t-406 -107.5q-59 0 -110 15t-84 36.5t-60 50.5t-40.5 50.5t-23.5 43.5l49 21q37 -80 108 -126t158 -46q147 0 228.5 84.5t81.5 224.5q0 30 -10.5 59t-23.5 51
t-42.5 49.5t-49 43.5t-63 43.5t-64 40t-71.5 41.5q-54 31 -85 50t-79 51t-76.5 58t-62.5 63.5t-52.5 74t-31 84t-12.5 98.5q0 91 46.5 164t121.5 116.5t163.5 66.5t180.5 23q90 0 169 -25t130 -59t94 -80.5t63 -78t35 -62.5l64 13l26 -31l-299 -285l-28 37q24 24 46.5 85
t22.5 120q0 11 -1.5 28t-9 49t-20 62.5t-37.5 64t-57.5 58.5t-84 41t-113.5 16t-109 -16.5t-74.5 -41.5t-44.5 -60.5t-22.5 -68t-5.5 -69.5q0 -33 9.5 -63.5t24 -55.5t40.5 -51t49.5 -45.5t61.5 -44t65 -40t71 -40.5z" />
    <glyph glyph-name="T" unicode="T" horiz-adv-x="1339" 
d="M18 1491h1303v-504l-55 8v9q0 82 -7 139.5t-25.5 109.5t-52 85t-86 58t-127.5 36t-177 12v-957q0 -214 10 -292q5 -32 22.5 -65.5t40.5 -49.5q34 -25 166 -25h6l11 -55h-754l10 55h6q38 0 57.5 1t49 4.5t45.5 12.5t34 24t28 39.5t16 58.5q10 75 10 292v957
q-102 -1 -176.5 -12t-127.5 -36t-85.5 -58t-51.5 -85t-25.5 -109.5t-6.5 -139.5v-9l-58 -8v504z" />
    <glyph glyph-name="U" unicode="U" horiz-adv-x="1642" 
d="M1112 1491h512l-10 -55q-54 0 -82 -3t-55.5 -16.5t-42 -41t-25.5 -75.5q-18 -88 -18 -296v-410q0 -136 -34.5 -247t-102.5 -193.5t-176 -128t-249 -45.5q-295 0 -447.5 150.5t-152.5 442.5v433q0 222 -12 301q-12 73 -35 92q-47 37 -153 37l-11 55h682l-10 -55
q-91 0 -134.5 -23.5t-53.5 -105.5q-10 -78 -10 -301v-431q0 -269 88.5 -402.5t271.5 -133.5q91 0 166 22t125 57.5t87.5 85.5t58.5 99t34 105.5t16.5 98t3.5 83.5v414q0 208 -18 296q-19 88 -62 112t-143 24z" />
    <glyph glyph-name="V" unicode="V" horiz-adv-x="1681" 
d="M1135 1491h548l-10 -55q-83 0 -129 -11q-81 -21 -158 -178q-30 -66 -92 -237l-354 -1020h-192l-375 1020q-117 310 -162 364q-45 52 -105 58q-36 4 -92 4l-10 55h684l-10 -55q-97 3 -117 -13q-21 -15 -23.5 -46t3 -52t18.5 -59q1 -4 88.5 -243t186 -509.5t122.5 -337.5
l295 844q76 217 76 326q0 56 -27 71q-14 8 -60 13.5t-95 5.5z" />
    <glyph glyph-name="W" unicode="W" horiz-adv-x="2453" 
d="M1907 1491h547l-9 -55q-83 0 -129 -11q-80 -20 -157 -178q-35 -77 -93 -237l-354 -1020h-192l-297 809l-283 -809h-192l-375 1020q-117 310 -162 364q-45 52 -105 58q-36 4 -92 4l-10 55h684l-10 -55q-97 3 -117 -13q-21 -15 -23.5 -46t3 -52t18.5 -59q1 -4 88.5 -243
t186 -509.5t122.5 -337.5l242 690l-53 144q-117 310 -162 364q-46 52 -104 58q-36 4 -95 4l-8 55h682l-8 -55q-97 3 -117 -13q-21 -15 -23.5 -46t3 -52t18.5 -59q1 -4 88.5 -243t186.5 -509.5t123 -337.5l294 844q76 217 76 326q0 57 -26 71q-14 8 -60.5 13.5t-95.5 5.5z
" />
    <glyph glyph-name="X" unicode="X" horiz-adv-x="1753" 
d="M1151 61q9 3 14 13q3 12 -10 35q-8 14 -84 125t-163 237t-103 150q-93 -116 -215 -275q-106 -138 -129 -180q-27 -47 -27 -78q0 -16 21 -22q29 -11 135 -11l10 -55h-569l10 55q63 2 94 3.5t72 8.5t63 18t53 32.5t58 51t63 75.5q98 123 332 422l-231 340
q-118 172 -168 239q-81 109 -152 150t-196 41l-11 55h701l-8 -55h-7q-25 0 -38 -0.5t-30 -2t-25 -5.5t-9 -11t0 -14t6 -17.5t7.5 -15t11 -17.5t8.5 -14q49 -70 307 -448q191 231 318 401q58 78 43 117q-2 9 -19 16q-29 11 -135 11l-8 55h563l-8 -55q-60 0 -91.5 -1
t-69.5 -7.5t-59 -16.5t-50.5 -31.5t-55.5 -49.5t-63 -73l-334 -409l252 -363q133 -196 217 -295q71 -84 128.5 -109.5t168.5 -25.5l8 -55h-698l8 55q76 0 94 6z" />
    <glyph glyph-name="Y" unicode="Y" horiz-adv-x="1523" 
d="M1016 1491h502l-11 -55q-129 0 -168 -23q-29 -17 -56 -59t-79 -142q-16 -30 -138.5 -279t-133.5 -274q0 -479 39 -540q34 -52 98 -60q40 -4 109 -4l10 -55h-768l8 55q67 0 113 4q65 6 98 60q20 33 27.5 154.5t5.5 226.5l-2 106q-16 26 -188 312.5t-197 328.5
q-41 71 -88.5 118t-83.5 60q-27 11 -103 11l-10 55h655l-10 -55q-75 0 -104 -11q-19 -6 -19 -26q0 -33 25 -78q7 -12 84.5 -146.5t163.5 -284.5t106 -185l256 524q49 100 49 151q0 32 -22 43q-11 5 -61.5 9t-98.5 4z" />
    <glyph glyph-name="Z" unicode="Z" horiz-adv-x="1310" 
d="M1276 1491v-113l-973 -1333h369q101 0 151.5 1t113.5 7.5t97 20.5q101 39 135.5 174t34.5 418l53 8v-674h-1218v129l946 1315q-467 0 -571 -14q-74 -9 -113 -28.5t-74 -64.5q-55 -75 -55 -342l-55 -8v504h1159z" />
    <glyph glyph-name="bracketleft" unicode="[" horiz-adv-x="864" 
d="M233 -195v1760h431v-47h-172v-1665h172v-48h-431z" />
    <glyph glyph-name="backslash" unicode="\" horiz-adv-x="655" 
d="M141 1421l451 -1607h-80l-451 1607h80z" />
    <glyph glyph-name="bracketright" unicode="]" horiz-adv-x="864" 
d="M637 1563v-1758h-430v45h172v1668h-172v45h430z" />
    <glyph glyph-name="asciicircum" unicode="^" horiz-adv-x="735" 
d="M362 1522h56l262 -435h-86l-205 340l-209 -340h-86z" />
    <glyph glyph-name="underscore" unicode="_" horiz-adv-x="989" 
d="M39 -330v78h919v-78h-919z" />
    <glyph glyph-name="grave" unicode="`" horiz-adv-x="681" 
d="M156 1815q26 3 49 -17l330 -285l-23 -32l-385 202q-27 13 -33 41q-7 35 10 58q23 30 52 33z" />
    <glyph glyph-name="a" unicode="a" horiz-adv-x="1077" 
d="M1034 141l25 -45q-32 -30 -171 -72.5t-245 -35.5q-14 53 -20 315l53 266h-17l-41 -207q-16 -70 -29.5 -117t-37 -102.5t-51 -88t-70.5 -55t-96 -22.5q-83 0 -146 24t-99 64t-53.5 86.5t-17.5 98.5q0 108 76.5 191.5t208.5 137t318 83.5v24q0 62 -1 93t-6 69t-16 57
q-43 78 -147 78q-70 0 -130 -49.5t-67 -153.5q-4 -48 4 -92t18 -64l9 -20l-25 -33l-235 224l22 26l47 -8q16 31 29.5 52t45.5 55t68 55t96 37t132 16q175 0 293.5 -96t118.5 -252l2 -209q0 -231 14 -297q12 -59 55 -59q33 0 86 26zM621 573v60q-168 -42 -250 -138.5
t-82 -236.5q0 -83 27 -141t73 -58q45 0 85 48t66 116.5t45 144t27.5 130t8.5 75.5z" />
    <glyph glyph-name="b" unicode="b" horiz-adv-x="1177" 
d="M739 1026q200 0 310 -138t110 -390q0 -233 -152 -377t-399 -144q-80 0 -162 43q-12 4 -32 4t-42.5 -3t-46.5 -7.5t-46.5 -10t-40 -10.5t-28.5 -8l-11 -3v1200q0 250 -49 288q-29 20 -123 15l-9 51q184 27 439 27v-998l-47 -303h14l33 205q80 559 282 559zM612 25
q53 0 104 28.5t94.5 84t70 149t26.5 211.5q0 126 -15.5 219.5t-44 147t-63 79t-75.5 25.5q-57 0 -107 -104t-80 -247t-47.5 -274.5t-17.5 -204.5v-67q60 -47 155 -47z" />
    <glyph glyph-name="c" unicode="c" horiz-adv-x="1001" 
d="M549 27q89 0 172 54t127 140l39 -20q-55 -108 -149 -166t-220 -58q-226 0 -363 134t-137 381q0 258 139 396t375 138q83 0 147 -15.5t108 -46.5t73 -67t53 -86l48 8l22 -24l-235 -226l-25 33q4 8 9 21.5t13 53.5t5 77q-9 112 -67.5 169.5t-150.5 57.5q-243 0 -243 -475
q0 -234 73 -356.5t187 -122.5z" />
    <glyph glyph-name="d" unicode="d" horiz-adv-x="1183" 
d="M1141 143l24 -47q-18 -16 -73 -42.5t-157 -51.5t-194 -16q-1 9 -14 493l57 350h-16l-43 -270q-5 -35 -13 -77.5t-24.5 -115t-39.5 -135.5t-52 -123t-68.5 -95.5t-83.5 -35.5q-203 0 -314.5 138.5t-111.5 390.5q0 242 155 383t400 141q85 0 152 -18v188q0 151 -10 209
q-9 45 -25 55q-45 25 -137 25l-8 49q67 12 202.5 20.5t235.5 8.5v-1094q0 -233 14 -299q12 -59 56 -59q30 0 88 28zM725 864v101q-60 18 -152 18q-130 0 -206 -134.5t-76 -361.5q0 -98 8 -178.5t25.5 -146.5t48.5 -102.5t73 -36.5q62 0 117.5 113t88.5 265t52.5 280
t20.5 183z" />
    <glyph glyph-name="e" unicode="e" horiz-adv-x="960" 
d="M930 522h-643v-20q0 -62 6 -117q78 53 179 84t194 31q47 0 89 -10t79 -30.5t59 -58t22 -88.5q0 -94 -60.5 -173t-150 -121t-180.5 -42q-226 0 -366 142.5t-140 369.5q0 108 30.5 204t87.5 171.5t147 119.5t202 44q142 0 244.5 -66t151.5 -175.5t49 -249.5v-15zM483 985
q-55 0 -95.5 -48.5t-60.5 -121.5t-29.5 -136t-10.5 -114h366q-1 49 -4 95t-14 108.5t-28 107.5t-49 77t-75 32zM868 313q0 41 -19 70.5t-51.5 44t-66.5 21t-72 6.5q-91 0 -189 -33t-171 -88q22 -144 84 -226.5t158 -82.5q55 0 113 23t105.5 61t78 92.5t30.5 111.5z" />
    <glyph glyph-name="f" unicode="f" horiz-adv-x="722" 
d="M539 1104q53 66 77 172q11 42 9.5 86t-11.5 79.5t-35.5 58t-62.5 22.5q-62 0 -90 -39q-19 -26 -20.5 -69t7.5 -81t23 -69q29 -65 39 -108.5t10 -98.5v-49h166v-54h-166v-467q0 -204 15 -303q12 -76 32 -92q47 -37 150 -37h6l8 -55h-678l9 55h8q48 0 84 4q25 3 48 19
t32 39q9 21 18 76q10 78 10 294v467h-143v54h143v51q0 49 -2 76q-18 248 84 358q69 72 207 72q216 0 262 -201l47 8l25 -26l-289 -273z" />
    <glyph glyph-name="g" unicode="g" horiz-adv-x="1058" 
d="M817 180q125 -26 183.5 -86t58.5 -162q0 -84 -62.5 -148t-160.5 -98.5t-198 -51.5t-194 -17q-52 0 -102 3.5t-119.5 16.5t-120 35.5t-86.5 64.5t-36 99q0 35 20.5 66.5t53.5 53t64.5 35.5t63.5 23l148 45l-11 11l-155 -47q-49 26 -82 72.5t-33 97.5q0 32 16 61t47.5 53
t53 36.5t57.5 31.5q-174 98 -174 282q0 109 67.5 194.5t176.5 130t237 44.5q104 0 199 -29q61 0 106.5 14.5t67.5 32.5t35 41t15.5 34t2.5 16l45 -33v-150h-172q88 -51 137.5 -127.5t49.5 -165.5q0 -86 -34 -152.5t-84.5 -104.5t-119 -62.5t-127.5 -32.5t-119 -8
q-144 0 -258 49q-30 -18 -42.5 -27.5t-22.5 -27t-8 -39.5q1 -16 15 -27.5t38 -17t51 -9t61.5 -3.5t62.5 1t60.5 2t49.5 1q120 0 196 -8q81 42 138.5 90t85 93t38.5 81.5t11 72.5h43q0 -209 -234 -350zM532 981q-202 0 -202 -313q0 -150 45.5 -237t144.5 -87q89 0 151 79
t62 245q0 157 -47.5 235t-153.5 78zM479 -336q320 0 320 178q0 67 -48.5 99.5t-158 41.5t-320.5 1q-41 -25 -58 -54t-17 -77q0 -53 27 -92t71 -59t89.5 -29t94.5 -9z" />
    <glyph glyph-name="h" unicode="h" horiz-adv-x="1347" 
d="M866 98q23 53 23 277v287q0 51 -2 90t-9.5 84.5t-21 75t-37.5 49.5t-57 20q-50 0 -97 -67t-78.5 -165.5t-56 -209.5t-36 -200.5t-11.5 -137.5q-4 -54 21 -105q18 -41 147 -41l8 -55h-622l8 55q59 0 100.5 11.5t51.5 31.5q24 46 24 262v703q0 308 -26 364
q-9 22 -33.5 38.5t-50.5 19.5q-36 4 -86 4l-7 53q180 23 461 23v-998l-53 -303h14l39 232q90 532 295 532q173 0 273 -84t100 -262v-326q0 -206 27 -258q10 -20 50.5 -31.5t96.5 -11.5l8 -55h-620l8 55q59 0 99.5 11.5t49.5 31.5z" />
    <glyph glyph-name="i" unicode="i" horiz-adv-x="679" 
d="M344 1212q-52 0 -92.5 40.5t-40.5 93.5q0 54 39.5 93.5t93.5 39.5q56 0 94.5 -38.5t38.5 -94.5q0 -54 -39.5 -94t-93.5 -40zM47 55q128 0 150 43q26 43 26 262q0 388 -14 459q-13 83 -51 108t-131 25l-9 54q203 22 463 22v-672q0 -207 23 -260q11 -19 50.5 -30t96.5 -11
l11 -55h-625z" />
    <glyph glyph-name="j" unicode="j" horiz-adv-x="589" 
d="M348 1212q-55 0 -94 40.5t-39 95.5q0 52 39 94q42 39 94 39q54 0 94.5 -39.5t40.5 -93.5t-40.5 -95t-94.5 -41zM20 1008q200 22 465 22v-956q0 -115 -13 -207t-35 -155t-57 -109t-71 -72t-85.5 -41.5t-92.5 -20t-100 -4.5v48q45 0 77 10.5t53.5 36t34 56t19 85.5
t8.5 107.5t2 136.5v577q0 356 -61 408q-28 24 -137 24z" />
    <glyph glyph-name="k" unicode="k" horiz-adv-x="1165" 
d="M1219 -104l12 -5l-39 -30h-4q-233 51 -367 162q-183 150 -307 407l-29 -51v-19q0 -212 25 -262q10 -20 50.5 -31.5t98.5 -11.5l9 -55h-631l10 55q59 0 100.5 11.5t51.5 31.5q24 46 24 267q0 242 -3.5 600.5t-8.5 390.5q-12 76 -35 94q-44 41 -143 41h-8l-7 53
q198 25 467 25v-1098l199 342q22 36 25 72.5t-9 52.5q-9 18 -28 18h-70l-8 54h436l-8 -54h-86q-70 0 -120 -49t-99 -133l-33 -55q34 -241 147 -432q81 -137 182.5 -246.5t205.5 -144.5z" />
    <glyph glyph-name="l" unicode="l" horiz-adv-x="684" 
d="M47 55q59 0 100.5 11.5t51.5 31.5q24 46 24 264q0 221 -4.5 589t-9.5 401q-13 76 -33 92q-46 43 -151 43l-7 51q198 25 465 25v-1205q0 -210 25 -260q10 -20 50.5 -31.5t98.5 -11.5l9 -55h-629z" />
    <glyph glyph-name="m" unicode="m" horiz-adv-x="1959" 
d="M1479 98q22 52 22 277v287q0 161 -29 240t-77 79q-98 0 -173.5 -209t-115.5 -577q-3 -62 24 -99q30 -41 146 -41l10 -55h-604l10 55q53 0 89.5 11.5t45.5 31.5q21 48 21 277v287q0 48 -5.5 99t-17.5 103t-35.5 85.5t-54.5 33.5q-49 0 -92.5 -72.5t-74.5 -194.5
t-52 -243.5t-37 -257.5q-2 -74 25 -119q21 -41 147 -41l8 -55h-622l8 55q59 0 100.5 11.5t51.5 31.5q24 46 24 262v166q0 129 -2 189t-16 124.5t-43 90.5q-24 22 -135 22l-7 54q172 22 461 22v-461l-51 -303h16l41 238q49 286 112.5 406t160.5 120q80 0 139 -21t97 -57.5
t62 -96t35 -127t15 -159.5l-53 -303h16l43 254q32 157 62.5 252.5t72 155t91 81t124.5 21.5q141 0 219 -91t78 -255v-326q0 -206 27 -258q10 -20 50.5 -31.5t96.5 -11.5l9 -55h-607l8 55q53 0 90 11.5t46 31.5z" />
    <glyph glyph-name="n" unicode="n" horiz-adv-x="1349" 
d="M866 98q23 53 23 277v287q0 157 -27.5 238t-89.5 81q-59 0 -113.5 -90.5t-90 -225t-58 -254t-31.5 -210.5q-4 -58 25 -105q11 -19 50.5 -30t96.5 -11l11 -55h-625l8 55q59 0 100.5 11.5t51.5 31.5q24 46 24 262v166q0 179 -12.5 277.5t-48.5 124.5q-32 24 -135 24l-7 54
q172 22 461 22v-461l-47 -303h17l34 213q25 126 53 220t65.5 172t86 118.5t107.5 40.5q175 0 263.5 -83.5t88.5 -262.5v-326q0 -206 27 -258q10 -20 50.5 -31.5t96.5 -11.5l10 -55h-622l10 55q128 0 147 43z" />
    <glyph glyph-name="o" unicode="o" horiz-adv-x="1155" 
d="M569 1028q156 0 284.5 -62.5t206 -184t77.5 -279.5t-73.5 -278.5t-199 -183.5t-282.5 -63q-156 0 -283.5 62.5t-204 183.5t-76.5 279q0 159 72 279.5t196.5 183.5t282.5 63zM301 504q0 -222 84.5 -351.5t196.5 -129.5q69 0 123.5 46t85.5 118.5t47 153t16 159.5
q0 93 -16.5 177t-49.5 153t-89 110t-128 41q-117 0 -193.5 -137t-76.5 -340z" />
    <glyph glyph-name="p" unicode="p" horiz-adv-x="1157" 
d="M973 944q166 -147 166 -444q0 -141 -59 -259t-171 -189.5t-254 -71.5q-130 0 -200 81v-313v-27.5v-30v-28.5t1 -30.5t2 -27.5t3 -27t4.5 -22t6 -20t7.5 -14q36 -49 150 -49l8 -56h-619l9 56q124 0 145 43q25 57 25 274v889q0 201 -29 240q-13 16 -36 23t-40 8t-57 1
l-8 51q72 11 205 19t223 8v-461l-47 -305h14l33 195q46 282 118 426.5t183 144.5q124 0 217 -84zM618 25q67 0 116.5 42.5t76.5 114t40 151t13 167.5q0 63 -7.5 139t-23 156.5t-45 134t-67.5 53.5q-41 0 -79 -53.5t-66 -133.5t-52.5 -189.5t-40 -203t-28.5 -192.5v-66
q26 -54 74 -87t89 -33z" />
    <glyph glyph-name="q" unicode="q" horiz-adv-x="1097" 
d="M700 -227v704l62 350h-14l-48 -247q-4 -16 -13 -53q-13 -54 -20.5 -84.5t-23 -88t-28.5 -93t-32 -85t-38 -79.5t-42 -59.5t-49.5 -43.5t-54.5 -14q-49 0 -99.5 15.5t-101.5 51.5t-90.5 88t-64.5 132t-25 177q0 92 17 174.5t57 158.5t99.5 131t149.5 87.5t202 32.5
q135 0 192 -100q42 3 112.5 36.5t110.5 73.5v-1265q0 -214 23 -260q21 -41 149 -41l11 -56h-625l10 56q127 0 148 41q26 43 26 260zM705 836l2 38q-38 109 -158 109q-82 0 -142.5 -74t-88 -184t-27.5 -238q0 -83 7 -159.5t21.5 -147t42 -113t64.5 -42.5q40 0 95 114
t106 304.5t78 392.5z" />
    <glyph glyph-name="r" unicode="r" horiz-adv-x="970" 
d="M944 944l27 -31l-236 -225l-24 31q43 88 43 162q0 34 -11.5 63t-31.5 29q-27 0 -65 -67t-73.5 -172t-63.5 -251t-34 -288q0 -20 13 -62t38 -61q25 -17 123 -17l8 -55h-620l8 55q80 0 107 6q29 8 44 55.5t17 90.5q4 86 4 207v121q0 144 -11 249.5t-30 128.5
q-29 37 -151 37l-7 54q185 24 457 24v-461l-45 -303h14l33 213q48 260 120.5 417t150.5 157q123 0 151 -115z" />
    <glyph glyph-name="s" unicode="s" horiz-adv-x="835" 
d="M463 623q113 -70 159 -114q121 -114 101 -269q-9 -68 -41 -118.5t-74.5 -78.5t-99 -43.5t-105.5 -19t-104 -0.5q-66 6 -102 21q-86 36 -117 130l45 14q15 -39 40 -65.5t53 -37t46 -14t35 -3.5q77 0 122.5 41.5t45.5 154.5q0 38 -12 67.5t-43 56.5t-51 40t-68 40
q-13 7 -19 11q-42 23 -72 42t-68 51t-60.5 64.5t-36.5 78.5t-10 98q4 58 30.5 104t65 74t88.5 46t96.5 25t93.5 7q231 0 336 -211l45 8l25 -26l-236 -224l-26 31q23 37 35 119q4 31 -2.5 73.5t-22.5 85.5t-51 73t-82 30q-135 0 -135 -147q0 -37 12.5 -67t40.5 -57t53 -45
t70 -46z" />
    <glyph glyph-name="t" unicode="t" horiz-adv-x="649" 
d="M584 164l47 -8q-5 -20 -14 -39.5t-29 -46t-47.5 -46t-73 -33.5t-100.5 -14q-95 0 -159.5 51t-64.5 124v802h-125v54q36 0 87 16.5t104 46.5t92.5 82t44.5 113l60 4v-262h206v-54h-206v-794q0 -63 13.5 -89t45.5 -26q33 0 69 34t50 85z" />
    <glyph glyph-name="u" unicode="u" horiz-adv-x="1331" 
d="M1288 145l25 -45q-30 -24 -175.5 -72.5t-248.5 -39.5q-10 61 -21 487l56 350h-15l-43 -250q-23 -133 -47 -230t-59 -186t-83 -135.5t-108 -46.5q-169 0 -258.5 89.5t-89.5 257.5v200q0 208 -10.5 294t-48.5 110q-37 24 -137 24l-7 52q194 24 463 24v-684q0 -45 1 -76
t4.5 -72.5t11.5 -69.5t20.5 -54t32.5 -39t47 -13q58 0 115 126.5t96.5 311.5t56.5 378q0 5 -0.5 13t-12 29t-34.5 37q-54 37 -147 37l-8 52q187 24 460 24v-555q0 -229 15 -299q12 -59 55 -59q32 0 94 30z" />
    <glyph glyph-name="v" unicode="v" horiz-adv-x="1157" 
d="M772 1008h385l-8 -56h-6q-84 0 -113 -47q-32 -49 -125 -332l-186 -573h-189l-270 690q-69 172 -119 217q-51 45 -133 45l-8 56h635l-10 -56q-25 0 -37.5 -0.5t-32 -4.5t-29.5 -12t-18 -23t-8 -38q0 -85 96 -329l139 -348l144 440q57 159 57 219q0 51 -36 73.5t-114 22.5
h-6z" />
    <glyph glyph-name="w" unicode="w" horiz-adv-x="1820" 
d="M1434 1008h387l-11 -56h-6q-48 0 -71.5 -11.5t-38.5 -35.5q-32 -49 -125 -332l-189 -573h-188l-258 659q-4 -15 -14.5 -44t-14.5 -42l-186 -573h-189l-270 690q-69 172 -119 217q-51 45 -133 45l-8 56h635l-10 -56q-25 0 -37.5 -0.5t-32 -4.5t-29.5 -12t-18 -23t-8 -38
q0 -85 96 -329l139 -348l144 440q3 8 12.5 40.5t15.5 49.5q-59 140 -102 180q-51 45 -133 45l-10 56h634l-10 -56q-25 0 -37.5 -0.5t-32 -4.5t-29.5 -12t-18 -23t-8 -38q0 -85 96 -329l140 -348l143 440q57 159 57 219q0 51 -35.5 73.5t-113.5 22.5h-6z" />
    <glyph glyph-name="x" unicode="x" horiz-adv-x="1153" 
d="M985 100q54 -45 156 -45l10 -55h-623l9 55q72 0 90 6q14 7 14 31q0 33 -104 201l-48 78q-34 -44 -75 -95q-131 -158 -131 -182q0 -21 30.5 -30t96.5 -9l8 -55h-418l8 55q118 0 164 31q66 48 195 207l96 121l-152 254q-115 185 -166 233q-51 51 -137 51l-8 56h580l-9 -56
q-62 0 -86 -8q-14 -5 -14 -16q0 -19 125 -234l55 -92q5 6 13 15.5l32 38t45.5 55.5t47.5 61t45 61t32 49t13 31q0 39 -136 39l-8 56h416l-10 -56q-90 0 -140 -22q-27 -11 -64.5 -49.5t-105.5 -126.5q-17 -22 -53.5 -67t-65 -81t-36.5 -47l147 -242q98 -163 162 -217z" />
    <glyph glyph-name="y" unicode="y" horiz-adv-x="1181" 
d="M750 1008h428l-9 -56q-41 0 -74 -13t-46 -36q-34 -52 -127 -338l-187 -571q-27 -84 -49 -135q22 22 31 61l45 -10q-21 -90 -113 -131q-146 -304 -303 -320h-6l-12 -2q-87 0 -138 54q-50 50 -43 114q4 29 15.5 52t26 39t39.5 28t45 19t53.5 12t55 7t58.5 5q113 7 174 29
q72 174 76 184h-151l-273 686q-67 171 -121 219q-53 47 -133 47l-10 56h645l-10 -56q-30 0 -47.5 -2t-38.5 -9t-31 -24t-10 -45q0 -88 96 -335l142 -355l149 449q57 172 57 241q0 27 -12.5 43.5t-41.5 24.5t-59 10t-81 2zM340 -496q123 12 248 256q-43 -10 -146 -18
q-40 -3 -60 -5.5t-53.5 -7.5t-51 -13t-38 -21t-31 -32t-13.5 -44q-6 -44 28 -78q43 -43 117 -37z" />
    <glyph glyph-name="z" unicode="z" horiz-adv-x="937" 
d="M915 1008v-56l-593 -905l163 -2q105 0 169 6.5t100 28.5q69 43 69 207l41 12v-299h-839v61l577 900h-170q-142 0 -182 -10q-28 -8 -43 -21q-74 -68 -74 -207l-49 -16v301h831z" />
    <glyph glyph-name="braceleft" unicode="{" horiz-adv-x="870" 
d="M692 1540q-59 0 -117 -24t-81 -66q-52 -94 -52 -248q0 -66 4 -172q0 -9 1.5 -39l2 -40t1 -34t0 -35t-1.5 -27.5t-3.5 -28t-5.5 -21.5q-28 -85 -96 -115q68 -30 96 -115q3 -9 5 -20t3.5 -21t1.5 -26.5t0.5 -27t-0.5 -31.5t-1 -31.5t-1.5 -35t-1.5 -34.5q-4 -106 -4 -170
q0 -154 52 -248q23 -42 81 -66t117 -24v-47q-139 0 -260 39t-166 107q-35 52 -52 141t-17 272q0 169 -25 246q-10 32 -38 50t-66 20v43q37 2 65.5 20.5t38.5 50.5q25 77 25 244q0 171 13 255t56 159q40 70 158 108.5t268 38.5v-47z" />
    <glyph glyph-name="bar" unicode="|" horiz-adv-x="503" 
d="M215 -176v1945h78v-1945h-78z" />
    <glyph glyph-name="braceright" unicode="}" horiz-adv-x="829" 
d="M168 1534v45q151 0 268.5 -38t157.5 -107q43 -76 56.5 -160t13.5 -254t24 -244q10 -32 39 -50.5t66 -20.5v-43q-37 -2 -66 -21t-39 -51q-24 -74 -24 -244q0 -183 -17 -272.5t-53 -141.5q-45 -68 -166 -106.5t-260 -38.5v45q59 0 117.5 24t81.5 66q51 92 51 250
q0 11 -6 170q-8 181 8 227q27 82 96 113q-68 30 -96 115q-16 46 -8 227q6 159 6 170q0 158 -51 250q-23 42 -81.5 66t-117.5 24z" />
    <glyph glyph-name="asciitilde" unicode="~" horiz-adv-x="1144" 
d="M776 735q89 0 166 -65v-97q-36 39 -82 64t-84 25q-74 0 -186 -74q-128 -88 -199 -88q-93 0 -162 59v111q26 -39 72.5 -68t89.5 -29q47 0 158 76q130 86 227 86z" />
    <glyph glyph-name="uni00A0" unicode="&#xa0;" horiz-adv-x="485" 
 />
    <glyph glyph-name="exclamdown" unicode="&#xa1;" horiz-adv-x="600" 
d="M299 1217q-53 0 -90 38t-37 91q0 54 37.5 91.5t91.5 37.5q53 0 90 -38t37 -91q0 -55 -39 -91q-35 -38 -90 -38zM301 -88q-54 0 -89.5 38.5t-31.5 92.5q27 280 37 395q1 6 31.5 286.5t30.5 324.5h45q0 -33 13.5 -168t29.5 -278t18 -165q4 -50 17 -193t18 -202
q4 -54 -31 -92.5t-88 -38.5z" />
    <glyph glyph-name="cent" unicode="&#xa2;" horiz-adv-x="1191" 
d="M688 100q89 0 172 54t127 141l41 -21q-61 -118 -158 -170.5t-235 -52.5l-27 -309h-76l27 315q-186 29 -293.5 159t-107.5 349q0 252 132 390.5t357 144.5l27 309h78l-27 -309q77 -6 135 -27.5t94.5 -56t57.5 -66t39 -73.5l49 10l24 -29l-235 -229l-25 30l4 9q3 9 7.5 24
t8.5 33.5t6.5 43t0.5 48.5q-7 98 -52.5 159.5t-117.5 76.5l-82 -947q24 -6 49 -6zM565 143l78 912q-215 -27 -215 -475q0 -323 137 -437z" />
    <glyph glyph-name="sterling" unicode="&#xa3;" horiz-adv-x="1146" 
d="M739 139q176 0 291 127l25 -33q-69 -125 -161.5 -188t-195.5 -63q-93 0 -325 129q-59 -134 -189 -134q-66 0 -105.5 39t-39.5 105q0 59 42.5 101t100.5 42q37 0 82 -10q5 61 -3 136t-16.5 118t-27.5 131h-129v76h115q-19 112 -19 168q0 254 122 381t333 127
q84 0 150.5 -20.5t106.5 -50.5t68.5 -72t41 -78t18.5 -76l53 10l25 -31l-266 -254l-31 39q15 15 33 71t18 118q0 142 -60 222t-157 77q-32 -1 -58.5 -9.5t-57 -36t-50 -72.5t-29 -127t-2.5 -192q3 -49 17 -194h289v-76h-283q11 -148 6 -203q-13 -138 -53 -231
q192 -66 321 -66zM158 35q39 0 63.5 42.5t32.5 90.5q-55 25 -92 25q-36 0 -56 -23t-20 -59t20 -56q14 -20 52 -20z" />
    <glyph glyph-name="currency" unicode="&#xa4;" horiz-adv-x="1110" 
d="M864 774q0 -108 -65 -188l135 -135l-53 -52l-133 133q-78 -63 -189 -63q-110 0 -188 63l-135 -133l-52 52l133 135q-63 78 -63 188q0 111 63 189l-133 133l52 53l135 -135q80 65 188 65q109 0 189 -65l133 135l53 -53l-135 -133q65 -80 65 -189zM791 774
q0 95 -68.5 163.5t-163.5 68.5t-163 -68.5t-68 -163.5t68 -163t163 -68t163.5 68t68.5 163z" />
    <glyph glyph-name="yen" unicode="&#xa5;" horiz-adv-x="1378" 
d="M922 1358h456l-8 -51q-114 0 -153 -21q-37 -22 -113 -164q-7 -12 -10 -18q-30 -54 -115 -232h131v-77l-178 -21l-40 -80t-32.5 -66t-13.5 -28v-53h264v-76h-262q3 -314 33 -362q29 -48 90 -56q18 -2 98 -2l10 -51h-700l8 51q80 0 100 2q21 2 47.5 15.5t43.5 40.5
q35 57 30 362h-342v76l342 4q-10 14 -147 244h-195v77l148 2q-48 78 -158 261q-39 66 -82.5 108.5t-75.5 54.5q-27 9 -92 9l-10 51h598l-8 -51q-66 0 -97 -9q-16 -5 -16 -26q0 -26 23 -70q24 -45 321 -561l234 477q45 92 45 137q0 31 -21 41q-33 11 -145 11z" />
    <glyph glyph-name="brokenbar" unicode="&#xa6;" horiz-adv-x="598" 
d="M260 1044v725h78v-725h-78zM260 -176v727h78v-727h-78z" />
    <glyph glyph-name="section" unicode="&#xa7;" horiz-adv-x="1163" 
d="M1012 772q0 -122 -67 -202.5t-179 -120.5q54 -33 94.5 -67.5t77 -81t55.5 -106.5t19 -131q0 -92 -40 -163.5t-107.5 -113t-148.5 -62.5t-171 -21q-130 0 -209.5 36.5t-140.5 100.5l-27 -47l-33 17l88 370l37 -8q0 -182 86 -305t197 -123q99 0 170 71.5t71 202.5
q0 27 -9 52.5t-20.5 45t-37.5 43t-42.5 37.5t-55 38t-56.5 34.5t-63 36.5q-48 27 -74 42.5t-70 45t-69.5 52.5t-57.5 58t-49 68t-29 77t-12 91q0 106 83.5 193.5t211.5 120.5q-64 38 -110.5 73t-92 83.5t-69 109t-23.5 131.5q0 87 57 163.5t154.5 121.5t208.5 45
q159 0 255 -49.5t147 -157.5l55 10l24 -27l-266 -251l-26 32q22 21 41.5 70t19.5 98q0 19 -1.5 37.5t-15.5 57.5t-37.5 66.5t-74.5 50t-121 22.5q-85 0 -138.5 -56t-53.5 -176q0 -27 8 -52.5t19.5 -46t34 -42t41 -36.5t51.5 -35t55 -32.5t61 -33.5q144 -78 201 -122
q164 -125 173 -310q1 -12 1 -25zM680 498q104 76 104 231q0 27 -9 52.5t-20.5 45t-37.5 43t-42.5 37.5t-55 38t-56.5 34.5t-63 36.5q-133 -33 -133 -217q0 -47 19.5 -86t63.5 -75t81 -58.5t106 -59.5q8 -4 10 -6l23 -10q2 -1 5 -3t5 -3z" />
    <glyph glyph-name="dieresis" unicode="&#xa8;" horiz-adv-x="681" 
d="M559 1550q29 -29 29 -67t-29 -67.5t-67 -29.5q-39 0 -68 29q-29 26 -29 68q0 41 29 67q26 29 68 29q41 0 67 -29zM180 1579q40 0 69.5 -28.5t29.5 -67.5t-29 -68q-32 -29 -70 -29t-67 29.5t-29 67.5t29 67q26 29 67 29z" />
    <glyph glyph-name="copyright" unicode="&#xa9;" horiz-adv-x="1632" 
d="M821 1763q155 0 296 -60.5t243 -162.5t162.5 -243t60.5 -296t-60.5 -296t-162.5 -242.5t-243 -162t-296 -60.5t-296 60.5t-243 162t-162.5 242.5t-60.5 296t60.5 296t162.5 243t243 162.5t296 60.5zM821 317q139 0 265.5 54.5t218 146t146 218t54.5 265.5t-54.5 266
t-146 219.5t-218 147t-265.5 54.5t-265.5 -54.5t-218 -147t-146 -219.5t-54.5 -266t54.5 -265.5t146 -218t218 -146t265.5 -54.5zM868 563q176 0 301 146q19 23 45 63l25 -12l-1 -2q-63 -107 -168 -168q-94 -55 -204 -55q-103 0 -190.5 29t-154 85t-104.5 146t-38 206
q0 90 33 173.5t93 149t152 105t201 39.5q125 0 210 -47.5t140 -148.5l39 6l17 -18l-181 -173l-18 23q11 11 20 38.5t9 57.5q0 102 -72 168t-164 66q-93 0 -163 -66.5t-103 -163.5t-33 -204q0 -109 40.5 -211t112.5 -167t156 -65z" />
    <glyph glyph-name="ordfeminine" unicode="&#xaa;" horiz-adv-x="821" 
d="M764 1079l16 -30q-19 -19 -110 -46.5t-160 -23.5q-14 54 -14 115q-6 -13 -13 -23t-20 -24.5t-17 -20.5q-53 -53 -141 -53q-105 0 -155 52t-50 126q0 107 103 166t291 61v58q0 112 -15 141q-28 51 -96 51q-45 0 -84.5 -32.5t-44.5 -100.5q-2 -31 3 -60t11 -42l6 -13
l-16 -20l-154 145l15 19l31 -6q10 20 19 34t29.5 35.5t44 35t62.5 24t86 10.5q115 0 193 -62.5t78 -164.5v-136q0 -142 10 -194q6 -39 35 -39q19 0 57 18zM494 1169v179q-111 0 -164.5 -50.5t-53.5 -142.5q0 -54 18 -91.5t48 -37.5q39 0 77 36t56.5 68.5t18.5 38.5zM129 780
v78h594v-78h-594z" />
    <glyph glyph-name="guillemotleft" unicode="&#xab;" horiz-adv-x="1019" 
d="M532 1004l58 -41l-211 -349l211 -346l-58 -43l-397 344q-20 20 -20 45q0 28 20 48zM842 1004l57 -41l-211 -349l211 -346l-57 -43l-398 344q-20 20 -20 45q0 28 20 48z" />
    <glyph glyph-name="logicalnot" unicode="&#xac;" horiz-adv-x="1128" 
d="M219 575v72h725v-389h-72v317h-653z" />
    <glyph glyph-name="uni00AD" unicode="&#xad;" horiz-adv-x="1058" 
d="M199 618v78h657v-78h-657z" />
    <glyph glyph-name="registered" unicode="&#xae;" horiz-adv-x="1640" 
d="M825 1763q155 0 296 -60.5t243 -162.5t162.5 -243t60.5 -296t-60.5 -296t-162.5 -242.5t-243 -162t-296 -60.5t-296 60.5t-243 162t-162.5 242.5t-60.5 296t60.5 296t162.5 243t243 162.5t296 60.5zM825 317q145 0 274.5 58t225.5 160h-246q-19 0 -49.5 41.5t-95.5 148.5
q-62 104 -121 184q-25 35 -43 48.5t-47 13.5v-135q0 -143 8 -187q7 -48 21 -57q30 -23 96 -23l6 -34h-424l6 34q29 0 48.5 2.5t33 11.5t20.5 16.5t11.5 28t5.5 35.5t2 48q2 29 2 125v325q0 127 -8 189q-7 43 -19 51q-30 20 -96 20l-6 35h367q333 0 333 -229q0 -65 -33 -113
t-88 -72.5t-111.5 -35.5t-117.5 -11l23 -8h149q95 -106 222 -301q69 -111 182 -117q153 190 153 432q0 139 -54.5 266t-146 219.5t-218 147t-265.5 54.5t-265.5 -54.5t-218 -147t-146 -219.5t-54.5 -266t54.5 -265.5t146 -218t218 -146t265.5 -54.5zM723 1427v-411h72
q65 0 114 53t49 154q0 204 -161 204h-74z" />
    <glyph glyph-name="macron" unicode="&#xaf;" horiz-adv-x="507" 
d="M63 1444v78h394v-78h-394z" />
    <glyph glyph-name="degree" unicode="&#xb0;" horiz-adv-x="692" 
d="M342 1589q123 0 210 -87t87 -210t-87 -210t-210 -87t-210 87t-87 210t87 210t210 87zM342 1069q92 0 157.5 65.5t65.5 157.5t-65.5 158t-157.5 66t-157.5 -66t-65.5 -158t65.5 -157.5t157.5 -65.5z" />
    <glyph glyph-name="plusminus" unicode="&#xb1;" horiz-adv-x="1353" 
d="M723 1057v-346h330v-78h-330v-330h-78v330h-346v78h346v346h78zM299 0v80h754v-80h-754z" />
    <glyph glyph-name="twosuperior" unicode="&#xb2;" horiz-adv-x="634" 
d="M461 922q94 25 94 102h33v-223h-531v28q125 122 279 342q57 80 80 142.5t26 126.5q9 172 -116 172q-14 0 -29.5 -4.5t-36.5 -16.5t-37 -42t-22 -74q-5 -36 8 -76t24 -49l7 -4l-19 -21l-182 172l16 19l29 -7q59 129 244 129q54 0 100 -10t86 -32.5t63 -63.5t23 -98
q0 -30 -7.5 -59.5t-26.5 -61.5t-35.5 -55.5t-52 -61.5t-56.5 -59t-68.5 -67t-70.5 -69q-3 -2 -111 -104q197 0 289 25z" />
    <glyph glyph-name="threesuperior" unicode="&#xb3;" horiz-adv-x="671" 
d="M307 1237q137 -2 224 -55t87 -138q0 -82 -47 -143t-117 -89t-151 -28q-160 0 -246 109l25 20q24 -36 79 -68t126 -32q73 0 121 58t49 155q2 98 -60 144.5t-211 46.5v34q233 0 244 203q4 82 -25 119t-79 37q-40 0 -78.5 -33t-48.5 -98q-5 -37 6.5 -76t23.5 -49l2 -2
l-16 -23l-176 166l16 18l29 -6q63 131 244 131q256 0 256 -176q0 -55 -24.5 -96.5t-67.5 -66t-87.5 -38t-97.5 -20.5v-4z" />
    <glyph glyph-name="acute" unicode="&#xb4;" horiz-adv-x="681" 
d="M516 1798q28 -3 51 -33q18 -24 11 -57q-6 -28 -33 -41l-385 -203l-23 33l330 285q22 19 49 16z" />
    <glyph glyph-name="paragraph" unicode="&#xb6;" horiz-adv-x="1333" 
d="M82 1217q0 135 68 239.5t179.5 158.5t245.5 54h639v-76h-182v-1593h-78v1593h-276v-1593h-76v766q-104 3 -217.5 40t-169.5 93q-133 133 -133 318z" />
    <glyph glyph-name="periodcentered" unicode="&#xb7;" horiz-adv-x="335" 
d="M170 907q56 0 90.5 -36.5t34.5 -92.5q0 -54 -36.5 -90.5t-90.5 -36.5t-90.5 36.5t-36.5 90.5q0 56 36.5 92.5t92.5 36.5z" />
    <glyph glyph-name="cedilla" unicode="&#xb8;" horiz-adv-x="614" 
d="M229 -125q135 -4 207 -66t72 -141q0 -58 -23 -103t-60 -69.5t-76 -36.5t-77 -12q-59 0 -108.5 28.5t-79.5 78.5l-4 4l39 36l6 -8q52 -73 131 -73q51 0 82 39t31 102q0 75 -47 114.5t-150 49.5h-10l67 194h47z" />
    <glyph glyph-name="onesuperior" unicode="&#xb9;" horiz-adv-x="583" 
d="M203 924q8 47 8 184v358q0 45 -8 59.5t-33 14.5q-47 0 -127 -20l-8 28q15 3 35 11q270 80 270 133l35 -17v-567q0 -182 14 -215q3 -8 17 -31q10 -13 24 -16q38 -10 98 -10l7 -35h-484l6 35q56 0 70 2q13 2 37 14q20 12 27 27t12 45z" />
    <glyph glyph-name="ordmasculine" unicode="&#xba;" horiz-adv-x="833" 
d="M416 1638q91 0 160 -36t108.5 -98t58.5 -137t19 -161q0 -68 -11.5 -129t-38.5 -116t-66 -95t-98 -63t-132 -23q-90 0 -158.5 35.5t-108.5 96t-59.5 135t-19.5 159.5q0 86 19 161t58.5 137t108.5 98t160 36zM594 1206q0 37 -4 82t-16 104.5t-30.5 106.5t-51.5 80t-76 33
q-44 0 -78 -35.5t-54.5 -94.5t-31 -129.5t-10.5 -146.5q0 -97 20 -186.5t61 -150t93 -60.5t94 60t63 150t21 187z" />
    <glyph glyph-name="guillemotright" unicode="&#xbb;" horiz-adv-x="1026" 
d="M489 225l-57 43l211 346l-211 349l57 41l398 -342q20 -20 20 -48q0 -25 -20 -45zM180 225l-57 43l211 346l-211 349l57 41l398 -342q20 -17 20 -48q0 -28 -20 -45z" />
    <glyph glyph-name="onequarter" unicode="&#xbc;" horiz-adv-x="1755" 
d="M1157 1454h51l-637 -1540h-49zM272 670q9 50 9 182v358q0 48 -7.5 62t-33.5 14q-37 0 -125 -22l-11 30q15 3 35 11q273 81 273 131l32 -15v-569q0 -183 17 -213q6 -17 16 -31q6 -13 23 -16q29 -10 98 -10l6 -35h-483l6 35q56 0 70 2q21 3 39 12q16 13 22 25q8 10 14 49z
M1178 35q92 0 116 24q23 26 29 117h-346v33l428 631l76 -9v-626h143v-29h-141q3 -91 26 -117q24 -24 117 -24l6 -33h-458zM1010 205h313v55v33v377l-313 -461v-4z" />
    <glyph glyph-name="onehalf" unicode="&#xbd;" horiz-adv-x="1617" 
d="M1075 1454h49l-635 -1540h-51zM233 670q9 50 9 182v358q0 47 -8 61.5t-33 14.5q-39 0 -127 -22l-8 30q13 3 34 11q273 81 273 131l33 -15v-569q0 -180 14 -213q10 -21 18 -31q6 -13 23 -16q29 -10 98 -10l6 -35h-483l6 35q56 0 70 2q49 8 61 37q8 10 14 49zM1413 121
q45 12 69.5 39.5t24.5 64.5h33v-223h-530v29q121 119 278 342q58 81 81 142t26 124q9 172 -117 172q-14 0 -29.5 -4t-36.5 -16t-37 -41.5t-22 -73.5q-4 -36 9.5 -76.5t23.5 -48.5l6 -4l-18 -23l-183 174l17 17l28 -4q60 129 244 129q54 0 100 -10t86 -32.5t63 -64t23 -98.5
q0 -27 -7.5 -54t-17 -50t-30.5 -52.5t-37 -49.5t-49 -53.5t-52.5 -53t-61 -59t-62.5 -60.5q-19 -19 -57.5 -55.5t-53.5 -51.5q196 3 289 25z" />
    <glyph glyph-name="threequarters" unicode="&#xbe;" horiz-adv-x="1695" 
d="M1169 1454h50l-648 -1571h-51zM324 985q137 -2 224 -54.5t87 -139.5q0 -82 -47.5 -143t-118.5 -89.5t-152 -28.5q-155 0 -243 109l22 23q24 -36 80 -69t127 -34q73 0 120 59t48 156q3 97 -59 144t-211 47v32q234 0 245 203q5 158 -104 158q-41 0 -80 -33t-49 -98
q-5 -38 7 -77.5t24 -47.5l4 -4l-19 -23l-176 166l17 19l28 -5q63 129 244 129q258 0 258 -176q0 -184 -276 -219v-4zM1174 35q91 0 115 24.5t30 116.5h-346v31l428 633l76 -11v-626h143v-27h-143q6 -92 28 -117q24 -24 117 -24l6 -35h-459zM1006 203h313v57v33v377
l-313 -463v-4z" />
    <glyph glyph-name="questiondown" unicode="&#xbf;" horiz-adv-x="1005" 
d="M553 1217q-58 0 -90 38q-37 37 -37 91t36.5 91.5t90.5 37.5q55 0 91 -37t36 -92q0 -53 -37 -91t-90 -38zM500 -88q-172 0 -273.5 74.5t-101.5 201.5q0 36 10.5 71t34 70t44.5 61.5t60.5 62t61.5 54t67 54.5q9 7 51.5 37.5t72.5 55.5t66.5 62.5t56.5 79.5t20 85
q0 37 -37 83.5t-90 88.5l-6 6l30 33l4 -5q172 -149 172 -274q0 -64 -28 -123.5t-69.5 -104t-90.5 -94.5t-90.5 -94.5t-69.5 -105.5t-28 -127q0 -98 30 -153.5t107 -55.5q36 0 64 9t54.5 32t44 67.5t23.5 110.5q4 38 -2.5 82t-15.5 69l-8 25l24 31l242 -229l-25 -29l-57 10
q-23 -39 -39 -62.5t-47.5 -57.5t-64.5 -53t-84.5 -33.5t-112.5 -14.5z" />
    <glyph glyph-name="Agrave" unicode="&#xc0;" horiz-adv-x="1550" 
d="M614 1804l232 -145l-19 -35l-256 92q-17 6 -28 27q-9 20 2 41t30 24q19 6 39 -4zM1038 68q23 10 23 49q0 25 -37.5 134.5t-75.5 205.5l-76 207q-156 -25 -297.5 -104.5t-222.5 -201.5q-63 -179 -63 -219q0 -84 207 -84l10 -55h-506l10 55q110 0 163.5 39t88.5 148
q4 14 72.5 213t135 392.5t67.5 196.5q29 85 40.5 118.5t26.5 81.5t20 72t5 40q0 55 -23 69q-21 13 -117 13l-10 53h373q6 -18 246.5 -656.5t253.5 -666.5q32 -67 72.5 -90t119.5 -23l8 -55h-643l11 55q89 0 118 13zM393 479q183 179 463 228l-199 550z" />
    <glyph glyph-name="Aacute" unicode="&#xc1;" horiz-adv-x="1552" 
d="M512 1661l231 143q19 12 41 6q23 -8 29 -26q11 -22 2 -39q-6 -21 -29 -29l-256 -92zM1038 68q23 10 23 49q0 25 -37.5 134.5t-75.5 205.5l-76 207q-156 -25 -297.5 -104.5t-222.5 -201.5q-63 -179 -63 -219q0 -84 207 -84l10 -55h-506l10 55q110 0 163.5 39t88.5 148
q4 14 72.5 213t135 392.5t67.5 196.5q29 85 40.5 118.5t26.5 81.5t20 72t5 40q0 55 -23 69q-21 13 -117 13l-10 53h373q6 -18 246.5 -656.5t253.5 -666.5q32 -67 72.5 -90t119.5 -23l8 -55h-643l11 55q89 0 118 13zM657 1257l-264 -778q183 179 463 228z" />
    <glyph glyph-name="Acircumflex" unicode="&#xc2;" horiz-adv-x="1552" 
d="M760 1812l160 -172l-27 -30l-178 123l-180 -123l-27 30l162 172q16 19 45 19t45 -19zM1038 68q23 10 23 49q0 25 -37.5 134.5t-75.5 205.5l-76 207q-156 -25 -297.5 -104.5t-222.5 -201.5q-63 -179 -63 -219q0 -84 207 -84l10 -55h-506l10 55q110 0 163.5 39t88.5 148
q4 14 72.5 213t135 392.5t67.5 196.5q29 85 40.5 118.5t26.5 81.5t20 72t5 40q0 55 -23 69q-21 13 -117 13l-10 53h373q6 -18 246.5 -656.5t253.5 -666.5q32 -67 72.5 -90t119.5 -23l8 -55h-643l11 55q89 0 118 13zM393 479q183 179 463 228l-199 550z" />
    <glyph glyph-name="Atilde" unicode="&#xc3;" horiz-adv-x="1550" 
d="M868 1761v-10q0 -35 -14 -57q-21 -45 -82 -45q-23 0 -35 4q-20 4 -47 18q-10 4 -26 12q-4 1 -8 4t-5 3q-18 12 -28 12q-5 0 -11 -3.5t-10 -7.5t-10 -11t-8 -9l-9 -8l-30 12v11q0 30 18 57q23 32 62 37q27 0 57 -13l4 -2q35 -15 41 -18l2 -2q25 -12 33 -14q17 -7 24 -7
q11 4 19 9q4 3 7.5 7.5t7.5 10.5t7 10l7 8zM1038 68q23 10 23 49q0 25 -37.5 134.5t-75.5 205.5l-76 207q-156 -25 -297.5 -104.5t-222.5 -201.5q-63 -179 -63 -219q0 -84 207 -84l10 -55h-506l10 55q110 0 163.5 39t88.5 148q4 14 72.5 213t135 392.5t67.5 196.5
q29 85 40.5 118.5t26.5 81.5t20 72t5 40q0 55 -23 69q-21 13 -117 13l-10 53h373q6 -18 246.5 -656.5t253.5 -666.5q32 -67 72.5 -90t119.5 -23l8 -55h-643l11 55q89 0 118 13zM393 479q183 179 463 228l-199 550z" />
    <glyph glyph-name="Adieresis" unicode="&#xc4;" horiz-adv-x="1552" 
d="M553 1769q43 0 68 -28q28 -25 28 -68q0 -42 -28 -67q-29 -29 -68 -29q-38 0 -67 29t-29 67q0 40 28 68q25 28 68 28zM932 1741q29 -29 29 -68q0 -38 -29.5 -67t-67.5 -29q-37 0 -69 29q-29 29 -29 67q0 40 29 68t69 28q43 0 68 -28zM1038 68q23 10 23 49
q0 25 -37.5 134.5t-75.5 205.5l-76 207q-156 -25 -297.5 -104.5t-222.5 -201.5q-63 -179 -63 -219q0 -84 207 -84l10 -55h-506l10 55q110 0 163.5 39t88.5 148q4 14 72.5 213t135 392.5t67.5 196.5q29 85 40.5 118.5t26.5 81.5t20 72t5 40q0 55 -23 69q-21 13 -117 13
l-10 53h373q6 -18 246.5 -656.5t253.5 -666.5q32 -67 72.5 -90t119.5 -23l8 -55h-643l11 55q89 0 118 13zM393 479q183 179 463 228l-199 550z" />
    <glyph glyph-name="Aring" unicode="&#xc5;" horiz-adv-x="1552" 
d="M700 1849q63 0 106.5 -46.5t43.5 -112.5t-43.5 -113t-106.5 -47t-107 47t-44 113t44 112.5t107 46.5zM778 1690q0 54 -24 92.5t-56 38.5t-54.5 -38.5t-22.5 -92.5t22.5 -92.5t54.5 -38.5t56 38.5t24 92.5zM1038 68q23 10 23 49q0 25 -37.5 134.5t-75.5 205.5l-76 207
q-156 -25 -297.5 -104.5t-222.5 -201.5q-63 -179 -63 -219q0 -84 207 -84l10 -55h-506l10 55q110 0 163.5 39t88.5 148q4 14 72.5 213t135 392.5t67.5 196.5q29 85 40.5 118.5t26.5 81.5t20 72t5 40q0 55 -23 69q-21 13 -117 13l-10 53h373q6 -18 246.5 -656.5t253.5 -666.5
q32 -67 72.5 -90t119.5 -23l8 -55h-643l11 55q89 0 118 13zM393 479q183 179 463 228l-199 550z" />
    <glyph glyph-name="AE" unicode="&#xc6;" horiz-adv-x="2054" 
d="M1939 530l50 9v-541h-1176l10 55q109 0 156 37q47 41 47 395v183q-40 -2 -86.5 -9t-124 -28.5t-147.5 -53t-148 -89.5t-135 -132l-57 -133q-25 -67 -25 -108q0 -33 27 -47q34 -15 164 -15h6l10 -55h-508l8 55h8q98 0 146 25q42 23 91 113.5t134 289.5l242 561
q53 126 78.5 200t25.5 126q0 40 -20 51q-30 17 -131 17h-9l-8 53h1344v-502l-47 8l-2 133q0 316 -488 316h-84v-674q166 0 244.5 20.5t114.5 77.5q22 34 33.5 116t11.5 149l45 14v-799l-45 12q0 83 -7 139.5t-26.5 99t-46.5 66t-76 37.5t-105 18.5t-143 4.5v-270
q0 -256 15 -324q12 -65 59 -86q118 0 203 9.5t150.5 33t107 58.5t67.5 91t36.5 126t10.5 167zM438 481q74 67 165.5 116t177.5 72t142 33t103 13v286q0 211 -14 304q-12 77 -33 94q-42 34 -129 37q-240 -558 -412 -955z" />
    <glyph glyph-name="Ccedilla" unicode="&#xc7;" horiz-adv-x="1517" 
d="M834 -49q141 -6 215.5 -69.5t74.5 -145.5q0 -60 -23.5 -107t-61.5 -73t-78.5 -39t-79.5 -13q-62 0 -116 32t-85 85l41 37q61 -84 141 -84q53 0 85 39.5t32 105.5q0 78 -49 118.5t-166 53.5l33 89q-75 2 -147 13.5t-150 38t-145 65.5t-128.5 99.5t-105 137t-69 182
t-25.5 229.5q0 171 63 316.5t170 243t249.5 152t301.5 54.5q209 0 348 -79.5t230 -243.5l63 10l27 -29l-656 -624l-32 33l145 137q149 146 204.5 228.5t55.5 152.5q0 90 -48 174t-138 139t-199 55q-93 0 -180.5 -50t-156 -139.5t-109.5 -226.5t-41 -298q0 -130 38.5 -259.5
t103.5 -232.5t160.5 -167t200.5 -64q97 0 187 32t156.5 80.5t125.5 113t97 121.5t68 113.5t41 82t14 34.5l45 -16q-3 -9 -14 -35.5t-42.5 -85t-70.5 -117.5t-101 -126t-131 -118.5t-163 -87t-195 -38.5z" />
    <glyph glyph-name="Egrave" unicode="&#xc8;" horiz-adv-x="1325" 
d="M612 1804l232 -145l-19 -35l-256 92q-17 6 -28 27q-9 20 2 41t30 24q19 6 39 -4zM1229 532l49 9v-541h-1176l11 55q108 0 155 37q45 39 45 395v517q0 224 -12 303q-12 77 -33 94q-47 37 -155 37l-11 53h1098v-502l-49 6v135q0 316 -487 316q-13 0 -41 -1t-43 -1v-672
q166 0 244 20.5t114 77.5q22 34 33.5 116t11.5 149l45 12v-799l-45 14q0 84 -6.5 140.5t-26.5 98.5t-46.5 65t-76 37t-104.5 18t-143 4v-270q0 -261 14 -324q12 -65 59 -86q118 0 203 9.5t151 33t107 59t67.5 92t37 126.5t10.5 167z" />
    <glyph glyph-name="Eacute" unicode="&#xc9;" horiz-adv-x="1318" 
d="M586 1659l231 145q20 10 41 4q21 -3 31 -24q9 -19 0 -41q-7 -21 -29 -27l-256 -92zM1229 532l49 9v-541h-1176l11 55q108 0 155 37q45 39 45 395v517q0 224 -12 303q-12 77 -33 94q-47 37 -155 37l-11 53h1098v-502l-49 6v135q0 316 -487 316q-13 0 -41 -1t-43 -1v-672
q166 0 244 20.5t114 77.5q22 34 33.5 116t11.5 149l45 12v-799l-45 14q0 84 -6.5 140.5t-26.5 98.5t-46.5 65t-76 37t-104.5 18t-143 4v-270q0 -261 14 -324q12 -65 59 -86q118 0 203 9.5t151 33t107 59t67.5 92t37 126.5t10.5 167z" />
    <glyph glyph-name="Ecircumflex" unicode="&#xca;" horiz-adv-x="1320" 
d="M737 1810l160 -170l-27 -30l-180 123l-180 -123l-25 30l160 170q18 21 45 21q29 0 47 -21zM1229 532l49 9v-541h-1176l11 55q108 0 155 37q45 39 45 395v517q0 224 -12 303q-12 77 -33 94q-47 37 -155 37l-11 53h1098v-502l-49 6v135q0 316 -487 316q-13 0 -41 -1t-43 -1
v-672q166 0 244 20.5t114 77.5q22 34 33.5 116t11.5 149l45 12v-799l-45 14q0 84 -6.5 140.5t-26.5 98.5t-46.5 65t-76 37t-104.5 18t-143 4v-270q0 -261 14 -324q12 -65 59 -86q118 0 203 9.5t151 33t107 59t67.5 92t37 126.5t10.5 167z" />
    <glyph glyph-name="Edieresis" unicode="&#xcb;" horiz-adv-x="1314" 
d="M528 1769q40 0 69.5 -28.5t29.5 -67.5q0 -38 -29 -67q-32 -29 -70 -29t-67 29t-29 67q0 39 29 68q25 28 67 28zM907 1741q29 -29 29 -68q0 -38 -29 -67t-67 -29q-39 0 -68 29q-29 26 -29 67q0 42 29 68q25 28 68 28q42 0 67 -28zM1223 532l49 9v-541h-1176l10 55
q109 0 156 37q45 39 45 395v517q0 224 -12 303q-12 77 -33 94q-47 37 -156 37l-10 53h1098v-502l-49 6v135q0 316 -488 316q-13 0 -41 -1t-43 -1v-672q166 0 244.5 20.5t114.5 77.5q22 34 33.5 116t11.5 149l45 12v-799l-45 14q0 84 -6.5 140.5t-26.5 98.5t-46.5 65
t-76.5 37t-105 18t-143 4v-270q0 -256 15 -324q12 -65 59 -86q118 0 203 9.5t151 33t107 59t67.5 92t37 126.5t10.5 167z" />
    <glyph glyph-name="Igrave" unicode="&#xcc;" horiz-adv-x="911" 
d="M381 1804l231 -145l-18 -35l-256 92q-19 6 -29 27q-9 20 2 41t31 24q19 6 39 -4zM637 92q49 -37 156 -37l10 -55h-686l8 55q60 0 92 4q36 6 66.5 43.5t33.5 90.5q0 12 3.5 65.5t5.5 112.5t2 116v517q0 208 -13 301q-12 79 -32 96q-47 37 -158 37l-10 53h688l-10 -53
q-114 0 -156 -37q-24 -20 -34.5 -103t-10.5 -294v-517q0 -210 12 -303q11 -75 33 -92z" />
    <glyph glyph-name="Iacute" unicode="&#xcd;" horiz-adv-x="911" 
d="M305 1659l232 145q20 10 41 4q20 -3 30 -24q9 -19 0 -41q-7 -21 -28 -27l-256 -92zM637 92q49 -37 156 -37l10 -55h-686l8 55q60 0 92 4q36 6 66.5 43.5t33.5 90.5q0 12 3.5 65.5t5.5 112.5t2 116v517q0 208 -13 301q-12 79 -32 96q-47 37 -158 37l-10 53h688l-10 -53
q-114 0 -156 -37q-24 -20 -34.5 -103t-10.5 -294v-517q0 -210 12 -303q11 -75 33 -92z" />
    <glyph glyph-name="Icircumflex" unicode="&#xce;" horiz-adv-x="899" 
d="M498 1810l159 -170l-26 -30l-180 123l-181 -123l-24 30l160 170q18 21 45 21q29 0 47 -21zM629 92q50 -35 155 -35l11 -57h-686l8 57q76 0 92 2q36 6 66.5 44.5t33.5 89.5q0 12 3 66.5t5 112.5t2 115v519q0 216 -12 299q-11 78 -33 96q-43 37 -157 37l-11 53h689l-11 -53
q-113 0 -155 -37q-24 -20 -34.5 -102.5t-10.5 -292.5v-519q0 -204 12 -303q11 -76 33 -92z" />
    <glyph glyph-name="Idieresis" unicode="&#xcf;" horiz-adv-x="903" 
d="M291 1769q42 0 67 -28q29 -29 29 -68q0 -38 -29 -67t-67 -29q-39 0 -68 29q-28 25 -28 67q0 43 28 68q25 28 68 28zM668 1741q28 -25 28 -68q0 -42 -28 -67q-29 -29 -68 -29q-38 0 -67 29t-29 67q0 40 28 68q25 28 68 28t68 -28zM635 92q53 -37 156 -37l10 -55h-686l8 55
q60 0 92 4q36 6 66.5 44.5t33.5 89.5q0 12 3.5 65.5t5.5 112.5t2 116v517q0 212 -13 301q-12 79 -32 96q-43 37 -158 37l-10 53h688l-10 -53q-114 0 -156 -37q-24 -20 -34.5 -102.5t-10.5 -294.5v-517q0 -210 12 -303q11 -75 33 -92z" />
    <glyph glyph-name="Eth" unicode="&#xd0;" horiz-adv-x="1667" 
d="M631 1491q226 0 398.5 -34.5t287.5 -96.5t188 -155.5t104 -205t31 -251.5q0 -123 -27.5 -230t-92.5 -203.5t-163 -165t-248 -109t-339 -40.5h-670l11 55q108 0 155 37q47 41 47 395v222h-110v77h110v218q0 210 -14 303q-12 73 -33 94q-43 37 -155 37l-11 53h531zM743 47
q134 0 248.5 59t190.5 157t118.5 223.5t42.5 258.5q0 345 -163 523t-453 178q-112 0 -147 -4v-656h133v-77h-133v-246q0 -265 12 -332q9 -63 53 -84h98z" />
    <glyph glyph-name="Ntilde" unicode="&#xd1;" horiz-adv-x="1665" 
d="M993 1761v-10q0 -81 -65 -100q-20 -4 -29 -4q-17 0 -35 6q-2 1 -49 16q-2 2 -27 14q-2 1 -6 3.5t-6 3.5q-18 12 -28 12q-12 0 -37 -31l-9 -8l-32 12v11q7 54 43 81q16 10 39 13q25 0 55 -13l4 -2q25 -9 41 -20h4q19 -12 31 -14q18 -7 24 -7q13 3 19 9q9 7 22 28l6 8z
M1618 1434q-39 0 -64 -2t-52.5 -10t-44.5 -22.5t-31.5 -39.5t-22.5 -62q-8 -39 -8 -229v-827l192 -242h-340l-934 1174q0 -927 11 -981q17 -85 66 -111.5t145 -26.5l10 -55h-512l10 55q37 0 63 2.5t53 10.5t45 23t32.5 40.5t21.5 61.5q8 38 8 217v598q0 233 -12 290
q-9 46 -26 74.5t-46.5 41.5t-58.5 16.5t-80 3.5l-10 53h362l953 -1188v768q0 177 -11 231q-8 37 -22.5 62t-31.5 39.5t-44.5 22.5t-52.5 10t-64 2l-10 53h516z" />
    <glyph glyph-name="Ograve" unicode="&#xd2;" horiz-adv-x="1734" 
d="M788 1804l232 -143l-19 -37l-256 92q-17 6 -28 27q-9 20 2 41q10 20 31 26q19 6 38 -6zM866 1509q138 0 263 -31t230 -93.5t182 -151t120 -210.5t43 -265q0 -140 -43.5 -263t-121 -215t-182 -159.5t-230 -103t-261.5 -37.5q-172 3 -323.5 58.5t-265.5 153.5t-180 244.5
t-66 321.5q0 178 65.5 322t179.5 237t265 142.5t325 49.5zM866 25q116 3 209.5 46.5t155 113.5t103 164t59.5 193.5t18 205.5q0 81 -13 162.5t-39.5 163t-71 151t-102.5 123.5t-140 85t-179 31q-95 0 -176.5 -31t-139.5 -85t-103 -123.5t-71.5 -151t-40 -163t-13.5 -162.5
q0 -106 18 -205.5t59.5 -193.5t103 -164t155 -113.5t208.5 -46.5z" />
    <glyph glyph-name="Oacute" unicode="&#xd3;" horiz-adv-x="1724" 
d="M709 1661l231 143q19 12 41 6q22 -7 31 -26t0 -41q-7 -21 -29 -27l-256 -92zM862 1509q138 0 263 -31t230 -93.5t182 -151t120 -210.5t43 -265q0 -140 -43.5 -263t-121 -215t-182 -159.5t-230 -103t-261.5 -37.5q-172 3 -323.5 58.5t-265.5 153.5t-180 244.5t-66 321.5
q0 178 65.5 322t179.5 237t265 142.5t325 49.5zM862 25q116 3 209.5 46.5t155 113.5t103 164t59.5 193.5t18 205.5q0 81 -13 162.5t-39.5 163t-71 151t-102.5 123.5t-140 85t-179 31q-95 0 -176.5 -31t-140 -85t-103 -123.5t-71.5 -151t-40.5 -163t-13.5 -162.5
q0 -106 18 -205.5t60 -193.5t103.5 -164t155 -113.5t208.5 -46.5z" />
    <glyph glyph-name="Ocircumflex" unicode="&#xd4;" horiz-adv-x="1755" 
d="M928 1812l159 -172l-26 -30l-180 123l-181 -123l-24 30l160 172q19 19 45 19q28 0 47 -19zM881 1511q173 0 324.5 -50t266 -143t180.5 -237t66 -321q0 -175 -66.5 -322t-180.5 -245.5t-266 -154t-324 -58.5q-172 3 -324 58.5t-266 154t-180 245.5t-66 322q0 178 65.5 322
t180 237t265.5 142.5t325 49.5zM881 27q116 2 209.5 45.5t155 113.5t102.5 164t59 193t18 205q0 99 -18 196.5t-59.5 192.5t-102.5 166.5t-155 116t-209 44.5q-113 0 -207 -44.5t-155.5 -116t-103.5 -166.5t-60.5 -192.5t-18.5 -196.5q0 -106 18 -205t60 -193t103.5 -164
t155 -113.5t208.5 -45.5z" />
    <glyph glyph-name="Otilde" unicode="&#xd5;" horiz-adv-x="1753" 
d="M1038 1761v-10q0 -33 -12 -57q-27 -47 -84 -47q-13 0 -33 4q-33 10 -49 18q-4 2 -13 7t-13 7q-2 1 -6.5 3.5t-6.5 3.5q-20 10 -28 10q-14 0 -37 -29l-8 -8l-33 12v11q4 36 18 55q8 14 25 24q14 11 39 15q25 0 55 -13l4 -2q4 -2 41 -20h2q28 -14 33 -16q4 -1 9 -2t8.5 -2
t6.5 -1q10 0 19 9q13 10 22 28l7 8zM877 1509q173 0 324.5 -49.5t266 -142.5t180.5 -237t66 -322q0 -174 -67 -320.5t-181 -245t-266 -154t-323 -58.5q-172 3 -323.5 58.5t-265.5 153.5t-180.5 244.5t-66.5 321.5q0 178 65.5 322t180 237t265.5 142.5t325 49.5zM877 25
q116 3 209.5 46.5t155 113.5t102.5 164t59 193t18 206q0 99 -18 196t-59.5 192t-102.5 167t-155 116.5t-209 44.5q-95 0 -176.5 -31t-140 -85t-103 -123.5t-71.5 -151t-40.5 -163t-13.5 -162.5q0 -106 18 -205.5t60 -193.5t103.5 -164t155 -113.5t208.5 -46.5z" />
    <glyph glyph-name="Odieresis" unicode="&#xd6;" horiz-adv-x="1730" 
d="M1090 1741q28 -28 28 -68q0 -38 -29 -67t-67 -29q-39 0 -68 29q-28 25 -28 67q0 43 28 68q25 28 68 28t68 -28zM711 1769q40 0 69 -28t29 -68q0 -38 -29 -67q-32 -29 -69 -29q-38 0 -67.5 29t-29.5 67q0 39 29 68q25 28 68 28zM866 1511q173 0 324.5 -50t266.5 -143
t181 -237t66 -321q0 -141 -43 -264t-120.5 -215.5t-182 -160t-230 -103t-262.5 -37.5q-172 3 -324 58.5t-265.5 154t-179.5 245.5t-66 322q0 178 65.5 322t179.5 237t265 142.5t325 49.5zM866 25q116 3 209.5 46.5t155 114t103 164.5t59.5 193t18 205q0 81 -13 162.5
t-39.5 163t-71 151t-102.5 123.5t-140 85t-179 31q-95 0 -176.5 -31t-139.5 -85t-103 -123.5t-71.5 -151t-40 -163t-13.5 -162.5q0 -106 18 -205t59.5 -193t103 -164.5t155 -114t208.5 -46.5z" />
    <glyph glyph-name="multiply" unicode="&#xd7;" horiz-adv-x="960" 
d="M784 854l-245 -244l233 -233l-55 -55l-234 233l-233 -233l-55 55l233 233l-244 244l56 55l243 -243l246 243z" />
    <glyph glyph-name="Oslash" unicode="&#xd8;" horiz-adv-x="1732" 
d="M1122 1481q270 -67 425 -255t155 -466q0 -174 -66.5 -321t-181 -245.5t-266.5 -154.5t-324 -59q-98 3 -180 20l-68 -225h-79l71 243q-270 78 -424.5 270.5t-154.5 471.5q0 178 65.5 322t179.5 237t265 142.5t325 49.5q89 0 183 -16l65 223h82zM629 86l401 1354
q-74 24 -166 24q-113 0 -207 -44.5t-155.5 -116t-103.5 -166.5t-60.5 -192.5t-18.5 -196.5q0 -102 18 -198.5t54 -185.5t97 -162t141 -116zM864 27q116 2 209.5 45.5t155 113.5t103 164t59.5 193t18 205q0 95 -17.5 189.5t-52.5 185t-96 165.5t-141 119l-402 -1352
q68 -25 164 -28z" />
    <glyph glyph-name="Ugrave" unicode="&#xd9;" horiz-adv-x="1605" 
d="M819 1804l232 -143l-17 -37l-258 92q-17 6 -28 27q-9 20 2 41q10 20 30 26q20 7 39 -6zM1096 1491h512l-11 -55q-52 0 -81 -4t-56 -17.5t-42 -41.5t-25 -75q-21 -103 -21 -297v-407q0 -136 -33.5 -247t-101 -194t-175.5 -128t-249 -45q-295 0 -447.5 150.5t-152.5 440.5
v433q0 224 -12 303q-12 74 -35 92q-40 37 -156 37l-8 55h682l-10 -55q-41 0 -63 -1.5t-46.5 -8.5t-37.5 -20.5t-24 -37.5t-18 -61q-10 -78 -10 -303v-429q0 -269 89 -403.5t272 -134.5q92 0 167 22.5t125 58t87.5 85.5t58 99t33.5 106t16.5 98.5t3.5 83.5v411q0 209 -18 297
q-10 47 -25 75t-42.5 41.5t-56.5 17.5t-81 4z" />
    <glyph glyph-name="Uacute" unicode="&#xda;" horiz-adv-x="1599" 
d="M729 1661l234 143q16 12 38 6q22 -7 31 -26q9 -17 2 -41q-11 -21 -30 -27l-256 -92zM1092 1491h512l-11 -55q-52 0 -81 -4t-56 -17.5t-42 -41.5t-25 -75q-21 -103 -21 -297v-407q0 -136 -34 -247t-101.5 -193.5t-175 -128t-248.5 -45.5q-295 0 -447.5 150.5t-152.5 440.5
v433q0 224 -12 303q-15 76 -35 92q-40 37 -156 37l-8 55h682l-10 -55q-41 0 -63 -1.5t-46.5 -8.5t-37.5 -20.5t-24 -37.5t-18 -61q-10 -78 -10 -303v-429q0 -269 88.5 -403.5t271.5 -134.5q92 0 167 22.5t125 58t88 85.5t58.5 99t33.5 106t16.5 98.5t3.5 83.5v411
q0 209 -18 297q-10 47 -25 75t-42.5 41.5t-56.5 17.5t-81 4z" />
    <glyph glyph-name="Ucircumflex" unicode="&#xdb;" horiz-adv-x="1605" 
d="M883 1812l159 -172l-26 -30l-178 123l-181 -123l-26 30l162 172q19 19 45 19q29 0 45 -19zM1098 1491h512l-11 -55q-54 0 -81.5 -3t-55 -16.5t-42 -41t-25.5 -75.5q-21 -103 -21 -296v-410q0 -136 -34 -247t-101.5 -193.5t-175 -128t-248.5 -45.5q-295 0 -447.5 150.5
t-152.5 442.5v433q0 222 -12 301q-12 76 -35 94q-41 35 -156 35l-8 55h682l-10 -55q-41 0 -63 -1.5t-46.5 -8.5t-37.5 -20.5t-24 -37.5t-18 -61q-10 -78 -10 -301v-431q0 -269 89 -402.5t272 -133.5q92 0 167 22.5t125 57.5t87.5 85t58 99t33.5 105.5t16.5 98t3.5 83.5v414
q0 208 -18 296q-11 48 -25.5 75.5t-42 41t-55.5 16.5t-82 3z" />
    <glyph glyph-name="Udieresis" unicode="&#xdc;" horiz-adv-x="1607" 
d="M725 1769q43 0 68 -28q28 -25 28 -68q0 -42 -28 -67q-29 -29 -68 -29q-38 0 -67 29t-29 67q0 40 28 68q25 28 68 28zM1104 1741q29 -29 29 -68q0 -38 -29.5 -67t-67.5 -29q-37 0 -69 29q-27 27 -27 67q0 41 27.5 68.5t68.5 27.5q43 0 68 -28zM1094 1491h512l-11 -55
q-51 0 -80 -3.5t-56 -17.5t-42 -41.5t-26 -73.5q-19 -97 -19 -299v-407q0 -136 -34.5 -247t-102 -193.5t-175.5 -128t-249 -45.5q-294 0 -447 151t-153 442v431q0 224 -12 303q-12 78 -35 92q-40 37 -154 37l-10 55h682l-8 -55q-110 0 -139 -25q-19 -14 -30.5 -34.5
t-14.5 -32t-7 -37.5q-10 -78 -10 -303v-429q0 -536 361 -536q92 0 167 22.5t125 57.5t87.5 85t58 99t33.5 105.5t16.5 98t3.5 83.5v411q0 207 -18 299q-20 88 -62 112t-143 24z" />
    <glyph glyph-name="Yacute" unicode="&#xdd;" horiz-adv-x="1517" 
d="M692 1659l234 145q16 9 39 6q20 -6 30 -26q9 -17 2 -41q-11 -21 -30 -27l-256 -92zM1018 1491h502l-11 -55q-129 0 -168 -23q-29 -17 -56 -59t-79 -142q-17 -28 -137 -274.5t-135 -278.5q0 -477 37 -540q34 -52 100 -60q40 -4 109 -4l10 -55h-768l8 55q65 0 111 4
q65 6 98 60q20 33 28.5 154.5t6.5 226.5l-2 106q-15 23 -181 300t-204 341q-43 72 -90.5 119.5t-81.5 58.5q-32 11 -105 11l-8 55h653l-8 -55q-78 0 -104 -11q-19 -6 -19 -26q0 -32 25 -80q14 -26 166.5 -290.5t187.5 -323.5l256 524q47 96 47 149q0 37 -20 45
q-11 5 -61.5 9t-98.5 4z" />
    <glyph glyph-name="Thorn" unicode="&#xde;" horiz-adv-x="1345" 
d="M741 1200q93 0 172 -13t152.5 -44.5t125 -80.5t82 -126t30.5 -176q0 -187 -130.5 -311.5t-318.5 -124.5q-166 0 -285 49q3 -159 17 -215q16 -66 47 -82q40 -21 135 -21l8 -55h-674l11 55q58 0 90 4q24 3 47.5 19t32.5 37q9 20 18 75q3 22 6.5 142.5t3.5 159.5v509
q0 60 -4.5 173.5t-7.5 132.5q-12 80 -33 96q-38 35 -153 35l-11 53h674l-8 -53q-125 0 -158 -39q-32 -38 -39 -199h170zM788 371q110 0 175 105t65 284q0 205 -82.5 301t-259.5 96h-119v-733q29 -21 91.5 -37t129.5 -16z" />
    <glyph glyph-name="germandbls" unicode="&#xdf;" horiz-adv-x="1406" 
d="M1004 657q52 -20 85.5 -34t81 -38t77.5 -49t59.5 -58.5t44 -75.5t14.5 -91q1 -178 -101.5 -254.5t-344.5 -76.5q-170 0 -318 96v229h45q0 -127 86.5 -203.5t200.5 -76.5q67 0 118.5 60t55.5 179q2 62 -17 116t-56.5 96t-75 71.5t-87.5 58.5q-44 26 -65 40t-53.5 40.5
t-47 50.5t-26.5 61t-12 81q0 54 21.5 94t52 67t61.5 56.5t52.5 78t21.5 115.5q0 230 -148 230q-107 0 -157 -104t-50 -316v-1100h-473l12 47q73 0 91 2q26 3 48 18.5t31 38.5q10 23 19 80q10 78 10 291v570q0 88 16 163t53 142t93.5 114t142.5 74t195 27q178 0 277.5 -68
t99.5 -209q0 -68 -43.5 -119t-105 -82t-123 -58.5t-105 -64t-43.5 -83.5q0 -21 5.5 -40.5t19.5 -36.5t26 -30.5t38.5 -28.5t41.5 -24t50.5 -23.5t50.5 -20.5z" />
    <glyph glyph-name="agrave" unicode="&#xe0;" horiz-adv-x="1120" 
d="M399 1315l226 -141l-17 -35l-252 88q-21 11 -26 28q-10 19 0 39q10 19 30 25q19 6 39 -4zM1049 141l24 -45q-32 -30 -171 -72.5t-245 -35.5q-14 53 -20 315l53 266h-16l-41 -207q-13 -58 -24 -98t-28.5 -88.5t-38 -80.5t-48.5 -61t-64.5 -43t-81.5 -14q-83 0 -146 24
t-98.5 64t-53 86.5t-17.5 98.5q0 160 159.5 263t442.5 149v24q0 62 -1 93t-6 69t-16 57q-43 78 -147 78q-70 0 -130 -49.5t-67 -153.5q-4 -48 4 -92t18 -64l9 -20l-25 -33l-235 224l22 26l48 -8q16 31 29.5 52t45 55t67.5 55t96 37t132 16q175 0 293.5 -96t118.5 -252
l2 -209q0 -231 14 -297q12 -59 56 -59q33 0 86 26zM635 573v60q-168 -42 -250 -138.5t-82 -236.5q0 -83 27 -141t73 -58q45 0 85 48t66 116.5t45 144t27.5 130t8.5 75.5z" />
    <glyph glyph-name="aacute" unicode="&#xe1;" horiz-adv-x="1118" 
d="M317 1174l226 141q20 10 39 4q20 -6 30 -25q10 -20 0 -39q-5 -17 -26 -28l-250 -88zM1047 141l24 -45q-32 -30 -171 -72.5t-245 -35.5q-14 53 -20 315l53 266h-16l-41 -207q-13 -58 -24 -98t-28.5 -88.5t-38 -80.5t-48.5 -61t-64.5 -43t-81.5 -14q-83 0 -146 24t-98.5 64
t-53 86.5t-17.5 98.5q0 160 159.5 263t442.5 149v24q0 62 -1 93t-6 69t-16 57q-43 78 -147 78q-70 0 -130 -49.5t-67 -153.5q-4 -48 4 -92t18 -64l9 -20l-25 -33l-235 224l22 26l47 -8q16 31 29.5 52t45.5 55t68 55t96 37t132 16q175 0 293.5 -96t118.5 -252l2 -209
q0 -231 14 -297q12 -59 56 -59q33 0 86 26zM633 573v60q-168 -42 -250 -138.5t-82 -236.5q0 -83 27 -141t73 -58q45 0 85 48t66 116.5t45 144t27.5 130t8.5 75.5z" />
    <glyph glyph-name="acircumflex" unicode="&#xe2;" horiz-adv-x="1118" 
d="M520 1321l160 -172l-27 -31l-178 125l-180 -125l-27 31l162 172q17 20 45 20q25 0 45 -20zM1042 143l25 -45q-32 -30 -171 -72.5t-245 -35.5q-14 53 -20 315l53 266h-16l-41 -206q-13 -58 -24 -98t-28.5 -88.5t-38 -80.5t-48.5 -61t-64.5 -43t-81.5 -14q-83 0 -146 23.5
t-98.5 63.5t-53 86.5t-17.5 98.5q0 160 159.5 263t442.5 149v24q0 62 -1 93t-6 69t-16 57q-43 78 -147 78q-70 0 -130 -49.5t-67 -153.5q-4 -48 4 -92t18 -64l9 -20l-25 -33l-235 224l22 26l47 -8q16 31 29.5 52t45.5 55t68 55t96 37t132 16q175 0 293.5 -96t118.5 -252
l2 -209q0 -231 14 -297q12 -59 55 -59q33 0 86 26zM629 575v60q-168 -42 -250 -138.5t-82 -236.5q0 -83 27 -141t73 -58q45 0 85 48t66 116.5t45 144t27.5 130t8.5 75.5z" />
    <glyph glyph-name="atilde" unicode="&#xe3;" horiz-adv-x="1120" 
d="M633 1270v-10q3 -27 -12 -56q-17 -33 -54 -43q-10 -4 -28 -4q-23 0 -35 4q-18 4 -49 19q-4 2 -13.5 6t-13.5 6q-2 1 -6 4t-6 4q-20 10 -25 10q-8 0 -14 -6q-13 -6 -27 -24l-8 -9l-33 15l2 10q0 56 41 80q24 12 39 12q27 0 55 -12h5q36 -18 43 -21l2 -2q6 -4 17 -8.5
t13 -5.5q17 -7 25 -4q21 0 41 35l6 10zM1049 141l24 -45q-32 -30 -171 -72.5t-245 -35.5q-14 53 -20 315l53 266h-16l-41 -207q-13 -58 -24 -98t-28.5 -88.5t-38 -80.5t-48.5 -61t-64.5 -43t-81.5 -14q-83 0 -146 24t-98.5 64t-53 86.5t-17.5 98.5q0 160 159.5 263
t442.5 149v24q0 62 -1 93t-6 69t-16 57q-43 78 -147 78q-70 0 -130 -49.5t-67 -153.5q-4 -48 4 -92t18 -64l9 -20l-25 -33l-235 224l22 26l48 -8q16 31 29.5 52t45 55t67.5 55t96 37t132 16q175 0 293.5 -96t118.5 -252l2 -209q0 -231 14 -297q12 -59 56 -59q33 0 86 26z
M635 573v60q-168 -42 -250 -138.5t-82 -236.5q0 -83 27 -141t73 -58q45 0 85 48t66 116.5t45 144t27.5 130t8.5 75.5z" />
    <glyph glyph-name="adieresis" unicode="&#xe4;" horiz-adv-x="1122" 
d="M338 1294q40 0 68 -28q28 -31 28 -68q0 -39 -28 -70q-28 -28 -68 -28t-68 28q-28 31 -28 70q0 38 29 67t67 29zM700 1266q29 -32 29 -68q0 -38 -29 -70q-28 -28 -67 -28q-40 0 -68 29t-28 69q0 43 28 68q28 28 68 28q39 0 67 -28zM1051 141l24 -45q-32 -30 -171 -72.5
t-245 -35.5q-14 53 -20 315l53 266h-16l-41 -207q-13 -58 -24 -98t-28.5 -88.5t-38 -80.5t-48.5 -61t-64.5 -43t-81.5 -14q-83 0 -146 24t-98.5 64t-53 86.5t-17.5 98.5q0 160 159.5 263t442.5 149v24q0 62 -1 93t-6 69t-16 57q-43 78 -147 78q-70 0 -130 -49.5t-67 -153.5
q-4 -48 4 -92t18 -64l9 -20l-25 -33l-235 224l22 26l48 -8q16 31 29.5 52t45 55t67.5 55t96 37t132 16q175 0 293.5 -96t118.5 -252l2 -209q0 -231 14 -297q12 -59 56 -59q33 0 86 26zM637 573v60q-168 -42 -250 -138.5t-82 -236.5q0 -83 27.5 -141t73.5 -58q55 0 102.5 71
t73.5 166t40.5 171.5t14.5 105.5z" />
    <glyph glyph-name="aring" unicode="&#xe5;" horiz-adv-x="1120" 
d="M469 1358q63 0 107.5 -47t44.5 -113t-44.5 -113t-107.5 -47t-107.5 47t-44.5 113t44.5 113t107.5 47zM389 1198q0 -53 23 -90t55 -37t56 37.5t24 89.5t-23.5 88.5t-56.5 36.5q-32 0 -55 -36.5t-23 -88.5zM1047 141l24 -45q-32 -30 -171 -72.5t-245 -35.5q-14 53 -20 315
l53 266h-16l-41 -207q-13 -58 -24 -98t-28.5 -88.5t-38 -80.5t-48.5 -61t-64.5 -43t-81.5 -14q-83 0 -146 24t-98.5 64t-53 86.5t-17.5 98.5q0 160 159.5 263t442.5 149v24q0 62 -1 93t-6 69t-16 57q-43 78 -147 78q-70 0 -130 -49.5t-67 -153.5q-4 -48 4 -92t18 -64l9 -20
l-25 -33l-235 224l22 26l47 -8q16 31 29.5 52t45.5 55t68 55t96 37t132 16q175 0 293.5 -96t118.5 -252l2 -209q0 -231 14 -297q12 -59 56 -59q33 0 86 26zM633 573v60q-168 -42 -250 -138.5t-82 -236.5q0 -83 27 -141t73 -58q45 0 85 48t66 116.5t45 144t27.5 130t8.5 75.5
z" />
    <glyph glyph-name="ae" unicode="&#xe6;" horiz-adv-x="1599" 
d="M1536 522h-643v-20q0 -62 6 -117q78 53 179 84t194 31q47 0 89 -10t79.5 -30.5t59.5 -58t22 -88.5q0 -57 -28 -116.5t-79 -106.5q-119 -113 -282 -113q-183 0 -318 99t-174 272l29 156l14 67h-16l-41 -209q-13 -58 -24 -98t-28.5 -88.5t-38 -80.5t-48.5 -61t-64.5 -43
t-81.5 -14q-83 0 -146 24t-98.5 64.5t-53 87.5t-17.5 99q0 108 76.5 191t208 136t317.5 83v24q0 62 -1 93t-6 69t-16 57q-44 80 -147 80q-31 0 -62 -11t-61 -33.5t-50 -64t-24 -96.5q-4 -48 4 -92t18 -64l9 -20l-25 -33l-235 226l22 24l47 -8q16 31 29.5 52t45.5 55t68 55
t96 37t132 16q197 0 315 -115q121 115 304 115q142 0 244 -66t151 -175.5t49 -249.5v-15zM1092 985q-55 0 -96.5 -48t-62 -121t-30 -136t-10.5 -115h369q-1 49 -4 95t-14 108.5t-28 107.5t-49 77t-75 32zM397 59q50 0 93.5 57.5t70.5 143.5t43 157.5t23 127.5v6l2 14v6v62
q-168 -42 -250 -138.5t-82 -236.5q0 -83 27 -141t73 -58zM1475 313q0 41 -19 70.5t-51 44t-65.5 21t-71.5 6.5q-91 0 -190.5 -33t-172.5 -88q22 -143 85 -226t159 -83q74 0 149 38.5t126 106t51 143.5z" />
    <glyph glyph-name="ccedilla" unicode="&#xe7;" horiz-adv-x="993" 
d="M557 27q89 0 172 54.5t127 141.5l41 -22q-108 -209 -344 -221l-6 -23q98 -6 151.5 -52.5t53.5 -105.5q0 -44 -17.5 -78t-45.5 -52.5t-57.5 -28t-58.5 -9.5q-44 0 -83 22t-62 60l-2 6l35 31l4 -6q40 -55 96 -55q35 0 56.5 28t21.5 72q0 57 -38.5 87t-111.5 30h-10l27 71
q-218 6 -348.5 139.5t-130.5 375.5q0 259 138.5 396.5t375.5 137.5q109 0 187.5 -29.5t121 -73.5t74.5 -110l45 8l24 -26l-235 -224l-27 31l3 8q4 8 9 22.5t9.5 32t7 41.5t0.5 48q-9 114 -67 171.5t-152 57.5q-124 0 -183 -118.5t-59 -358.5q0 -233 72.5 -356t185.5 -123z
" />
    <glyph glyph-name="egrave" unicode="&#xe8;" horiz-adv-x="974" 
d="M426 1311l225 -142l-16 -34l-250 90q-19 6 -29 26q-10 19 0 39q9 18 31 25t39 -4zM938 522h-643v-20q0 -62 6 -117q78 53 179 84t194 31q47 0 89 -10t79.5 -30.5t59.5 -58t22 -88.5q0 -94 -61 -173t-150.5 -121t-180.5 -42q-226 0 -365.5 142.5t-139.5 369.5
q0 108 30.5 204t87.5 171.5t147 119.5t202 44q142 0 244 -66t151 -175.5t49 -249.5v-15zM492 985q-44 0 -80 -33.5t-56.5 -82t-35 -109t-19.5 -108.5t-6 -87h367q-1 49 -4 95t-14 108.5t-28 107.5t-49 77t-75 32zM877 313q0 41 -19 70.5t-51.5 44t-66.5 21t-72 6.5
q-91 0 -189.5 -33t-171.5 -88q22 -144 84 -226.5t158 -82.5q74 0 149.5 38t127 106t51.5 144z" />
    <glyph glyph-name="eacute" unicode="&#xe9;" horiz-adv-x="980" 
d="M354 1169l226 142q17 11 38 4q22 -7 31 -25q10 -20 0 -39q-10 -21 -26 -26l-252 -90zM940 522h-643v-20q0 -62 6 -117q78 53 179 84t194 31q47 0 89 -10t79.5 -30.5t59.5 -58t22 -88.5q0 -94 -60.5 -173t-150 -121t-180.5 -42q-226 0 -366 142.5t-140 369.5
q0 108 30.5 204t87.5 171.5t147 119.5t202 44q142 0 244 -66t151 -175.5t49 -249.5v-15zM494 985q-44 0 -80 -33.5t-56.5 -82t-35 -109t-19.5 -108.5t-6 -87h367q-1 49 -4 95t-14 108.5t-28 107.5t-49 77t-75 32zM879 313q0 41 -19 70.5t-51.5 44t-66.5 21t-72 6.5
q-91 0 -189.5 -33t-171.5 -88q22 -144 84 -226.5t158 -82.5q74 0 149.5 38t127 106t51.5 144z" />
    <glyph glyph-name="ecircumflex" unicode="&#xea;" horiz-adv-x="976" 
d="M551 1309l160 -172l-27 -31l-178 125l-180 -125l-27 31l162 172q20 20 45 20t45 -20zM942 514h-643v-20q0 -62 6 -117q78 53 179 84t194 31q47 0 89 -10t79.5 -30.5t59.5 -58t22 -88.5q0 -94 -60.5 -173t-150 -121t-180.5 -42q-226 0 -366 142.5t-140 369.5
q0 108 30.5 204t87.5 171.5t147 119.5t202 44q142 0 244 -66t151 -175.5t49 -250.5v-14zM496 977q-44 0 -80 -33.5t-56.5 -82t-35 -109t-19.5 -108.5t-6 -87h367q-1 49 -4 95t-14 108.5t-28 107.5t-49 77t-75 32zM881 305q0 41 -19 70t-51.5 44t-66.5 21t-72 6
q-91 0 -189.5 -32.5t-171.5 -87.5q22 -144 84 -227t158 -83q74 0 149.5 38.5t127 106.5t51.5 144z" />
    <glyph glyph-name="edieresis" unicode="&#xeb;" horiz-adv-x="1005" 
d="M356 1286q39 0 68 -29q29 -32 29 -69q0 -38 -29.5 -67t-67.5 -29q-39 0 -67 28q-29 26 -29 68q0 40 28 69t68 29zM719 1257q29 -32 29 -69q0 -38 -29.5 -67t-67.5 -29t-69 28q-29 29 -29 68q0 37 29 69q32 29 69 29q36 0 68 -29zM940 516h-643v-20q0 -62 6 -117
q78 53 179 84t194 31q47 0 89 -10t79.5 -30.5t59.5 -58t22 -88.5q0 -94 -60.5 -173t-150 -121t-180.5 -42q-226 0 -366 142.5t-140 369.5q0 108 30.5 204t87.5 171.5t147 119.5t202 44q142 0 244 -66t151 -175.5t49 -250.5v-14zM494 979q-44 0 -80 -33.5t-56.5 -82t-35 -109
t-19.5 -108.5t-6 -87h367q-1 49 -4 95t-14 108.5t-28 107.5t-49 77t-75 32zM879 307q0 41 -19 70.5t-51.5 44t-66.5 21t-72 6.5q-91 0 -189.5 -33t-171.5 -88q22 -144 84 -227t158 -83q74 0 149.5 38.5t127 106.5t51.5 144z" />
    <glyph glyph-name="igrave" unicode="&#xec;" horiz-adv-x="782" 
d="M283 1317l225 -141l-19 -35l-249 88q-20 10 -29 28q-7 21 2 39q9 19 31 25q19 6 39 -4zM100 55q59 0 100.5 11.5t51.5 31.5q24 55 24 262q0 387 -14 461q-12 74 -33 90q-46 43 -149 43l-6 52q191 24 461 24v-674q0 -218 24 -258q9 -20 49.5 -31.5t98.5 -11.5l8 -55h-623z
" />
    <glyph glyph-name="iacute" unicode="&#xed;" horiz-adv-x="786" 
d="M229 1176l226 139q16 13 39 6q22 -7 28 -25q11 -22 2 -39q-8 -18 -28 -28l-250 -88zM100 55q59 0 100.5 11.5t51.5 31.5q24 55 24 262q0 382 -12 461q-12 72 -35 90q-43 43 -149 43l-6 52q191 24 461 24v-674q0 -210 24 -258q10 -20 50 -31.5t98 -11.5l8 -55h-623z" />
    <glyph glyph-name="icircumflex" unicode="&#xee;" horiz-adv-x="745" 
d="M401 1321l160 -172l-26 -31l-181 125l-180 -125l-24 31l159 172q20 20 45 20q27 0 47 -20zM82 55q130 0 151 41q25 58 25 264q0 380 -12 459q-13 81 -53 107t-132 26l-6 52q191 24 461 24v-672q0 -210 25 -260q21 -41 147 -41l8 -55h-622z" />
    <glyph glyph-name="idieresis" unicode="&#xef;" horiz-adv-x="784" 
d="M190 1296q40 0 68 -28q29 -26 29 -68q0 -41 -29 -67q-29 -29 -68 -29q-38 0 -67 29t-29 67t29 67t67 29zM485 1296q38 0 67.5 -29t29.5 -67t-29.5 -67t-67.5 -29t-67 29t-29 67t29 67t67 29zM100 55q59 0 100.5 11.5t51.5 31.5q24 55 24 262q0 387 -14 461q-12 74 -33 90
q-46 43 -149 43l-6 52q191 24 461 24v-674q0 -214 24 -260q9 -19 50 -30t98 -11l8 -55h-623z" />
    <glyph glyph-name="eth" unicode="&#xf0;" horiz-adv-x="1173" 
d="M1128 1438l-194 -99q160 -260 160 -741q0 -125 -31 -234t-92.5 -196t-164.5 -137.5t-237 -50.5q-80 0 -153.5 16.5t-144 56.5t-122 99t-83 150.5t-31.5 205.5q0 160 67.5 278t180.5 176t256 58q166 0 288 -82q-4 163 -57 317l-258 -133l-35 70l262 133q-98 209 -268 209
q-70 0 -143.5 -46.5t-116.5 -135.5l-47 12q57 106 141.5 164.5t181.5 58.5q253 0 402 -184l205 102zM567 25q62 0 110 39t75 96t44.5 131t23 134t5.5 114q0 215 -84 325q-80 109 -194 109q-59 0 -104 -34.5t-69.5 -84.5t-40 -117t-20 -120.5t-4.5 -106.5q0 -45 4 -92
t14 -104.5t29 -106.5t46.5 -91t70 -66.5t94.5 -24.5z" />
    <glyph glyph-name="ntilde" unicode="&#xf1;" horiz-adv-x="1439" 
d="M885 1272v-10q0 -29 -13 -58q-22 -32 -55 -41q-8 -4 -29 -4q-22 0 -34 4q-16 4 -47 19q-15 6 -27 12q-2 1 -6 4t-6 4q-20 10 -27 10q-5 0 -14 -6q-6 -3 -27 -24l-6 -8l-33 14v10q4 35 19 55q9 15 27 26t36 11q27 0 55 -12l4 -2q21 -9 41 -19l5 -2q10 -6 30 -14
q17 -7 25 -4q10 0 18 8q12 9 23 27l6 10zM915 98q23 53 23 277v287q0 157 -27.5 238t-89.5 81q-59 0 -113.5 -90.5t-90 -225t-58 -254t-31.5 -210.5q-4 -58 25 -105q11 -19 50.5 -30t96.5 -11l11 -55h-625l8 55q59 0 100.5 11.5t51.5 31.5q24 46 24 262v166
q0 179 -12.5 277.5t-48.5 124.5q-32 24 -135 24l-6 54q172 22 460 22v-461l-47 -303h17l34 213q25 126 53 220t65.5 172t86 118.5t107.5 40.5q175 0 263.5 -83.5t88.5 -262.5v-326q0 -206 27 -258q10 -20 50.5 -31.5t96.5 -11.5l10 -55h-622l10 55q128 0 147 43z" />
    <glyph glyph-name="ograve" unicode="&#xf2;" horiz-adv-x="1177" 
d="M516 1315l225 -141l-18 -35l-250 90q-19 6 -29 26q-7 21 2 39q11 22 31 25q19 6 39 -4zM584 1028q157 0 285 -62.5t204 -183.5t76 -280q0 -238 -156.5 -381.5t-396.5 -143.5q-116 0 -219 37t-179 103.5t-120.5 166t-44.5 218.5q0 159 72 279.5t196.5 183.5t282.5 63z
M315 504q0 -222 84 -351.5t195 -129.5q69 0 123.5 46t85.5 118.5t47 153t16 159.5q0 93 -16 177t-48.5 153t-88 110t-127.5 41q-117 0 -194 -137.5t-77 -339.5z" />
    <glyph glyph-name="oacute" unicode="&#xf3;" horiz-adv-x="1167" 
d="M434 1174l225 141q17 10 39 4q18 -3 29 -25q9 -18 2 -39q-10 -20 -29 -26l-249 -90zM575 1028q157 0 285 -62.5t204.5 -183.5t76.5 -280q0 -238 -156.5 -381.5t-396.5 -143.5q-116 0 -219 37t-179 103.5t-120.5 166t-44.5 218.5q0 159 72 279.5t196.5 183.5t281.5 63z
M307 504q0 -222 84 -351.5t195 -129.5q69 0 123.5 46t85.5 118.5t47 153t16 159.5q0 93 -16 177t-48.5 153t-88 110t-127.5 41q-117 0 -194 -137.5t-77 -339.5z" />
    <glyph glyph-name="ocircumflex" unicode="&#xf4;" horiz-adv-x="1183" 
d="M637 1321l160 -170l-27 -31l-178 123l-180 -123l-27 31l162 170q14 20 45 20q28 0 45 -20zM584 1028q157 0 285 -62.5t204 -183.5t76 -280q0 -237 -157 -381t-396 -144q-157 0 -284.5 63t-203 184t-75.5 280q0 238 155.5 381t395.5 143zM315 504q0 -222 84 -351.5
t195 -129.5q69 0 123.5 46t85.5 119t47 153.5t16 160.5q0 93 -16 176t-48.5 152t-88 110t-127.5 41q-78 0 -140 -63t-96.5 -172t-34.5 -242z" />
    <glyph glyph-name="otilde" unicode="&#xf5;" horiz-adv-x="1171" 
d="M748 1272v-12q0 -30 -13 -56q-27 -47 -84 -47q-13 0 -33 4q-28 8 -49 19q-16 6 -26 14q-2 1 -6.5 3t-6.5 3q-20 10 -26 10q-9 0 -15 -4q-12 -9 -24 -24l-8 -8l-33 12v10q4 36 18 55q9 16 25 25q15 12 39 12q16 1 55 -10l4 -2q8 -4 23.5 -12t17.5 -9l4 -2q5 -2 15.5 -7
t15.5 -7q10 -4 25 -4q13 0 18 8q14 10 23 29l6 8zM580 1028q156 0 284 -63t204.5 -184t76.5 -279t-73.5 -278.5t-199 -183.5t-282.5 -63q-155 0 -282.5 63t-204 184t-76.5 278q0 238 156.5 382t396.5 144zM309 504q0 -222 84.5 -351.5t196.5 -129.5q69 0 123.5 46
t85.5 118.5t47 153t16 159.5q0 93 -16 177t-48.5 153t-88 110t-127.5 41q-78 0 -141 -63.5t-97.5 -172.5t-34.5 -241z" />
    <glyph glyph-name="odieresis" unicode="&#xf6;" horiz-adv-x="1167" 
d="M436 1296q40 0 68 -28q28 -25 28 -68q0 -42 -28 -67q-26 -29 -68 -29q-41 0 -67 29q-29 29 -29 67t29 67t67 29zM731 1296q38 0 67 -29t29 -67q0 -39 -28 -67q-26 -29 -68 -29q-41 0 -67 29q-29 29 -29 67t29 67t67 29zM578 1028q156 0 284 -63t204.5 -184t76.5 -279
t-73.5 -278.5t-199 -183.5t-282.5 -63q-116 0 -219 37t-179 104.5t-120.5 167t-44.5 218.5q0 157 73 277.5t198 183.5t282 63zM307 504q0 -222 84.5 -351.5t196.5 -129.5q69 0 123.5 46t85.5 119t47 153.5t16 160.5q0 93 -16 176t-48.5 152t-88 110t-127.5 41
q-119 0 -196 -137t-77 -340z" />
    <glyph glyph-name="divide" unicode="&#xf7;" horiz-adv-x="1142" 
d="M575 788q-55 0 -92 36t-37 91q0 54 37.5 91.5t91.5 37.5t90.5 -37.5t36.5 -91.5t-36.5 -90.5t-90.5 -36.5zM246 616v78h657v-78h-657zM575 524q53 0 90 -38t37 -91t-37 -91t-90 -38q-54 0 -91.5 37.5t-37.5 91.5t37.5 91.5t91.5 37.5z" />
    <glyph glyph-name="oslash" unicode="&#xf8;" horiz-adv-x="1173" 
d="M774 999q169 -50 270 -185t101 -312q0 -159 -72.5 -279t-197.5 -183t-283 -63q-60 0 -119 9l-59 -205h-80l65 223q-169 49 -269.5 185t-100.5 313q0 237 156 381.5t395 144.5q55 0 120 -10l62 205h80zM311 504q0 -134 31.5 -236t85.5 -164l254 852q-45 25 -100 25
q-117 0 -194 -137.5t-77 -339.5zM748 905l-254 -854q43 -28 96 -28q69 0 123.5 46t85.5 118.5t47 153t16 159.5q0 125 -28.5 232.5t-85.5 172.5z" />
    <glyph glyph-name="ugrave" unicode="&#xf9;" horiz-adv-x="1335" 
d="M588 1315l225 -141l-16 -35l-250 90q-22 6 -29 26q-8 16 0 39q9 18 31 25q19 6 39 -4zM1286 145l25 -45q-30 -24 -175.5 -72.5t-248.5 -39.5q-10 61 -21 487l56 350h-15l-43 -250q-23 -133 -47 -230t-59 -186t-83 -135.5t-108 -46.5q-169 0 -258.5 89.5t-89.5 257.5v200
q0 208 -10.5 294t-48.5 110q-37 24 -137 24l-7 52q194 24 463 24v-684q0 -45 1 -76t4.5 -72.5t11.5 -69.5t20.5 -54t32.5 -39t47 -13q58 0 115 126.5t96.5 311.5t56.5 378q0 5 -0.5 13t-12 29t-34.5 37q-54 37 -147 37l-8 52q187 24 460 24v-555q0 -229 15 -299
q12 -59 55 -59q32 0 94 30z" />
    <glyph glyph-name="uacute" unicode="&#xfa;" horiz-adv-x="1333" 
d="M514 1174l225 141q19 10 39 4q20 -3 31 -25q8 -23 0 -39q-7 -20 -29 -26l-250 -90zM1286 145l25 -45q-30 -24 -175.5 -72.5t-248.5 -39.5q-10 61 -21 487l56 350h-15l-43 -250q-23 -133 -47 -230t-59 -186t-83 -135.5t-108 -46.5q-169 0 -258.5 89.5t-89.5 257.5v200
q0 208 -10.5 294t-48.5 110q-37 24 -137 24l-7 52q194 24 463 24v-684q0 -45 1 -76t4.5 -72.5t11.5 -69.5t20.5 -54t32.5 -39t47 -13q58 0 115 126.5t96.5 311.5t56.5 378q0 5 -0.5 13t-12 29t-34.5 37q-54 37 -147 37l-8 52q187 24 460 24v-555q0 -229 15 -299
q12 -59 55 -59q32 0 94 30z" />
    <glyph glyph-name="ucircumflex" unicode="&#xfb;" horiz-adv-x="1333" 
d="M711 1319l157 -172l-24 -29l-180 123l-181 -123l-26 31l161 170q17 20 46 20q27 0 47 -20zM1286 145l25 -45q-30 -24 -175.5 -72.5t-248.5 -39.5q-10 61 -21 487l56 350h-15l-43 -250q-23 -133 -47 -230t-59 -186t-83 -135.5t-108 -46.5q-169 0 -258.5 89.5t-89.5 257.5
v200q0 208 -10.5 294t-48.5 110q-37 24 -137 24l-7 52q194 24 463 24v-684q0 -45 1 -76t4.5 -72.5t11.5 -69.5t20.5 -54t32.5 -39t47 -13q58 0 115 126.5t96.5 311.5t56.5 378q0 5 -0.5 13t-12 29t-34.5 37q-54 37 -147 37l-8 52q187 24 460 24v-555q0 -229 15 -299
q12 -59 55 -59q32 0 94 30z" />
    <glyph glyph-name="udieresis" unicode="&#xfc;" horiz-adv-x="1333" 
d="M516 1296q40 0 68 -28q28 -31 28 -70q0 -38 -29 -67t-67 -29q-39 0 -67 28q-29 26 -29 68q0 40 28 69t68 29zM879 1268q28 -31 28 -70q0 -38 -29 -67t-67 -29q-40 0 -68 28q-28 25 -28 68q0 40 28 69t68 29t68 -28zM1286 145l25 -45q-30 -24 -175.5 -72.5t-248.5 -39.5
q-10 61 -21 487l56 350h-15l-43 -250q-23 -133 -47 -230t-59 -186t-83 -135.5t-108 -46.5q-169 0 -258.5 89.5t-89.5 257.5v200q0 208 -10.5 294t-48.5 110q-37 24 -137 24l-7 52q194 24 463 24v-684q0 -45 1 -76t4.5 -72.5t11.5 -69.5t20.5 -54t32.5 -39t47 -13
q58 0 115 126.5t96.5 311.5t56.5 378q0 5 -0.5 13t-12 29t-34.5 37q-54 37 -147 37l-8 52q187 24 460 24v-555q0 -229 15 -299q12 -59 55 -59q32 0 94 30z" />
    <glyph glyph-name="yacute" unicode="&#xfd;" horiz-adv-x="1175" 
d="M535 1176l227 141q17 10 39 4q19 -6 28 -25q9 -18 2 -39q-9 -19 -28 -28l-250 -88zM748 1010h428l-9 -56q-41 0 -74 -13t-46 -36q-34 -52 -127 -338l-187 -571q-27 -84 -49 -135q22 22 31 61l45 -10q-21 -90 -113 -131q-146 -304 -303 -320h-6l-12 -2q-87 0 -138 54
q-50 50 -43 114q4 29 15.5 52t26 39t39.5 28t45 19t53.5 12t55 7t58.5 5q113 7 174 29q72 174 76 184h-151l-273 686q-67 171 -121 219q-53 47 -133 47l-10 56h645l-10 -56q-30 0 -47.5 -2t-38.5 -9t-31 -24t-10 -45q0 -88 96 -335l141 -355l150 449q57 172 57 241
q0 27 -12.5 43.5t-41.5 24.5t-59 10t-81 2zM338 -494q123 12 248 256q-43 -10 -146 -18q-40 -3 -60 -5.5t-53.5 -7.5t-51 -13t-38 -21t-31 -32t-13.5 -44q-6 -44 28 -78q43 -43 117 -37z" />
    <glyph glyph-name="thorn" unicode="&#xfe;" horiz-adv-x="1230" 
d="M762 1116q191 0 305.5 -134.5t114.5 -393.5q0 -100 -30.5 -190.5t-90 -165.5t-159 -119.5t-226.5 -44.5q-129 0 -199 67v-258q0 -104 4 -178q2 -43 17 -83t47 -48q36 -8 106 -8l11 -56h-621l8 56q124 0 146 45q24 55 24 272v1426q0 126 -2 157q-1 22 -6.5 43.5t-19.5 43
t-35 24.5q-18 4 -105 4l-10 51q72 11 209 19t227 8v-815q52 143 129 210.5t156 67.5zM653 111q49 0 89 21t66 53.5t45.5 78t30 88.5t16.5 92.5t7.5 81t1.5 62.5q0 209 -56.5 321.5t-131.5 112.5q-65 0 -115.5 -49t-77 -123.5t-39 -145.5t-12.5 -131v-364q48 -98 176 -98z
" />
    <glyph glyph-name="ydieresis" unicode="&#xff;" horiz-adv-x="1175" 
d="M532 1296q43 0 68 -28q29 -29 29 -68q0 -38 -29.5 -67t-67.5 -29t-67 29q-29 26 -29 67q0 42 29 68q25 28 67 28zM895 1268q29 -29 29 -68q0 -38 -29.5 -67t-67.5 -29t-67 29q-29 26 -29 67q0 42 29 68q25 28 67 28q43 0 68 -28zM748 1008h428l-9 -56q-41 0 -74 -13
t-46 -36q-34 -52 -127 -338l-187 -571q-27 -84 -49 -135q22 22 31 61l45 -10q-21 -90 -113 -131q-146 -304 -303 -320h-6l-12 -2q-87 0 -138 54q-50 50 -43 114q4 29 15.5 52t26 39t39.5 28t45 19t53.5 12t55 7t58.5 5q113 7 174 29q72 174 76 184h-151l-273 686
q-67 171 -121 219q-53 47 -133 47l-10 56h645l-10 -56q-30 0 -47.5 -2t-38.5 -9t-31 -24t-10 -45q0 -88 96 -335l141 -355l150 449q57 172 57 241q0 27 -12.5 43.5t-41.5 24.5t-59 10t-81 2zM338 -496q123 12 248 256q-43 -10 -146 -18q-40 -3 -60 -5.5t-53.5 -7.5t-51 -13
t-38 -21t-31 -32t-13.5 -44q-6 -44 28 -78q43 -43 117 -37z" />
    <glyph glyph-name="Amacron" unicode="&#x100;" horiz-adv-x="1552" 
d="M518 1718h330v-78h-330v78zM1038 68q23 10 23 49q0 25 -37.5 134.5t-75.5 205.5l-76 207q-156 -25 -297.5 -104.5t-222.5 -201.5q-63 -179 -63 -219q0 -84 207 -84l10 -55h-506l10 55q110 0 163.5 39t88.5 148q4 14 72.5 213t135 392.5t67.5 196.5q29 85 40.5 118.5
t26.5 81.5t20 72t5 40q0 55 -23 69q-21 13 -117 13l-10 53h373q6 -18 246.5 -656.5t253.5 -666.5q32 -67 72.5 -90t119.5 -23l8 -55h-643l11 55q89 0 118 13zM393 479q183 179 463 228l-199 550z" />
    <glyph glyph-name="amacron" unicode="&#x101;" horiz-adv-x="1126" 
d="M313 1229h328v-78h-328v78zM1053 141l24 -45q-32 -30 -170.5 -72.5t-244.5 -35.5q-15 58 -21 315l53 266h-16l-41 -207q-13 -58 -24 -98t-28.5 -88.5t-38 -80.5t-48.5 -61t-64.5 -43t-81.5 -14q-83 0 -146 24t-98.5 64t-53 86.5t-17.5 98.5q0 160 159.5 263t442.5 149v24
q0 62 -1 93t-6 69t-16 57q-43 78 -147 78q-70 0 -130 -49.5t-67 -153.5q-4 -48 4 -92t18 -64l9 -20l-24 -33l-236 224l23 26l47 -8q16 31 29.5 52t45 55t67.5 55t96 37t132 16q175 0 293.5 -96t118.5 -252l2 -209q0 -231 14 -297q12 -59 56 -59q33 0 86 26zM639 573v60
q-168 -42 -250 -138.5t-82 -236.5q0 -83 27.5 -141t73.5 -58q55 0 102.5 71t73.5 166t40.5 171.5t14.5 105.5z" />
    <glyph glyph-name="Abreve" unicode="&#x102;" horiz-adv-x="1550" 
d="M795 1763h84v-14q0 -56 -48.5 -95.5t-117.5 -39.5t-117.5 39.5t-48.5 95.5v14h84l-2 -16q0 -42 21.5 -67t62.5 -25t62.5 25t21.5 67zM1038 68q23 10 23 49q0 25 -37.5 134.5t-75.5 205.5l-76 207q-156 -25 -297.5 -104.5t-222.5 -201.5q-63 -179 -63 -219q0 -84 207 -84
l10 -55h-506l10 55q110 0 163.5 39t88.5 148q4 14 72.5 213t135 392.5t67.5 196.5q29 85 40.5 118.5t26.5 81.5t20 72t5 40q0 55 -23 69q-21 13 -117 13l-10 53h373q6 -18 246.5 -656.5t253.5 -666.5q32 -67 72.5 -90t119.5 -23l8 -55h-643l11 55q89 0 118 13zM393 479
q183 179 463 228l-199 550z" />
    <glyph glyph-name="abreve" unicode="&#x103;" horiz-adv-x="1120" 
d="M549 1272h86v-15q0 -55 -49 -95t-117 -40q-69 0 -117.5 39.5t-48.5 95.5v15h84q-2 -13 -2 -25q0 -38 23.5 -61t60.5 -23t60.5 23t23.5 61zM1044 141l25 -45q-32 -30 -171 -72.5t-245 -35.5q-14 53 -20 315l53 266h-16l-41 -207q-13 -58 -24 -98t-28.5 -88.5t-38 -80.5
t-48.5 -61t-64.5 -43t-81.5 -14q-83 0 -146 24t-98.5 64t-53 86.5t-17.5 98.5q0 160 159.5 263t442.5 149v24q0 62 -1 93t-6 69t-16 57q-43 78 -147 78q-70 0 -130 -49.5t-67 -153.5q-4 -48 4 -92t18 -64l9 -20l-25 -33l-235 224l22 26l47 -8q16 31 29.5 52t45.5 55t68 55
t96 37t132 16q175 0 293.5 -96t118.5 -252l2 -209q0 -231 14 -297q12 -59 55 -59q33 0 86 26zM631 573v60q-168 -42 -250 -138.5t-82 -236.5q0 -83 27 -141t73 -58q45 0 85 48t66 116.5t45 144t27.5 130t8.5 75.5z" />
    <glyph glyph-name="Aogonek" unicode="&#x104;" horiz-adv-x="1552" 
d="M1462 -92l88 -64q-32 -59 -74 -98.5t-82.5 -55.5t-66 -21t-47.5 -5q-64 0 -110 40.5t-46 113.5q0 4 0.5 10.5t6.5 27t15.5 41t30.5 49t50 54.5h-318l11 55q89 0 118 13q23 10 23 49q0 25 -37.5 134.5t-75.5 205.5l-76 207q-156 -25 -297.5 -104.5t-222.5 -201.5
q-63 -179 -63 -219q0 -84 207 -84l10 -55h-506l10 55q110 0 163.5 39t88.5 148q4 14 72.5 213t135 392.5t67.5 196.5q29 85 40.5 118.5t26.5 81.5t20 72t5 40q0 55 -23 69q-21 13 -117 13l-10 53h373q6 -18 246.5 -656.5t253.5 -666.5q32 -67 72.5 -90t119.5 -23l8 -55h-247
q-34 -24 -60.5 -50t-40 -47t-21.5 -38.5t-10 -26.5l-2 -10q0 -40 24.5 -54t51.5 -14q61 0 112.5 35.5t102.5 112.5zM393 479q183 179 463 228l-199 550z" />
    <glyph glyph-name="aogonek" unicode="&#x105;" horiz-adv-x="1118" 
d="M854 -109l78 -57q-29 -53 -67 -90t-75 -52.5t-62 -21.5t-44 -6q-56 0 -98.5 36.5t-42.5 102.5q0 102 112 185q-14 53 -20 315l53 266h-16l-41 -207q-13 -58 -24 -98t-28.5 -88.5t-38 -80.5t-48.5 -61t-64.5 -43t-81.5 -14q-83 0 -146 24t-98.5 64t-53 86.5t-17.5 98.5
q0 160 159.5 263t442.5 149v24q0 62 -1 93t-6 69t-16 57q-43 78 -147 78q-70 0 -130 -49.5t-67 -153.5q-4 -48 4 -92t18 -64l9 -20l-25 -33l-235 224l22 26l47 -8q16 31 29.5 52t45.5 55t68 55t96 37t132 16q175 0 293.5 -96t118.5 -252l2 -209q0 -231 14 -297
q12 -59 56 -59q33 0 86 26l24 -45q-24 -22 -128 -58.5t-202 -47.5l-12 -6q-40 -22 -69.5 -48.5t-42.5 -45.5t-20.5 -39t-8 -26t-0.5 -11q0 -36 21.5 -49t45.5 -13q107 0 199 139zM633 573v60q-168 -42 -250 -138.5t-82 -236.5q0 -83 27 -141t73 -58q45 0 85 48t66 116.5
t45 144t27.5 130t8.5 75.5z" />
    <glyph glyph-name="Cacute" unicode="&#x106;" horiz-adv-x="1521" 
d="M604 1661l232 143q19 12 41 6q20 -7 30 -26q9 -19 0 -41q-7 -21 -28 -27l-256 -92zM1520 604l45 -16q-3 -9 -14.5 -36t-43.5 -86.5t-72 -119.5t-103.5 -128t-134 -119t-167 -85t-199.5 -34q-75 0 -149 10t-154.5 34.5t-151 62.5t-135 98.5t-110.5 138t-73 185.5t-27 236
q0 171 63 316.5t170 243t249.5 152t301.5 54.5q209 0 348 -79.5t230 -243.5l63 10l27 -29l-656 -624l-32 33l145 137q149 146 204.5 228.5t55.5 152.5q0 90 -48 174t-138 139t-199 55q-93 0 -180.5 -50t-156 -139.5t-109.5 -226.5t-41 -298q0 -130 38.5 -259.5t103.5 -232.5
t160.5 -167t200.5 -64q97 0 187 32t156.5 80.5t125.5 113t97 121.5t68 113.5t41 82t14 34.5z" />
    <glyph glyph-name="cacute" unicode="&#x107;" horiz-adv-x="997" 
d="M362 1174l226 139q19 13 39 6q20 -6 30 -25q10 -20 0 -39q-5 -17 -26 -28l-250 -88zM559 27q89 0 172 54.5t127 141.5l41 -20q-56 -110 -150.5 -168t-220.5 -58q-226 0 -362.5 134t-136.5 381q0 259 138.5 396.5t375.5 137.5q109 0 187.5 -29.5t121 -73.5t74.5 -110l45 8
l24 -26l-235 -224l-27 31l3 8q4 8 9 22.5t9.5 32t7 41.5t0.5 48q-9 114 -67 171.5t-152 57.5q-124 0 -183 -118.5t-59 -358.5q0 -233 72.5 -356t185.5 -123z" />
    <glyph glyph-name="Ccircumflex" unicode="&#x108;" horiz-adv-x="1456" 
d="M799 1812l159 -172l-26 -30l-180 123l-181 -123l-24 30l160 172q19 19 45 19q28 0 47 -19zM1513 604l46 -16q-3 -9 -14.5 -36t-43.5 -86.5t-72 -119.5t-103.5 -128t-134 -119t-167 -85t-199.5 -34q-75 0 -149 10t-154.5 34.5t-151 62.5t-135 98.5t-110.5 138t-73 185.5
t-27 236q0 171 63 316.5t170 243t249.5 152t301.5 54.5q209 0 347.5 -79.5t229.5 -243.5l64 10l27 -29l-656 -624l-33 33l146 137q149 146 204.5 228.5t55.5 152.5q0 90 -48 174t-138 139t-199 55q-93 0 -180.5 -50t-156 -139.5t-109.5 -226.5t-41 -298q0 -130 38.5 -259.5
t103.5 -232.5t160.5 -167t200.5 -64q97 0 187 32t156 80.5t125.5 113t97 121.5t67.5 113.5t41 82t14 34.5z" />
    <glyph glyph-name="ccircumflex" unicode="&#x109;" horiz-adv-x="991" 
d="M571 1321l160 -172l-26 -31l-179 125l-180 -125l-27 31l160 172q20 20 47 20q25 0 45 -20zM555 27q89 0 172 54.5t127 141.5l41 -20q-56 -108 -150.5 -165.5t-220.5 -57.5q-226 0 -362.5 133.5t-136.5 380.5q0 258 139 396t375 138q110 0 188 -29.5t120.5 -74
t74.5 -111.5l45 8l24 -26l-235 -224l-27 33q4 8 9.5 21.5t14 53.5t5.5 77q-9 112 -67 169.5t-152 57.5q-123 0 -182.5 -118.5t-59.5 -356.5q0 -234 72.5 -357.5t185.5 -123.5z" />
    <glyph glyph-name="Cdotaccent" unicode="&#x10a;" horiz-adv-x="1517" 
d="M752 1819q44 0 77 -32.5t33 -76.5q0 -40 -33 -78q-38 -33 -77 -33q-44 0 -76.5 33.5t-32.5 77.5q0 47 33 76q29 33 76 33zM1516 604l45 -16q-3 -9 -14.5 -36t-43.5 -86.5t-72 -119.5t-103.5 -128t-134 -119t-167 -85t-199.5 -34q-75 0 -149 10t-154.5 34.5t-151 62.5
t-135 98.5t-110.5 138t-73 185.5t-27 236q0 171 63 316.5t170 243t249.5 152t301.5 54.5q209 0 348 -79.5t230 -243.5l63 10l27 -29l-656 -624l-32 33l145 137q149 146 204.5 228.5t55.5 152.5q0 90 -48 174t-138 139t-199 55q-93 0 -180.5 -50t-156 -139.5t-109.5 -226.5
t-41 -298q0 -130 38.5 -259.5t103.5 -232.5t160.5 -167t200.5 -64q97 0 187 32t156.5 80.5t125.5 113t97 121.5t68 113.5t41 82t14 34.5z" />
    <glyph glyph-name="cdotaccent" unicode="&#x10b;" horiz-adv-x="993" 
d="M586 1311q32 -37 32 -78t-32 -78q-38 -33 -78 -33q-44 0 -76.5 33.5t-32.5 77.5t32.5 76t76.5 32t78 -30zM555 27q89 0 172 54t127 140l41 -20q-56 -108 -150.5 -166t-220.5 -58q-226 0 -362.5 134t-136.5 381q0 258 139 396t375 138q110 0 188 -29.5t120.5 -74
t74.5 -111.5l45 10l24 -26l-235 -226l-27 33q4 8 9.5 21.5t14 53.5t5.5 77q-9 113 -67.5 171t-151.5 58q-242 0 -242 -477q0 -234 72.5 -356.5t185.5 -122.5z" />
    <glyph glyph-name="Ccaron" unicode="&#x10c;" horiz-adv-x="1529" 
d="M723 1630l-160 172l27 29l178 -123l180 123l27 -31l-162 -170q-17 -20 -45 -20q-25 0 -45 20zM1532 604l45 -16q-3 -9 -14.5 -36t-43.5 -86.5t-72 -119.5t-103 -128t-133.5 -119t-167 -85t-199.5 -34q-75 0 -149 10t-154.5 34.5t-151 62.5t-135.5 98.5t-111 138
t-73 185.5t-27 236q0 171 63 316.5t170 243t249.5 152t301.5 54.5q209 0 348 -79.5t230 -243.5l63 10l27 -29l-655 -624l-33 33l145 137q149 146 204.5 228.5t55.5 152.5q0 90 -48 174t-138 139t-199 55q-93 0 -180.5 -50t-156 -139.5t-109.5 -226.5t-41 -298
q0 -130 38.5 -259.5t104 -232.5t161 -167t200.5 -64q97 0 187 32t156 80.5t125.5 113t97 121.5t67.5 113.5t41 82t14 34.5z" />
    <glyph glyph-name="ccaron" unicode="&#x10d;" horiz-adv-x="983" 
d="M457 1139l-158 172l25 30l180 -124l180 124l27 -30l-162 -172q-21 -21 -45 -21q-26 0 -47 21zM551 27q89 0 172 54.5t127 141.5l41 -20q-56 -108 -150.5 -165.5t-220.5 -57.5q-226 0 -363 133.5t-137 380.5q0 258 139.5 396t375.5 138q110 0 188 -29.5t120.5 -74
t74.5 -111.5l45 8l24 -26l-235 -224l-27 33q4 8 9.5 21.5t14 53.5t5.5 77q-9 112 -67 169.5t-152 57.5q-123 0 -182.5 -118.5t-59.5 -356.5q0 -234 72.5 -357.5t185.5 -123.5z" />
    <glyph glyph-name="Dcaron" unicode="&#x10e;" horiz-adv-x="1638" 
d="M791 1630l-160 172l26 31l179 -125l180 125l26 -31l-159 -172q-20 -20 -47 -20q-25 0 -45 20zM596 1491q227 0 400 -34.5t288.5 -96.5t188.5 -155.5t104 -205t31 -251.5q0 -102 -20 -193t-61.5 -176t-111.5 -153.5t-164 -119.5t-225 -78.5t-289 -27.5h-669l10 57
q112 0 153 35q48 37 48 395v517q0 217 -13 303q-12 76 -35 94q-40 37 -153 37l-10 53h528zM711 47q134 0 248.5 59t190.5 157t118.5 223.5t42.5 258.5q0 345 -164 523t-455 178q-112 0 -147 -4v-979q0 -242 12 -332q13 -64 53 -84h101z" />
    <glyph glyph-name="dcaron" unicode="&#x10f;" horiz-adv-x="1224" 
d="M1167 1571q16 -20 13 -39l-31 -270h-39l-29 270q-3 19 13 39q16 16 36 16q21 0 37 -16zM1161 145l25 -47q-18 -16 -73 -42.5t-157 -51.5t-194 -16q-1 9 -14 493l57 350h-17l-43 -270q-5 -35 -13 -77.5t-24.5 -115t-39.5 -135.5t-51.5 -122.5t-68 -95t-83.5 -35.5
q-203 0 -314.5 138t-111.5 390q0 242 155 383t400 141q84 0 151 -18v188q0 151 -10 209q-9 46 -24 55q-45 25 -138 25l-8 49q67 12 203 20.5t236 8.5v-1094q0 -233 14 -299q6 -31 19 -45t36 -14q30 0 88 28zM745 866v101q-60 18 -151 18q-130 0 -206.5 -135t-76.5 -361
q0 -98 8 -178.5t25.5 -146.5t49 -102.5t73.5 -36.5q50 0 96.5 76.5t78 186t55.5 232t35.5 214t12.5 132.5z" />
    <glyph glyph-name="Dcroat" unicode="&#x110;" horiz-adv-x="1669" 
d="M633 1491q226 0 398.5 -34.5t287.5 -96.5t188 -155.5t104 -205t31 -251.5q0 -123 -27.5 -230t-92.5 -203.5t-163 -165t-248 -109t-339 -40.5h-670l11 55q108 0 155 37q47 41 47 395v222h-110v77h110v218q0 210 -14 303q-12 73 -33 94q-43 37 -155 37l-11 53h531zM745 47
q108 0 204 38.5t167.5 105.5t124 155t79 190.5t26.5 208.5q0 345 -163 523t-454 178q-112 0 -147 -4v-656h133v-77h-133v-246q0 -265 12 -332q9 -63 53 -84h98z" />
    <glyph glyph-name="dcroat" unicode="&#x111;" horiz-adv-x="1222" 
d="M618 1286h117q0 160 -33 180q-45 25 -137 25l-8 49q67 12 202.5 20.5t235.5 8.5v-283h131v-78h-131v-733q0 -229 15 -299q6 -31 19 -45t36 -14q30 0 88 28l25 -47q-18 -16 -73 -42.5t-157 -51.5t-194 -16q-3 16 -15 493l58 350h-17l-43 -270q-5 -35 -13 -77.5t-24.5 -115
t-39.5 -135.5t-51.5 -122.5t-68 -95t-83.5 -35.5q-203 0 -314.5 138t-111.5 390q0 242 155 383t400 141q84 0 151 -18v188v6h-119v78zM737 866v101q-60 18 -151 18q-130 0 -206.5 -135t-76.5 -361q0 -98 8 -178.5t25.5 -146.5t49 -102.5t73.5 -36.5q50 0 96.5 76.5t78 186
t55.5 232t35.5 214t12.5 132.5z" />
    <glyph glyph-name="Emacron" unicode="&#x112;" horiz-adv-x="1325" 
d="M571 1720h328v-78h-328v78zM1229 532l49 9v-541h-1176l11 55q108 0 155 37q45 39 45 395v517q0 224 -12 303q-12 77 -33 94q-47 37 -155 37l-11 53h1098v-502l-49 6v135q0 316 -487 316q-13 0 -41 -1t-43 -1v-672q166 0 244 20.5t114 77.5q22 34 33.5 116t11.5 149l45 12
v-799l-45 14q0 84 -6.5 140.5t-26.5 98.5t-46.5 65t-76 37t-104.5 18t-143 4v-270q0 -261 14 -324q12 -65 59 -86q118 0 203 9.5t151 33t107 59t67.5 92t37 126.5t10.5 167z" />
    <glyph glyph-name="emacron" unicode="&#x113;" horiz-adv-x="976" 
d="M336 1221h330v-80h-330v80zM938 522h-643v-20q0 -62 6 -117q78 53 179 84t194 31q47 0 89 -10t79.5 -30.5t59.5 -58t22 -88.5q0 -94 -61 -173t-150.5 -121t-180.5 -42q-226 0 -365.5 142.5t-139.5 369.5q0 108 30.5 204t87.5 171.5t147 119.5t202 44q142 0 244 -66
t151 -175.5t49 -249.5v-15zM492 985q-44 0 -80 -33.5t-56.5 -82t-35 -109t-19.5 -108.5t-6 -87h367q-1 49 -4 95t-14 108.5t-28 107.5t-49 77t-75 32zM877 313q0 41 -19 70.5t-51.5 44t-66.5 21t-72 6.5q-91 0 -189.5 -33t-171.5 -88q22 -144 84 -226.5t158 -82.5
q74 0 149.5 38t127 106t51.5 144z" />
    <glyph glyph-name="Ebreve" unicode="&#x114;" horiz-adv-x="1265" 
d="M717 1763h84v-14q0 -57 -48.5 -97t-117.5 -40q-68 0 -117 40t-49 97v14h86l-4 -16q0 -42 21.5 -68t62.5 -26t62.5 26t21.5 68zM1174 532l49 9v-541h-1176l10 55q109 0 156 37q45 39 45 395v517q0 224 -12 303q-12 77 -33 94q-47 37 -156 37l-10 53h1098v-502l-49 6v135
q0 316 -488 316q-13 0 -41 -1t-43 -1v-672q166 0 244.5 20.5t114.5 77.5q22 34 33.5 116t11.5 149l45 12v-799l-45 14q0 84 -6.5 140.5t-26.5 98.5t-46.5 65t-76.5 37t-105 18t-143 4v-270q0 -256 15 -324q12 -65 59 -86q118 0 203 9.5t151 33t107 59t67.5 92t37 126.5
t10.5 167z" />
    <glyph glyph-name="ebreve" unicode="&#x115;" horiz-adv-x="980" 
d="M584 1270h86v-15q0 -57 -48.5 -97t-117.5 -40t-117.5 40t-48.5 97v15h86q-4 -15 -4 -27q0 -37 23.5 -60.5t60.5 -23.5t60.5 23.5t23.5 60.5zM940 522h-643v-20q0 -62 6 -117q78 53 179 84t194 31q47 0 89 -10t79.5 -30.5t59.5 -58t22 -88.5q0 -94 -60.5 -173t-150 -121
t-180.5 -42q-226 0 -366 142.5t-140 369.5q0 108 30.5 204t87.5 171.5t147 119.5t202 44q142 0 244 -66t151 -175.5t49 -249.5v-15zM494 985q-44 0 -80 -33.5t-56.5 -82t-35 -109t-19.5 -108.5t-6 -87h367q-1 49 -4 95t-14 108.5t-28 107.5t-49 77t-75 32zM879 313
q0 41 -19 70.5t-51.5 44t-66.5 21t-72 6.5q-91 0 -189.5 -33t-171.5 -88q22 -144 84 -226.5t158 -82.5q74 0 149.5 38t127 106t51.5 144z" />
    <glyph glyph-name="Edotaccent" unicode="&#x116;" horiz-adv-x="1323" 
d="M690 1819q46 0 78.5 -32.5t32.5 -78.5q0 -44 -33.5 -76.5t-77.5 -32.5q-47 0 -76 33q-32 28 -32 76q0 50 32 78q29 33 76 33zM1229 532l49 9v-541h-1176l11 55q108 0 155 37q45 39 45 395v517q0 224 -12 303q-12 77 -33 94q-47 37 -155 37l-11 53h1098v-502l-49 6v135
q0 316 -487 316q-13 0 -41 -1t-43 -1v-672q166 0 244 20.5t114 77.5q22 34 33.5 116t11.5 149l45 12v-799l-45 14q0 84 -6.5 140.5t-26.5 98.5t-46.5 65t-76 37t-104.5 18t-143 4v-270q0 -261 14 -324q12 -65 59 -86q118 0 203 9.5t151 33t107 59t67.5 92t37 126.5t10.5 167
z" />
    <glyph glyph-name="edotaccent" unicode="&#x117;" horiz-adv-x="972" 
d="M502 1339q44 0 76 -33.5t32 -76.5t-32.5 -76t-75.5 -33t-77 32.5t-34 76.5t33.5 77t77.5 33zM938 522h-643v-20q0 -62 6 -117q78 53 179 84t194 31q47 0 89 -10t79.5 -30.5t59.5 -58t22 -88.5q0 -94 -61 -173t-150.5 -121t-180.5 -42q-226 0 -365.5 142.5t-139.5 369.5
q0 108 30.5 204t87.5 171.5t147 119.5t202 44q142 0 244 -66t151 -175.5t49 -249.5v-15zM492 985q-44 0 -80 -33.5t-56.5 -82t-35 -109t-19.5 -108.5t-6 -87h367q-1 49 -4 95t-14 108.5t-28 107.5t-49 77t-75 32zM877 313q0 41 -19 70.5t-51.5 44t-66.5 21t-72 6.5
q-91 0 -189.5 -33t-171.5 -88q22 -144 84 -226.5t158 -82.5q74 0 149.5 38t127 106t51.5 144z" />
    <glyph glyph-name="Eogonek" unicode="&#x118;" horiz-adv-x="1325" 
d="M1190 -92l88 -64q-32 -59 -74 -98.5t-83 -55.5t-66.5 -21t-48.5 -5q-63 0 -108.5 41t-45.5 113q0 4 0.5 10.5t6 27t15 41t30.5 49t50 54.5h-852l11 55q108 0 155 37q45 39 45 395v517q0 224 -12 303q-12 77 -33 94q-47 37 -155 37l-11 53h1098v-502l-49 6v135
q0 316 -487 316q-13 0 -41 -1t-43 -1v-672q166 0 244 20.5t114 77.5q22 34 33.5 116t11.5 149l45 12v-799l-45 14q0 84 -6.5 140.5t-26.5 98.5t-46.5 65t-76 37t-104.5 18t-143 4v-270q0 -261 14 -324q12 -65 59 -86q118 0 203 9.5t151 33t107 59t67.5 92t37 126.5t10.5 167
l49 9v-541h-248q-55 -37 -87.5 -80t-38.5 -68l-5 -24q0 -40 24.5 -54t51.5 -14q61 0 112.5 35.5t102.5 112.5z" />
    <glyph glyph-name="eogonek" unicode="&#x119;" horiz-adv-x="966" 
d="M729 -113l78 -57q-29 -53 -68 -90t-76 -52.5t-62 -21.5t-44 -6q-56 0 -97.5 36t-41.5 103q0 97 104 178q-224 3 -360.5 145.5t-136.5 366.5q0 108 30.5 204t87.5 171.5t147 119.5t202 44q142 0 244 -66t151 -175.5t49 -249.5v-15h-643v-20q0 -62 6 -117q78 53 179 84
t194 31q47 0 89 -10t79.5 -30.5t59.5 -58t22 -88.5q0 -118 -93.5 -211t-214.5 -116l-12 -9q-40 -22 -69.5 -47.5t-42.5 -46t-20.5 -37.5t-7.5 -26l-1 -10q0 -36 22.5 -49t46.5 -13q107 0 199 139zM489 985q-55 0 -95.5 -48.5t-60.5 -121.5t-29.5 -136t-10.5 -114h366
q-1 49 -4 95t-14 108.5t-28 107.5t-49 77t-75 32zM874 313q0 54 -34.5 87.5t-77.5 44t-96 10.5q-91 0 -189.5 -33t-171.5 -88q22 -144 84 -226.5t158 -82.5q55 0 113 23t105.5 61t78 92.5t30.5 111.5z" />
    <glyph glyph-name="Ecaron" unicode="&#x11a;" horiz-adv-x="1327" 
d="M643 1630l-158 170l25 31l180 -123l180 123l27 -31l-162 -172q-18 -18 -45 -18q-30 0 -47 20zM1229 532l49 9v-541h-1176l11 55q108 0 155 37q45 39 45 395v517q0 224 -12 303q-12 77 -33 94q-47 37 -155 37l-11 53h1098v-502l-49 6v135q0 316 -487 316q-13 0 -41 -1
t-43 -1v-672q166 0 244 20.5t114 77.5q22 34 33.5 116t11.5 149l45 12v-799l-45 14q0 84 -6.5 140.5t-26.5 98.5t-46.5 65t-76 37t-104.5 18t-143 4v-270q0 -261 14 -324q12 -65 59 -86q118 0 203 9.5t151 33t107 59t67.5 92t37 126.5t10.5 167z" />
    <glyph glyph-name="ecaron" unicode="&#x11b;" horiz-adv-x="970" 
d="M457 1135l-160 172l27 30l180 -125l180 125l27 -30l-162 -172q-21 -21 -45 -21q-26 0 -47 21zM940 522h-643v-20q0 -62 6 -117q78 53 179 84t194 31q47 0 89 -10t79.5 -30.5t59.5 -58t22 -88.5q0 -94 -60.5 -173t-150 -121t-180.5 -42q-226 0 -366 142.5t-140 369.5
q0 108 30.5 204t87.5 171.5t147 119.5t202 44q142 0 244 -66t151 -175.5t49 -249.5v-15zM494 985q-44 0 -80 -33.5t-56.5 -82t-35 -109t-19.5 -108.5t-6 -87h367q-1 49 -4 95t-14 108.5t-28 107.5t-49 77t-75 32zM879 313q0 41 -19 70.5t-51.5 44t-66.5 21t-72 6.5
q-91 0 -189.5 -33t-171.5 -88q22 -144 84 -226.5t158 -82.5q74 0 149.5 38t127 106t51.5 144z" />
    <glyph glyph-name="Gcircumflex" unicode="&#x11c;" horiz-adv-x="1636" 
d="M877 1812l159 -172l-26 -30l-179 123l-180 -123l-26 30l161 172q16 19 45 19q30 0 46 -19zM414 827h1204l-10 -51q-125 0 -148 -47q-12 -22 -32.5 -316.5t-20.5 -412.5h-49l-15 307q-69 -146 -195.5 -236.5t-305.5 -90.5q-169 0 -312.5 47.5t-253.5 139.5t-172.5 240
t-62.5 338q0 118 33.5 229.5t101 208.5t160 169.5t219.5 114.5t272 42q204 0 344.5 -78.5t231.5 -244.5l63 12l27 -31l-297 -282l-31 39q20 20 34.5 62t14.5 93q0 113 -58 203t-145.5 136t-183.5 46q-116 0 -211.5 -63.5t-154.5 -166.5t-91 -228.5t-32 -255.5
q0 -133 39.5 -264t105.5 -233t161.5 -165t199.5 -63q99 0 182.5 39t137.5 100.5t92.5 140.5t55 157t17.5 152l-4 68q0 40 -33 63q-11 8 -35 13.5t-60 9t-68.5 5.5t-80.5 2.5t-75 0.5h-72h-53h-424z" />
    <glyph glyph-name="gcircumflex" unicode="&#x11d;" horiz-adv-x="1040" 
d="M555 1321l158 -172l-25 -31l-180 125l-180 -125l-27 31l162 172q20 20 45 20q27 0 47 -20zM805 182q125 -26 183.5 -86t58.5 -162q0 -84 -62.5 -148t-160.5 -98.5t-198 -51.5t-194 -17q-35 0 -69.5 1.5t-82.5 7t-89 15t-83.5 26t-72.5 39t-49 56t-19 74.5q0 35 20.5 66.5
t54 53t65 35.5t63.5 23l147 45l-10 11l-155 -47q-49 26 -82 72.5t-33 97.5q0 32 16 61t47.5 53t53 36.5t57.5 31.5q-174 98 -174 282q0 109 67.5 194.5t176.5 130t237 44.5q104 0 199 -29q61 0 106.5 14.5t67.5 32.5t35 41t15.5 34t2.5 16l45 -33v-150h-172
q89 -51 138 -127.5t49 -164.5q0 -86 -34 -152.5t-84.5 -105t-118.5 -63t-127.5 -32.5t-119.5 -8q-144 0 -258 49q-30 -19 -42.5 -28t-23 -26.5t-8.5 -39.5q1 -16 15 -27.5t38 -17t51 -9t61.5 -3.5t62.5 1t60.5 2t49.5 1q121 0 197 -8q81 42 138 90t84.5 93t38.5 81.5
t11 72.5h43q0 -209 -233 -350zM520 983q-203 0 -203 -313q0 -149 46 -236.5t145 -87.5q89 0 151 79t62 245q0 157 -47.5 235t-153.5 78zM467 -334q319 0 319 178q0 67 -48.5 99.5t-157.5 41.5t-320 1q-41 -26 -58.5 -54.5t-17.5 -76.5q0 -53 27 -92t71.5 -59t90 -29t94.5 -9
z" />
    <glyph glyph-name="Gbreve" unicode="&#x11e;" horiz-adv-x="1638" 
d="M907 1763h86v-14q0 -57 -49 -96t-117 -39q-69 0 -117 39t-48 96v14h83l-2 -16q0 -42 21.5 -68t62.5 -26q37 0 60.5 23.5t23.5 60.5q0 6 -2 10zM412 827h1204l-10 -51q-125 0 -148 -47q-12 -22 -32.5 -316.5t-20.5 -412.5h-49l-15 307q-69 -146 -195.5 -236.5
t-305.5 -90.5q-169 0 -312.5 47.5t-253.5 139.5t-172.5 240t-62.5 338q0 118 33.5 229.5t101 208.5t160 169.5t219.5 114.5t272 42q204 0 344.5 -78.5t231.5 -244.5l63 12l27 -31l-297 -282l-31 39q20 20 34.5 62t14.5 93q0 113 -58 203t-145.5 136t-183.5 46
q-116 0 -211.5 -63.5t-154.5 -166.5t-91 -228.5t-32 -255.5q0 -133 39.5 -264t105.5 -233t161.5 -165t199.5 -63q99 0 182.5 39t137.5 100.5t92.5 140.5t55 157t17.5 152l-4 68q0 40 -33 63q-11 8 -35 13.5t-60 9t-68.5 5.5t-80.5 2.5t-75 0.5h-72h-53h-424z" />
    <glyph glyph-name="gbreve" unicode="&#x11f;" horiz-adv-x="1050" 
d="M604 1274h86v-14q0 -57 -49 -96.5t-117 -39.5q-69 0 -117.5 39.5t-48.5 96.5v14h84q-2 -13 -2 -27q0 -37 23.5 -59.5t60.5 -22.5t60.5 22.5t23.5 59.5zM809 182q125 -26 183.5 -86t58.5 -162q0 -84 -62.5 -148t-160.5 -98.5t-198 -51.5t-194 -17q-35 0 -69.5 1.5t-82.5 7
t-89 15t-83.5 26t-72.5 39t-49 56t-19 74.5q0 35 20.5 66.5t54 53t65 35.5t63.5 23l148 45l-11 11l-155 -47q-49 26 -82 72.5t-33 97.5q0 32 16 61t47.5 53t53 36.5t57.5 31.5q-174 98 -174 282q0 109 67.5 194.5t176.5 130t237 44.5q104 0 199 -29q61 0 106.5 14.5
t67.5 32.5t35 41t15.5 34t2.5 16l45 -33v-150h-172q89 -51 138 -127.5t49 -164.5q0 -86 -34 -152.5t-84.5 -105t-118.5 -63t-127.5 -32.5t-119.5 -8q-144 0 -258 49q-30 -18 -42.5 -27.5t-22.5 -27t-8 -39.5q1 -16 14.5 -27.5t37.5 -17t51 -9t61.5 -3.5t62.5 1t60.5 2
t49.5 1q121 0 197 -8q81 42 138 90t84.5 93t38.5 81.5t11 72.5h43q0 -209 -233 -350zM524 983q-202 0 -202 -313q0 -150 45.5 -237t144.5 -87q89 0 151 79t62 245q0 157 -47.5 235t-153.5 78zM471 -334q320 0 320 178q0 67 -48.5 99.5t-158 41.5t-320.5 1
q-41 -26 -58.5 -54.5t-17.5 -76.5q0 -53 27 -92t71.5 -59t90 -29t94.5 -9z" />
    <glyph glyph-name="Gdotaccent" unicode="&#x120;" horiz-adv-x="1634" 
d="M823 1819q44 0 76.5 -33.5t32.5 -77.5q0 -47 -33 -76q-29 -33 -76 -33q-44 0 -77 32.5t-33 76.5t33 77.5t77 33.5zM408 827h1204l-10 -51q-125 0 -148 -47q-12 -22 -32.5 -316.5t-20.5 -412.5h-49l-15 307q-69 -146 -195.5 -236.5t-305.5 -90.5q-169 0 -312.5 47.5
t-253.5 139.5t-172.5 240t-62.5 338q0 118 33.5 229.5t101 208.5t160 169.5t219.5 114.5t272 42q204 0 344.5 -78.5t231.5 -244.5l63 12l27 -31l-297 -282l-31 39q20 20 34.5 62t14.5 93q0 113 -58 203t-145.5 136t-183.5 46q-116 0 -211.5 -63.5t-154.5 -166.5t-91 -228.5
t-32 -255.5q0 -133 39.5 -264t105.5 -233t161.5 -165t199.5 -63q99 0 182.5 39t137.5 100.5t92.5 140.5t55 157t17.5 152l-4 68q0 40 -33 63q-11 8 -35 13.5t-60 9t-68.5 5.5t-80.5 2.5t-75 0.5h-72h-53h-424z" />
    <glyph glyph-name="gdotaccent" unicode="&#x121;" horiz-adv-x="1044" 
d="M584 1311q32 -28 32 -76q0 -45 -32 -78t-76 -33q-40 0 -78 33q-33 38 -33 78q0 44 33 76t78 32q48 0 76 -32zM805 182q125 -26 183.5 -86t58.5 -162q0 -84 -62.5 -148t-160.5 -98.5t-198 -51.5t-194 -17q-35 0 -69.5 1.5t-82.5 7t-89 15t-83.5 26t-72.5 39t-49 56
t-19 74.5q0 35 20.5 66.5t54 53t65 35.5t63.5 23l147 45l-10 11l-155 -47q-49 26 -82 72.5t-33 97.5q0 32 16 61t47.5 53t53 36.5t57.5 31.5q-174 98 -174 282q0 109 67.5 194.5t176.5 130t237 44.5q104 0 199 -29q61 0 106.5 14.5t67.5 32.5t35 41t15.5 34t2.5 16l45 -33
v-150h-172q89 -51 138 -127.5t49 -164.5q0 -86 -34 -152.5t-84.5 -105t-118.5 -63t-127.5 -32.5t-119.5 -8q-144 0 -258 49q-30 -19 -42.5 -28t-23 -26.5t-8.5 -39.5q1 -16 15 -27.5t38 -17t51 -9t61.5 -3.5t62.5 1t60.5 2t49.5 1q121 0 197 -8q81 42 138 90t84.5 93
t38.5 81.5t11 72.5h43q0 -209 -233 -350zM520 983q-203 0 -203 -313q0 -149 46 -236.5t145 -87.5q89 0 151 79t62 245q0 157 -47.5 235t-153.5 78zM467 -334q319 0 319 178q0 67 -48.5 99.5t-157.5 41.5t-320 1q-41 -26 -58.5 -54.5t-17.5 -76.5q0 -53 27 -92t71.5 -59
t90 -29t94.5 -9z" />
    <glyph glyph-name="uni0122" unicode="&#x122;" horiz-adv-x="1642" 
d="M410 823h1204l-10 -51q-125 0 -148 -47q-12 -22 -32.5 -316.5t-20.5 -412.5h-49l-15 307q-69 -146 -195.5 -237t-305.5 -91q-134 0 -253 29.5t-220 91t-173.5 151t-113.5 216t-41 278.5q0 118 33.5 229.5t101 208.5t160 169.5t219.5 114.5t272 42q204 0 344.5 -78.5
t231.5 -244.5l63 12l27 -31l-297 -282l-31 39q20 20 34.5 62t14.5 93q0 113 -58 203t-145.5 136t-183.5 46q-116 0 -211.5 -63.5t-154.5 -167t-91 -229t-32 -255.5q0 -133 39.5 -264t105.5 -233t161.5 -165t199.5 -63q99 0 182.5 39t137.5 100.5t92.5 141t55 157.5t17.5 152
l-4 68q0 40 -33 63q-11 8 -35 13.5t-60 9t-68.5 5.5t-80.5 2.5t-75 0.5h-72h-53h-424zM823 -74q50 0 77.5 -35.5t27.5 -101.5q0 -19 -5.5 -44.5t-20.5 -63.5t-50.5 -76.5t-85.5 -65.5l-23 43q65 24 113 107q26 57 23 78q-27 -27 -58 -29q-45 0 -69 24q-27 24 -27 72
q0 41 27 66.5t71 25.5z" />
    <glyph glyph-name="uni0123" unicode="&#x123;" horiz-adv-x="1048" 
d="M582 1268q26 -26 26 -74q0 -40 -27 -66t-71 -26q-49 0 -76.5 36t-27.5 101q0 20 4.5 43.5t18 59.5t46 73t80.5 66l12 8l23 -41l-15 -6q-57 -29 -98 -103q-25 -52 -22 -75q21 26 57 26q45 3 70 -22zM805 180q125 -26 183.5 -86t58.5 -162q0 -84 -62.5 -148t-160.5 -98.5
t-198 -51.5t-194 -17q-35 0 -69.5 1.5t-82.5 7t-89 15t-83.5 26t-72.5 39t-49 56t-19 74.5q0 35 20.5 66.5t54 53t65 35.5t63.5 23l147 45l-10 11l-155 -47q-49 26 -82 72.5t-33 97.5q0 32 16 61t47.5 53t53 36.5t57.5 31.5q-174 98 -174 282q0 109 67.5 194.5t176.5 130
t237 44.5q104 0 199 -29q61 0 106.5 14.5t67.5 32.5t35 41t15.5 34t2.5 16l45 -33v-150h-172q88 -51 137.5 -127.5t49.5 -165.5q0 -86 -34 -152.5t-84.5 -104.5t-119 -62.5t-127.5 -32.5t-119 -8q-144 0 -258 49q-30 -19 -42.5 -28t-23 -26.5t-8.5 -39.5q1 -16 15 -27.5
t38 -17t51 -9t61.5 -3.5t62.5 1t60.5 2t49.5 1q121 0 197 -8q81 42 138 90t84.5 93t38.5 81.5t11 72.5h43q0 -209 -233 -350zM520 981q-203 0 -203 -313q0 -149 46 -236.5t145 -87.5q89 0 151 79t62 245q0 157 -47.5 235t-153.5 78zM467 -336q319 0 319 178q0 67 -48.5 99.5
t-157.5 41.5t-320 1q-41 -26 -58.5 -54.5t-17.5 -76.5q0 -53 27 -92t71.5 -59t90 -29t94.5 -9z" />
    <glyph glyph-name="Hcircumflex" unicode="&#x124;" horiz-adv-x="1744" 
d="M920 1810l159 -172l-26 -28l-179 123l-180 -123l-26 30l159 170q21 21 47 21q25 0 46 -21zM1507 92q49 -37 156 -37l10 -55h-688l10 55q60 0 92 4q36 6 66 44t33 90q10 132 10 294v310q-203 -9 -373 -78t-274 -184v-48q0 -210 12 -303q8 -73 33 -92q49 -37 156 -37
l10 -55h-688l10 55q60 0 92 4q36 6 66.5 44.5t33.5 89.5q11 146 11 294v517q0 212 -13 301q-12 79 -32 96q-47 37 -158 37l-10 53h688l-10 -53q-112 0 -154 -37q-24 -21 -35.5 -104.5t-11.5 -292.5v-406q115 109 284 174t363 72v160q0 218 -12 301q-12 80 -31 96
q-47 37 -158 37l-10 53h688l-10 -53q-114 0 -156 -37q-24 -20 -34.5 -103t-10.5 -294v-517q0 -202 13 -303q8 -74 32 -92z" />
    <glyph glyph-name="hcircumflex" unicode="&#x125;" horiz-adv-x="1433" 
d="M401 1825l160 -172l-26 -31l-181 123l-180 -123l-27 31l162 172q18 18 45 18q29 0 47 -18zM911 98q23 53 23 277v287q0 51 -2 90t-9.5 84.5t-21 75t-37.5 49.5t-57 20q-50 0 -97 -67t-78.5 -165.5t-56 -209.5t-36 -200.5t-11.5 -137.5q-4 -54 21 -105q18 -41 147 -41
l9 -55h-623l8 55q59 0 100.5 11.5t51.5 31.5q24 46 24 262v703q0 308 -26 364q-9 22 -33.5 38.5t-50.5 19.5q-36 4 -86 4l-7 53q180 23 461 23v-998l-53 -303h14l39 232q90 532 295 532q173 0 273 -84t100 -262v-326q0 -206 27 -258q10 -20 50.5 -31.5t96.5 -11.5l8 -55
h-620l8 55q59 0 99.5 11.5t49.5 31.5z" />
    <glyph glyph-name="Hbar" unicode="&#x126;" horiz-adv-x="1746" 
d="M190 1178h97q-8 194 -43 223q-47 37 -158 37l-10 53h688l-10 -53q-112 0 -154 -37q-38 -29 -45 -223h643q-9 195 -41 223q-47 37 -158 37l-10 53h688l-10 -53q-114 0 -156 -37q-18 -14 -28.5 -62.5t-14.5 -160.5h95v-78h-97v-96v-517q0 -202 13 -303q8 -74 32 -92
q49 -37 156 -37l10 -55h-688l10 55q61 0 93 4q36 6 65.5 44t32.5 90q10 132 10 294v310q-203 -9 -373 -78t-274 -184v-48q0 -210 12 -303q8 -73 33 -92q49 -37 156 -37l10 -55h-688l10 55q60 0 92 4q36 6 67 44.5t34 89.5q10 133 10 294v517v96h-99v78zM553 1100v-96v-406
q115 109 284 174t363 72v160v96h-647z" />
    <glyph glyph-name="hbar" unicode="&#x127;" horiz-adv-x="1409" 
d="M154 1290h100q-6 107 -21 137q-9 22 -33 38.5t-50 19.5q-36 4 -87 4l-6 53q180 23 461 23v-275h146v-78h-146v-645l-53 -303h14l39 232q90 532 295 532q173 0 273 -84t100 -262v-326q0 -208 26 -258q10 -20 51 -31.5t97 -11.5l8 -55h-620l8 55q59 0 99.5 11.5t49.5 31.5
q23 53 23 277v287q0 51 -2 90t-9.5 84.5t-21 75t-37.5 49.5t-57 20q-50 0 -97 -67t-78.5 -165.5t-56 -209.5t-36 -200.5t-11.5 -137.5q-4 -54 21 -105q18 -41 147 -41l8 -55h-622l8 55q59 0 100.5 11.5t51.5 31.5q24 46 24 262v703q0 106 -2 149h-104v78z" />
    <glyph glyph-name="Itilde" unicode="&#x128;" horiz-adv-x="911" 
d="M602 1761l2 -12q0 -33 -14 -55q-10 -22 -33 -34.5t-49 -12.5q-11 0 -35 4q-34 10 -47 18q-18 7 -27 14l-14 7q-20 10 -27 10q-6 0 -12 -3.5t-9.5 -7t-9.5 -10t-8 -8.5l-8 -8l-30 12v11q0 29 16 55q12 15 27 24q16 13 36 13q19 1 56 -11l4 -2q12 -5 43 -20l2 -2
q7 -2 18.5 -7.5t14.5 -6.5q10 -5 24 -5q10 0 19 9q7 5 22 28l6 8zM637 92q49 -37 156 -37l10 -55h-686l8 55q60 0 92 4q36 6 66.5 43.5t33.5 90.5q0 12 3.5 65.5t5.5 112.5t2 116v517q0 208 -13 301q-12 79 -32 96q-47 37 -158 37l-10 53h688l-10 -53q-114 0 -156 -37
q-24 -20 -34.5 -103t-10.5 -294v-517q0 -210 12 -303q11 -75 33 -92z" />
    <glyph glyph-name="itilde" unicode="&#x129;" horiz-adv-x="782" 
d="M520 1272l2 -10q0 -36 -17.5 -63t-49.5 -36q-8 -4 -29 -4q-23 0 -35 4q-24 5 -47 19q-15 6 -27 12q-9 3 -14 8q-20 10 -24 10q-6 0 -15 -6q-4 -2 -26 -24l-9 -8l-30 14v10q0 29 16 55q29 37 64 37q31 0 55 -12l6 -2q21 -9 41 -19l2 -2q8 -4 33 -14q13 -7 24 -4q11 0 19 8
q1 1 22 27l6 10zM98 55q59 0 100.5 11.5t51.5 31.5q24 55 24 262q0 382 -12 461q-12 72 -35 90q-43 43 -149 43l-6 52q190 24 460 24v-674q0 -208 25 -258q10 -20 50 -31.5t98 -11.5l8 -55h-623z" />
    <glyph glyph-name="Imacron" unicode="&#x12a;" horiz-adv-x="913" 
d="M295 1720h328v-78h-328v78zM637 92q50 -35 156 -35l10 -57h-686l8 57q76 0 92 2q36 6 66.5 44.5t33.5 89.5q1 14 4 66.5t5 111.5t2 116v517q0 212 -13 301q-12 79 -32 96q-43 37 -158 37l-10 53h688l-10 -53q-114 0 -156 -37q-24 -20 -34.5 -102.5t-10.5 -294.5v-517
q0 -210 12 -303q11 -76 33 -92z" />
    <glyph glyph-name="imacron" unicode="&#x12b;" horiz-adv-x="780" 
d="M170 1231h330v-78h-330v78zM100 55q131 0 152 41q24 55 24 264q0 385 -14 459q-12 71 -33 92q-47 41 -149 41l-6 52q191 24 461 24v-672q0 -220 24 -260q21 -41 148 -41l8 -55h-623z" />
    <glyph glyph-name="Ibreve" unicode="&#x12c;" horiz-adv-x="913" 
d="M541 1763h84v-14q0 -57 -48.5 -97t-117.5 -40q-68 0 -117 40t-49 97v14h86l-4 -16q0 -42 21.5 -68t62.5 -26t62.5 26t21.5 68zM637 92q49 -37 156 -37l10 -55h-686l8 55q60 0 92 4q36 6 66.5 43.5t33.5 90.5q0 13 3.5 66t5.5 111.5t2 114.5v519q0 208 -13 301
q-12 79 -32 96q-44 35 -158 35l-10 55h688l-10 -55q-114 0 -156 -35q-24 -20 -34.5 -103t-10.5 -294v-519q0 -208 12 -301q11 -75 33 -92z" />
    <glyph glyph-name="ibreve" unicode="&#x12d;" horiz-adv-x="782" 
d="M444 1274h86v-14q0 -57 -48.5 -96.5t-116.5 -39.5q-69 0 -117.5 39.5t-48.5 96.5v14h84q-2 -13 -2 -27q0 -37 23.5 -60.5t60.5 -23.5t60.5 23.5t23.5 60.5zM100 55q59 0 100.5 11.5t51.5 31.5q24 48 24 262q0 388 -14 459q-12 76 -33 92q-44 41 -149 41l-6 54
q200 22 461 22v-672q0 -214 24 -260q18 -41 148 -41l8 -55h-623z" />
    <glyph glyph-name="Iogonek" unicode="&#x12e;" horiz-adv-x="913" 
d="M635 92q46 -37 156 -37l8 -55h-271q-55 -37 -87.5 -80t-38.5 -68l-5 -24q0 -40 24.5 -54t51.5 -14q116 0 215 148l86 -64q-26 -48 -60 -83t-63 -53t-61 -28.5t-50.5 -13t-35.5 -2.5q-64 0 -110 40.5t-46 113.5q0 4 1 10.5t7 27t16 41t31 49t50 54.5h-340l10 55q60 0 92 4
q35 6 65 44.5t33 89.5q11 146 11 294v517q0 212 -13 301q-12 81 -30 96q-47 37 -158 37l-10 53h686l-8 -53q-114 0 -156 -37q-24 -21 -35.5 -104.5t-11.5 -292.5v-517q0 -195 14 -303q8 -75 33 -92z" />
    <glyph glyph-name="iogonek" unicode="&#x12f;" horiz-adv-x="788" 
d="M401 1212q-55 0 -94 39t-39 95q0 54 39.5 93.5t93.5 39.5t94 -39.5t40 -93.5q0 -56 -39.5 -95t-94.5 -39zM102 55q131 0 152 41q25 58 25 264q0 373 -13 459q-13 81 -53 107t-131 26l-6 52q190 24 461 24v-672q0 -212 24 -260q21 -41 148 -41l8 -55h-230l-12 -8
q-40 -22 -69.5 -48.5t-42.5 -45.5t-20.5 -39t-8 -26t-0.5 -11q0 -36 21.5 -49t45.5 -13q105 0 199 142l78 -58q-29 -54 -67 -91t-75 -52.5t-62 -21t-44 -5.5q-56 0 -98.5 36t-42.5 102q0 102 117 188h-312z" />
    <glyph glyph-name="Idotaccent" unicode="&#x130;" horiz-adv-x="907" 
d="M459 1819q46 0 78 -32.5t32 -78.5q0 -44 -33 -76.5t-77 -32.5q-47 0 -76 33q-33 29 -33 76q0 49 33 78q29 33 76 33zM637 92q50 -35 156 -35l10 -57h-686l8 57q76 0 92 4q36 5 66.5 42.5t33.5 89.5q1 14 4 67t5 112t2 115v519q0 210 -13 299q-12 79 -32 96
q-43 37 -158 37l-10 53h688l-10 -53q-114 0 -156 -35q-24 -22 -34.5 -104.5t-10.5 -292.5v-519q0 -208 12 -301q11 -75 33 -94z" />
    <glyph glyph-name="dotlessi" unicode="&#x131;" horiz-adv-x="782" 
d="M100 55q59 0 100.5 11.5t51.5 31.5q24 46 24 262q0 380 -12 459q-13 74 -35 92q-47 41 -149 41l-6 54q175 22 461 22v-672q0 -212 24 -260q21 -41 148 -41l8 -55h-623z" />
    <glyph glyph-name="IJ" unicode="&#x132;" horiz-adv-x="1605" 
d="M637 92q53 -37 156 -37l10 -55h-686l8 55q60 0 92 4q36 6 66.5 44.5t33.5 89.5q11 146 11 294v517q0 212 -13 301q-12 82 -32 96q-43 37 -158 37l-8 53h686l-10 -53q-112 0 -154 -37q-25 -20 -36 -102t-11 -295v-517q0 -210 12 -303q11 -75 33 -92zM825 1491h676l-8 -53
q-118 0 -156 -35q-14 -13 -23 -43.5t-15.5 -117.5t-6.5 -234v-744q0 -218 -124.5 -353.5t-336.5 -135.5q-45 0 -87 12.5t-69 29.5t-47.5 35.5t-30 30t-9.5 13.5l37 24q3 -4 8.5 -11t25 -24t41.5 -30t57.5 -24t73.5 -11q19 0 31 1t35.5 7.5t39.5 18.5t36 37.5t32 61.5
t20.5 92.5t8.5 127.5v842q0 306 -30 368q-21 52 -78 58q-36 4 -90 4z" />
    <glyph glyph-name="ij" unicode="&#x133;" horiz-adv-x="1140" 
d="M930 1208q-54 0 -94.5 40.5t-40.5 94.5q0 55 40.5 94.5t94.5 39.5q55 0 94 -39t39 -95q0 -55 -39 -95t-94 -40zM373 1208q-54 0 -93.5 40.5t-39.5 94.5q0 56 39 95t94 39q54 0 94.5 -39.5t40.5 -94.5q0 -54 -40.5 -94.5t-94.5 -40.5zM100 53q58 0 99 11.5t51 31.5
q24 46 24 262q0 382 -12 461q-12 69 -33 90q-46 43 -149 43l-8 52q190 24 463 24v-674q0 -209 22 -260q10 -19 50.5 -30t97.5 -11l10 -55h-625zM600 1004q190 24 467 24v-956q0 -91 -8 -166.5t-22 -133.5t-36 -104t-46 -78t-56.5 -55t-64 -37t-71.5 -22t-74.5 -10.5
t-78.5 -2.5v48q45 0 77 10t54 35.5t35 56.5t20 84.5t9 107t2 136.5v579q0 353 -64 408q-28 22 -135 22z" />
    <glyph glyph-name="Jcircumflex" unicode="&#x134;" horiz-adv-x="798" 
d="M444 1810l160 -172l-26 -28l-179 123l-182 -123l-24 30l159 170q21 21 47 21q24 0 45 -21zM76 1491h676l-9 -53q-117 0 -155 -35q-14 -13 -23 -43.5t-15.5 -117.5t-6.5 -234v-744q0 -218 -124.5 -353.5t-336.5 -135.5q-45 0 -87 12.5t-69.5 29.5t-48 35.5t-30 30
t-9.5 13.5l37 24q3 -4 8.5 -11t25.5 -24t42 -30t57.5 -24t73.5 -11q19 0 31 1t35.5 7.5t39.5 18.5t36 37.5t32 61.5t20.5 92.5t8.5 127.5v842q0 304 -31 368q-21 52 -78 58q-36 4 -90 4z" />
    <glyph glyph-name="jcircumflex" unicode="&#x135;" horiz-adv-x="620" 
d="M385 1321l160 -170l-27 -31l-178 123l-180 -123l-27 31l160 172q18 18 47 18q28 0 45 -20zM49 1006q188 24 465 24v-956q0 -91 -8 -166.5t-22 -133.5t-36 -104t-46 -78t-56.5 -55t-64 -37t-71.5 -22t-74.5 -10.5t-78.5 -2.5v48q45 0 77 10t54 35.5t35 56.5t20 84.5t9 107
t2 136.5v579q0 353 -64 408q-28 22 -135 22z" />
    <glyph glyph-name="uni0136" unicode="&#x136;" horiz-adv-x="1495" 
d="M1272 1436q-45 0 -84 -14t-78 -47t-66 -62.5t-71 -83.5l-232 -291h148q-2 -83 22 -196t72 -235.5t111 -234t149 -199.5t176 -124l-30 -39q-65 16 -144 60.5t-169.5 124t-172.5 180.5t-153 241.5t-109 294.5l-115 -141v-185q0 -185 15 -301q8 -74 32 -92q49 -37 156 -37
l10 -55h-688l10 55q61 0 93 4q36 6 65.5 44t32.5 90q10 132 10 292v519q0 218 -12 301q-12 80 -31 96q-44 35 -158 35l-10 55h688l-10 -55q-116 0 -156 -35q-24 -21 -35.5 -104.5t-11.5 -292.5v-261l103 127q-2 11 -6.5 33.5t-6.5 34.5h66l246 307q39 49 59.5 101t9.5 75
q-10 15 -34 15h-48l-8 55h543l-10 -55h-168zM827 -70q51 0 78 -36t27 -101q0 -20 -5.5 -45.5t-20 -63.5t-50 -76.5t-86.5 -64.5l-20 41q69 28 110 109q25 45 25 76q-1 -1 -5.5 -4.5t-7.5 -6t-8.5 -6t-10 -5.5t-12 -3.5t-14.5 -1.5q-39 -3 -71 22q-27 30 -27 74q0 40 27.5 66
t70.5 26z" />
    <glyph glyph-name="uni0137" unicode="&#x137;" horiz-adv-x="1220" 
d="M1288 -104l12 -5l-38 -30h-5q-231 50 -366 162q-183 150 -307 407l-29 -51v-19q0 -212 25 -262q10 -20 50.5 -31.5t98.5 -11.5l8 -55h-631l11 55q59 0 100 11.5t51 31.5q25 48 25 267q0 242 -3.5 600.5t-8.5 390.5q-12 76 -35 94q-44 41 -144 41h-8l-6 53q198 25 467 25
v-1098l199 342q22 36 25 72.5t-9 52.5q-9 18 -29 18h-69l-8 54h436l-8 -54h-86q-70 0 -120.5 -49t-99.5 -133l-32 -55q34 -241 147 -432q81 -137 182 -246.5t205 -144.5zM688 -94q50 0 77.5 -35.5t27.5 -101.5q0 -20 -4.5 -43.5t-17.5 -59.5t-45.5 -73t-80.5 -66l-14 -8
l-21 43l13 6q61 28 98 100q26 50 22 78q-21 -27 -57 -29q-39 -3 -70 25q-26 26 -26 72q0 40 27.5 66t70.5 26z" />
    <glyph glyph-name="kgreenlandic" unicode="&#x138;" horiz-adv-x="1191" 
d="M1260 -104l12 -5l-39 -30h-4q-233 51 -367 162q-183 150 -307 407l-29 -51v-19q0 -212 25 -262q10 -20 50.5 -31.5t98.5 -11.5l9 -55h-631l10 55q59 0 100.5 11.5t51.5 31.5q24 46 24 267q0 379 -12 452q-12 74 -35 92q-46 43 -151 43l-7 52q190 24 467 24v-557l199 342
q22 36 25 72.5t-9 52.5q-9 18 -28 18h-70l-8 54h436l-8 -54h-86q-70 0 -120 -49t-99 -133l-33 -55q34 -241 147 -432q81 -137 182.5 -246.5t205.5 -144.5z" />
    <glyph glyph-name="Lacute" unicode="&#x139;" horiz-adv-x="1302" 
d="M283 1659l231 145q20 10 39 4q20 -3 31 -24q9 -17 2 -41q-10 -21 -29 -27l-258 -92zM1174 508v96l53 10v-614h-1118l10 55q54 0 90 4q53 6 80 58q13 23 20.5 133.5t7.5 236.5v517q0 310 -26 372q-24 52 -80 58q-36 4 -92 4l-10 53h686l-11 -53q-118 0 -155 -37
q-22 -22 -34.5 -104t-12.5 -293v-549q0 -243 14 -322q6 -33 21 -60.5t40 -27.5q163 0 261 19t157 65q99 78 99 379z" />
    <glyph glyph-name="lacute" unicode="&#x13a;" horiz-adv-x="765" 
d="M233 1677l226 142q20 10 39 4q20 -6 30 -25q9 -18 2 -39q-9 -19 -28 -28l-250 -89zM88 55q131 0 152 43q24 40 24 264q0 242 -3.5 599t-8.5 391q-13 74 -35 92q-47 41 -149 41l-9 53q198 25 465 25v-1205q0 -204 25 -262q21 -41 149 -41l9 -57h-629z" />
    <glyph glyph-name="uni013B" unicode="&#x13b;" horiz-adv-x="1308" 
d="M1174 508v96l53 10v-614h-1118l10 55q54 0 90 4q53 6 80 58q13 23 20.5 133.5t7.5 236.5v517q0 310 -26 372q-24 52 -80 58q-36 4 -92 4l-10 53h686l-11 -53q-118 0 -155 -37q-22 -22 -34.5 -104t-12.5 -293v-549q0 -243 14 -322q6 -33 21 -60.5t40 -27.5q163 0 261 19
t157 65q99 78 99 379zM705 -70q49 0 76.5 -36t27.5 -101q0 -19 -5.5 -45t-20.5 -64t-50 -76.5t-86 -64.5l-22 41q67 27 112 109q26 54 23 76q-1 -1 -5.5 -4.5t-7.5 -6t-8.5 -6t-10 -5.5t-12 -3.5t-14.5 -1.5q-41 -3 -69 22q-27 27 -27 74q0 40 27.5 66t71.5 26z" />
    <glyph glyph-name="uni013C" unicode="&#x13c;" horiz-adv-x="798" 
d="M104 55q131 0 152 43q27 45 27 264q0 213 -5 584.5t-10 405.5q-12 72 -32 92q-47 41 -152 41l-6 53q198 25 465 25v-1205q0 -216 24 -262q21 -41 148 -41l10 -57h-629zM397 -94q51 0 78 -35.5t27 -101.5q0 -20 -4.5 -43.5t-17.5 -59.5t-45.5 -73t-80.5 -66l-14 -8l-21 43
l13 6q60 27 98 100q28 54 25 78q-27 -27 -58 -29q-40 -3 -71 25q-27 27 -27 72q0 40 27.5 66t70.5 26z" />
    <glyph glyph-name="Lcaron" unicode="&#x13d;" horiz-adv-x="1323" 
d="M1174 508v96l53 10v-614h-1118l10 55q54 0 90 4q53 6 80 58q13 23 20.5 133.5t7.5 236.5v517q0 310 -26 372q-24 52 -80 58q-36 4 -92 4l-10 53h686l-11 -53q-118 0 -155 -37q-22 -22 -34.5 -104t-12.5 -293v-549q0 -243 14 -322q6 -33 21 -60.5t40 -27.5q163 0 261 19
t157 65q99 78 99 379zM934 1466q15 -15 12 -36l-28 -271h-41l-29 271q0 24 14 38q15 18 37 15q21 0 35 -17z" />
    <glyph glyph-name="lcaron" unicode="&#x13e;" horiz-adv-x="759" 
d="M682 1573q15 -15 12 -39l-28 -268h-41l-27 270q-4 21 12 37q13 16 37 16q22 0 35 -16zM84 55q131 0 152 43q24 40 24 264q0 242 -3.5 599t-8.5 391q-13 74 -35 92q-44 41 -150 41l-8 53q202 25 467 25v-1205q0 -214 25 -262q18 -41 147 -41l11 -57h-631z" />
    <glyph glyph-name="Ldot" unicode="&#x13f;" horiz-adv-x="1318" 
d="M1174 508v96l53 10v-614h-1118l10 55q54 0 90 4q53 6 80 58q13 23 20.5 133.5t7.5 236.5v517q0 310 -26 372q-24 52 -80 58q-36 4 -92 4l-10 53h686l-11 -53q-118 0 -155 -37q-22 -22 -34.5 -104t-12.5 -293v-549q0 -243 14 -322q6 -33 21 -60.5t40 -27.5q163 0 261 19
t157 65q99 78 99 379zM840 903q44 0 76 -33t32 -77t-32 -76.5t-76 -32.5q-42 0 -78 31q-33 38 -33 78q0 39 33 77q38 33 78 33z" />
    <glyph glyph-name="ldot" unicode="&#x140;" horiz-adv-x="841" 
d="M88 55q131 0 152 43q24 48 24 264q0 242 -3.5 599t-8.5 391q-13 74 -35 92q-47 41 -149 41l-9 53q198 25 465 25v-1205q0 -204 25 -262q21 -41 149 -41l9 -57h-629zM733 893q44 0 76.5 -32.5t32.5 -76.5q0 -46 -31.5 -77t-77.5 -31t-78 31t-32 77t32 77.5t78 31.5z" />
    <glyph glyph-name="Lslash" unicode="&#x141;" horiz-adv-x="1312" 
d="M616 965h105l-137 -138v-372q0 -243 14 -322q6 -33 21 -60.5t40 -27.5q163 0 261 19t157 65q99 78 99 379v96l53 10v-614h-1118l10 55q54 0 90 4q53 6 80 58q13 23 20.5 133.5t7.5 236.5v76l-36 -39h-105l141 142v338q0 310 -26 372q-24 52 -80 58q-36 4 -92 4l-10 53
h686l-11 -53q-118 0 -155 -37q-22 -22 -34.5 -104t-12.5 -293v-74z" />
    <glyph glyph-name="lslash" unicode="&#x142;" horiz-adv-x="802" 
d="M106 55q59 0 100.5 11.5t51.5 31.5q27 52 27 267q0 21 -1 100t-1 131l-41 -41h-109l150 147q-4 602 -13 650q-11 68 -32 94q-47 41 -152 41l-6 53q213 23 465 23v-596l43 43h106l-149 -152v-498q0 -222 24 -262q9 -20 49.5 -31.5t98.5 -11.5l10 -55h-629z" />
    <glyph glyph-name="Nacute" unicode="&#x143;" horiz-adv-x="1681" 
d="M686 1661l232 143q19 12 38 6q21 -6 31 -26q11 -22 2 -39q-10 -23 -28 -29l-259 -92zM1624 1434q-39 0 -64 -2t-52.5 -10t-44.5 -22.5t-31.5 -39.5t-22.5 -62q-8 -39 -8 -229v-827l192 -242h-340l-934 1174q0 -927 11 -981q17 -85 66 -111.5t145 -26.5l10 -55h-512l10 55
q37 0 63 2.5t53 10.5t45 23t32.5 40.5t21.5 61.5q8 38 8 217v598q0 233 -12 290q-9 46 -26 74.5t-46.5 41.5t-58.5 16.5t-80 3.5l-10 53h362l953 -1188v768q0 177 -11 231q-8 37 -22.5 62t-31.5 39.5t-44.5 22.5t-52.5 10t-64 2l-10 53h516z" />
    <glyph glyph-name="nacute" unicode="&#x144;" horiz-adv-x="1441" 
d="M573 1176l226 139q19 13 39 6q20 -6 30 -25q10 -20 0 -39q-5 -17 -26 -28l-250 -88zM915 98q23 53 23 277v287q0 157 -27.5 238t-89.5 81q-59 0 -113.5 -90.5t-90 -225t-58 -254t-31.5 -210.5q-4 -58 25 -105q11 -19 50.5 -30t96.5 -11l11 -55h-625l8 55q59 0 100.5 11.5
t51.5 31.5q24 46 24 262v166q0 179 -12.5 277.5t-48.5 124.5q-32 24 -135 24l-6 54q172 22 460 22v-461l-47 -303h17l34 213q25 126 53 220t65.5 172t86 118.5t107.5 40.5q175 0 263.5 -83.5t88.5 -262.5v-326q0 -206 27 -258q10 -20 50.5 -31.5t96.5 -11.5l10 -55h-622
l10 55q128 0 147 43z" />
    <glyph glyph-name="uni0145" unicode="&#x145;" horiz-adv-x="1675" 
d="M1628 1434q-39 0 -64 -2t-52.5 -10t-44.5 -22.5t-31.5 -39.5t-22.5 -62q-8 -39 -8 -229v-827l192 -242h-340l-933 1174q0 -932 10 -981q17 -85 66 -111.5t145 -26.5l10 -55h-512l10 55q37 0 63 2.5t53 10.5t45 23t32.5 40.5t21.5 61.5q8 38 8 217v598q0 233 -12 290
q-9 46 -26 74.5t-46.5 41.5t-58.5 16.5t-80 3.5l-10 53h363l952 -1188v768q0 182 -10 231q-8 37 -22.5 62t-31.5 39.5t-44.5 22.5t-52.5 10t-64 2l-11 53h516zM836 -70q51 0 77.5 -35t26.5 -100q0 -20 -5.5 -45.5t-20 -63.5t-50 -76.5t-86.5 -64.5l-20 41q67 25 110 109
q28 52 25 76q-27 -27 -57 -29q-43 0 -71 26t-28 70q0 41 28 66.5t71 25.5z" />
    <glyph glyph-name="uni0146" unicode="&#x146;" horiz-adv-x="1441" 
d="M915 98q23 53 23 277v287q0 157 -27.5 238t-89.5 81q-59 0 -113.5 -90.5t-90 -225t-58 -254t-31.5 -210.5q-4 -58 25 -105q11 -19 50.5 -30t96.5 -11l11 -55h-625l8 55q59 0 100.5 11.5t51.5 31.5q24 46 24 262v166q0 179 -12.5 277.5t-48.5 124.5q-32 24 -135 24l-6 54
q172 22 460 22v-461l-47 -303h17l34 213q25 126 53 220t65.5 172t86 118.5t107.5 40.5q175 0 263.5 -83.5t88.5 -262.5v-326q0 -206 27 -258q10 -20 50.5 -31.5t96.5 -11.5l10 -55h-622l10 55q128 0 147 43zM719 -96q51 0 78.5 -35.5t27.5 -101.5q0 -19 -4.5 -42.5
t-18 -59.5t-46 -73.5t-80.5 -66.5l-12 -8l-23 43l14 6q58 30 99 100q25 56 22 78q-27 -27 -57 -29q-45 0 -70 25q-26 23 -26 72q0 41 26.5 66.5t69.5 25.5z" />
    <glyph glyph-name="Ncaron" unicode="&#x147;" horiz-adv-x="1693" 
d="M803 1630l-160 170l27 31l178 -123l180 123l27 -31l-162 -172q-18 -18 -45 -18q-31 0 -45 20zM1638 1434q-39 0 -64 -2t-52.5 -10t-44.5 -22.5t-31.5 -39.5t-22.5 -62q-8 -39 -8 -229v-827l193 -242h-340l-934 1174q0 -932 10 -981q17 -85 66 -111.5t145 -26.5l10 -55
h-512l10 55q37 0 63 2.5t53.5 10.5t45.5 23t32.5 40.5t21.5 61.5q8 38 8 217v598q0 228 -13 290q-9 46 -26 74.5t-46.5 41.5t-58.5 16.5t-80 3.5l-10 53h363l952 -1188v768q0 182 -10 231q-8 37 -22.5 62t-31.5 39.5t-44.5 22.5t-52.5 10t-64 2l-10 53h516z" />
    <glyph glyph-name="ncaron" unicode="&#x148;" horiz-adv-x="1443" 
d="M770 1321l160 -172l-27 -31l-180 125l-180 -125l-25 31l160 172q20 20 45 20q27 0 47 -20zM915 98q23 53 23 277v287q0 157 -27.5 238t-89.5 81q-59 0 -113.5 -90.5t-90 -225t-58 -254t-31.5 -210.5q-4 -58 25 -105q11 -19 50.5 -30t96.5 -11l11 -55h-625l8 55
q59 0 100.5 11.5t51.5 31.5q24 46 24 262v166q0 179 -12.5 277.5t-48.5 124.5q-32 24 -135 24l-6 54q172 22 460 22v-461l-47 -303h17l34 213q25 126 53 220t65.5 172t86 118.5t107.5 40.5q175 0 263.5 -83.5t88.5 -262.5v-326q0 -206 27 -258q10 -20 50.5 -31.5t96.5 -11.5
l10 -55h-622l10 55q128 0 147 43z" />
    <glyph glyph-name="Omacron" unicode="&#x14c;" horiz-adv-x="1761" 
d="M715 1720h329v-78h-329v78zM881 1511q174 0 325 -49.5t265 -142.5t179.5 -237t65.5 -322q0 -174 -66 -321t-180 -245.5t-266 -154.5t-323 -59q-137 2 -262.5 37.5t-230 103t-182 160t-120.5 215.5t-43 264q0 178 66 322t180.5 237t266 142.5t325.5 49.5zM881 27
q115 2 208.5 45.5t155 113.5t103 164t59.5 193t18 205q0 99 -18 196.5t-59.5 192.5t-102.5 166.5t-155 116t-209 44.5q-114 0 -208 -44.5t-155 -116t-103.5 -166.5t-60.5 -192.5t-18 -196.5q0 -106 18 -205t59.5 -193t103 -164t155 -113.5t209.5 -45.5z" />
    <glyph glyph-name="omacron" unicode="&#x14d;" horiz-adv-x="1175" 
d="M422 1229h328v-78h-328v78zM580 1026q156 0 284 -63t204.5 -184t76.5 -279t-73.5 -278.5t-199 -183.5t-282.5 -63q-116 0 -219 37t-179 104.5t-120.5 167t-44.5 218.5q0 157 73 277.5t198 183.5t282 63zM309 502q0 -222 84.5 -352t196.5 -130q69 0 123.5 46t85.5 119.5
t47 154t16 160.5q0 93 -16 176t-48.5 152t-88 110t-127.5 41q-119 0 -196 -137t-77 -340z" />
    <glyph glyph-name="Obreve" unicode="&#x14e;" horiz-adv-x="1757" 
d="M961 1759h83v-14q0 -57 -47.5 -97t-115.5 -40q-69 0 -117.5 40t-48.5 97v14h84l-2 -16q0 -43 20.5 -68.5t63.5 -25.5q37 0 60.5 23.5t23.5 60.5q0 2 -1 5t-1 5zM881 1505q174 0 325 -49.5t265 -142.5t179.5 -237t65.5 -322q0 -174 -66.5 -321t-180.5 -246t-265.5 -155
t-322.5 -59q-171 3 -323.5 59t-267 155t-181 246t-66.5 321q0 178 66 322t180.5 237t266 142.5t325.5 49.5zM881 20q115 2 208.5 45.5t155 113.5t103 164t59.5 193t18 205q0 99 -18 196.5t-59.5 193t-102.5 168t-155 117t-209 44.5q-114 0 -208 -44.5t-155 -117t-103.5 -168
t-60.5 -193t-18 -196.5q0 -106 18 -205t59.5 -193t103 -164t155 -113.5t209.5 -45.5z" />
    <glyph glyph-name="obreve" unicode="&#x14f;" horiz-adv-x="1173" 
d="M666 1274h86v-17q0 -56 -48.5 -95.5t-117.5 -39.5q-68 0 -117 40t-49 95v17h86q-4 -15 -4 -27q0 -37 23.5 -60.5t60.5 -23.5t60.5 23.5t23.5 60.5zM580 1026q156 0 284 -62.5t204.5 -183t76.5 -278.5q0 -159 -73 -279.5t-198.5 -183t-283.5 -62.5q-155 0 -282.5 63
t-204 184t-76.5 278t73 277.5t198 183.5t282 63zM309 504q0 -223 84 -352t197 -129q69 0 123.5 46t85.5 118.5t47 153t16 159.5q0 93 -16 177t-48.5 153t-88 110t-127.5 41q-78 0 -141 -63.5t-97.5 -172.5t-34.5 -241z" />
    <glyph glyph-name="Ohungarumlaut" unicode="&#x150;" horiz-adv-x="1740" 
d="M1024 1851q18 -14 18 -34q3 -20 -10 -37l-176 -195l-33 25l131 225q9 18 31 25q24 3 39 -9zM918 1817q3 -21 -13 -37l-176 -195l-31 25l131 225q9 18 31 25q16 2 39 -9q16 -13 19 -34zM870 1511q173 0 324.5 -50t266.5 -143t181 -237t66 -321q0 -141 -43 -264
t-120.5 -215.5t-182 -160t-230 -103t-262.5 -37.5q-172 3 -324 58.5t-265.5 154t-179.5 245.5t-66 322q0 178 65.5 322t179.5 237t265 142.5t325 49.5zM870 27q116 2 209.5 45.5t155 113.5t103 164t59.5 193t18 205q0 99 -18 196.5t-59.5 192.5t-102.5 166.5t-155.5 116
t-209.5 44.5q-113 0 -207 -44.5t-155 -116t-103 -166.5t-60.5 -192.5t-18.5 -196.5q0 -106 18 -205t59.5 -193t103 -164t155 -113.5t208.5 -45.5z" />
    <glyph glyph-name="ohungarumlaut" unicode="&#x151;" horiz-adv-x="1163" 
d="M631 1327q3 -21 -13 -37l-176 -194l-30 22l131 228q9 19 30 22q19 5 39 -8q16 -9 19 -33zM737 1360q19 -11 19 -33q3 -20 -11 -37l-176 -194l-32 22l131 228q9 19 30 22q21 6 39 -8zM578 1028q156 0 284 -63t204.5 -184t76.5 -279t-73.5 -278.5t-199 -183.5t-282.5 -63
q-116 0 -219 37t-179 104.5t-120.5 167t-44.5 218.5q0 157 73 277.5t198 183.5t282 63zM307 504q0 -222 84.5 -351.5t196.5 -129.5q69 0 123.5 46t85.5 119t47 153.5t16 160.5q0 93 -16 176.5t-48.5 152.5t-88 109.5t-127.5 40.5q-119 0 -196 -137t-77 -340z" />
    <glyph glyph-name="OE" unicode="&#x152;" horiz-adv-x="2265" 
d="M2222 541v-541h-1169q-85 -17 -189 -20q-171 3 -323 59t-266 154.5t-180 245.5t-66 321q0 178 65.5 322t179.5 237t265 142.5t325 49.5q93 0 203 -20h1077v-502l-49 8v133q0 316 -487 316h-84v-674q166 0 244 20.5t114 77.5q22 34 33.5 116t11.5 149l45 14v-799l-45 12
q0 83 -6.5 139.5t-26.5 99t-46.5 66t-75.5 37.5t-105 18.5t-143 4.5v-270q0 -261 14 -324q12 -65 59 -86q118 0 203 9.5t151 33t107 58.5t67.5 91t37 126t10.5 167zM319 748q0 -106 18 -205t60 -193t103.5 -164t155 -113.5t208.5 -45.5q238 6 381 178q12 88 12 282v519
q0 198 -8 274q-143 184 -385 184q-113 0 -207 -44.5t-155.5 -116t-103.5 -166.5t-60.5 -192.5t-18.5 -196.5z" />
    <glyph glyph-name="oe" unicode="&#x153;" horiz-adv-x="1820" 
d="M1786 526h-643v-20q0 -62 6 -117q78 53 179 84t194 31q47 0 88.5 -9.5t78.5 -30t58.5 -57.5t21.5 -88q0 -71 -35 -135t-91 -107.5t-125.5 -69t-137.5 -25.5q-224 0 -379 155l-8 -8q-152 -152 -405 -152q-116 0 -219 37t-179 103.5t-120.5 166t-44.5 218.5q0 159 72 279.5
t196.5 183.5t281.5 63q255 0 412 -151q5 -5 8 -5l4 5q131 155 342 155q142 0 244.5 -66t151.5 -175.5t49 -249.5v-15zM1339 989q-55 0 -95.5 -48.5t-60.5 -121.5t-29.5 -136t-10.5 -114h366q-1 49 -4 95t-14 108.5t-28 107.5t-49 77t-75 32zM588 23q69 0 123.5 46
t85.5 118.5t47 153t16 159.5q0 93 -16.5 177t-49.5 153t-88.5 110t-127.5 41q-78 0 -140 -63t-96.5 -172t-34.5 -242q0 -222 84.5 -351.5t196.5 -129.5zM1724 319q0 40 -19 69t-51.5 43.5t-66.5 21t-71 6.5q-91 0 -189.5 -33t-171.5 -88q22 -144 84 -226.5t158 -82.5
q75 0 150.5 38.5t126 106.5t50.5 145z" />
    <glyph glyph-name="Racute" unicode="&#x154;" horiz-adv-x="1429" 
d="M528 1661l232 143q19 12 41 6q20 -7 30 -26q10 -20 0 -39q-7 -23 -28 -29l-256 -92zM909 731q9 -113 44 -231t92.5 -227.5t145.5 -197t193 -128.5l-34 -37q-304 75 -486.5 280t-224.5 539h-82v-244q0 -223 12 -303q12 -73 33 -90q46 -37 158 -37l10 -55h-686l10 55
q110 0 154 35q32 27 39 193q4 90 4 202v529q0 230 -12 303q-13 72 -31 86q-45 31 -154 31l-10 57h592q269 0 406 -93.5t137 -277.5q0 -68 -29 -131t-86.5 -117.5t-154.5 -91.5t-222 -47zM557 1444v-668h115q64 0 113.5 24t77.5 60t46.5 84t24.5 89t6 81q0 160 -70 245
t-194 85h-119z" />
    <glyph glyph-name="racute" unicode="&#x155;" horiz-adv-x="1007" 
d="M451 1176l225 139q19 13 39 6q20 -6 30 -25q9 -19 0 -41q-7 -19 -26 -26l-252 -90zM1006 944l26 -31l-235 -225l-25 31q43 88 43 162q0 34 -11.5 63t-31.5 29q-27 0 -64.5 -67t-73 -172t-63.5 -251t-34 -288q0 -20 13 -62t38 -61q25 -17 123 -17l8 -55h-621l8 55
q80 0 107 6q29 8 44 55.5t17 90.5q5 107 5 207v121q0 144 -11 249.5t-30 128.5q-29 37 -152 37l-6 54q184 24 457 24v-461l-45 -303h14l33 213q48 261 120 417.5t150 156.5q60 0 99 -29.5t53 -85.5z" />
    <glyph glyph-name="uni0156" unicode="&#x156;" horiz-adv-x="1431" 
d="M911 731q9 -113 44 -231t92.5 -227.5t145.5 -197t193 -128.5l-34 -37q-304 75 -486.5 280t-224.5 539h-82v-244q0 -223 12 -303q12 -73 33 -90q46 -37 158 -37l10 -55h-686l10 55q110 0 154 35q32 27 39 193q4 90 4 202v529q0 230 -12 303q-13 72 -31 86q-45 31 -154 31
l-10 57h592q269 0 406 -93.5t137 -277.5q0 -68 -29 -131t-86.5 -117.5t-154.5 -91.5t-222 -47zM559 1444v-668h115q64 0 113.5 24t77.5 60t46.5 84t24.5 89t6 81q0 160 -70 245t-194 85h-119zM848 -68q49 0 76.5 -36t27.5 -101q0 -20 -5.5 -45.5t-20 -63.5t-49.5 -76.5
t-86 -64.5l-21 41q34 15 63.5 44.5t47.5 64.5q26 47 22 76q-27 -27 -57 -27q-42 -3 -70 25q-26 26 -26 71q0 40 27.5 66t70.5 26z" />
    <glyph glyph-name="uni0157" unicode="&#x157;" horiz-adv-x="1005" 
d="M1006 944l26 -31l-235 -225l-25 31q43 88 43 162q0 34 -11.5 63t-31.5 29q-27 0 -64.5 -67t-73 -172t-63.5 -251t-34 -288q0 -20 13 -62t38 -61q25 -17 123 -17l8 -55h-621l8 55q80 0 107 6q29 8 44 55.5t17 90.5q5 107 5 207v121q0 144 -11 249.5t-30 128.5
q-29 37 -152 37l-6 54q184 24 457 24v-461l-45 -303h14l33 213q48 261 120 417.5t150 156.5q60 0 99 -29.5t53 -85.5zM422 -94q51 0 78.5 -36t27.5 -101q0 -20 -4.5 -43.5t-18 -59.5t-46 -73t-80.5 -66l-14 -8l-21 41l14 8q58 27 99 100q25 55 22 76q-1 -1 -6.5 -6
t-9.5 -7.5t-10.5 -6t-14 -5.5t-16.5 -2q-45 -3 -70 25q-26 23 -26 72q0 40 27 66t69 26z" />
    <glyph glyph-name="Rcaron" unicode="&#x158;" horiz-adv-x="1435" 
d="M694 1812l158 -172l-25 -30l-180 125l-180 -125l-27 30l162 172q21 21 45 21q26 0 47 -21zM913 733q9 -113 44 -231t92.5 -227.5t146 -197t193.5 -128.5l-35 -37q-304 75 -486.5 280t-224.5 539h-82v-244q0 -224 12 -303q12 -73 33 -90q46 -37 158 -37l10 -55h-686l10 55
q110 0 154 35q32 27 39 193q4 90 4 202v529q0 230 -12 303q-13 72 -31 86q-45 31 -154 31l-10 57h592q269 0 406 -93.5t137 -277.5q0 -68 -29 -131t-86.5 -117.5t-154.5 -91.5t-222 -47zM561 1446v-668h115q64 0 113.5 24t77.5 60t46.5 84t24.5 89t6 81q0 160 -70 245
t-194 85h-119z" />
    <glyph glyph-name="rcaron" unicode="&#x159;" horiz-adv-x="1005" 
d="M541 1139l-158 172l25 30l180 -124l180 124l27 -30l-162 -172q-21 -21 -45 -21q-26 0 -47 21zM1004 944l26 -31l-235 -225l-25 31q43 88 43 162q0 34 -11.5 63t-31.5 29q-27 0 -64.5 -67t-73 -172t-63.5 -251t-34 -288q0 -20 13 -62t38 -61q25 -17 123 -17l8 -55h-621
l8 55q80 0 107 6q29 8 44 55.5t17 90.5q4 86 4 207v121q0 145 -11 250t-29 128q-29 37 -152 37l-6 54q184 24 457 24v-461l-46 -303h15l33 213q48 261 120 417.5t150 156.5q123 0 151 -115z" />
    <glyph glyph-name="Sacute" unicode="&#x15a;" horiz-adv-x="1146" 
d="M383 1661l231 143q19 12 41 6q22 -7 31 -26t0 -41q-7 -21 -29 -27l-256 -92zM608 868q54 -30 84.5 -48t79 -50t77 -57.5t62.5 -64t52.5 -76t31.5 -86.5t13 -103q0 -188 -155.5 -295.5t-406.5 -107.5q-59 0 -110 15t-83.5 36.5t-59.5 50.5t-40.5 50.5t-23.5 43.5l49 21
q37 -80 108 -126t158 -46q147 0 228.5 84.5t81.5 224.5q0 30 -10.5 59t-23.5 51t-42.5 49.5t-49 43.5t-63 43.5t-64 40t-71.5 41.5q-54 31 -85 50t-79 51t-76.5 58t-62.5 63.5t-52.5 74t-31 84t-12.5 98.5q0 91 46.5 164t121.5 116.5t163.5 66.5t180.5 23q90 0 169 -25
t130 -59t94 -80.5t63 -78t35 -62.5l64 13l26 -31l-299 -285l-28 37q24 24 46.5 85t22.5 120q0 11 -1.5 28t-9 49t-20 62.5t-37.5 64t-57.5 58.5t-84 41t-113.5 16t-109 -16.5t-74.5 -41.5t-44.5 -60.5t-22.5 -68t-5.5 -69.5q0 -33 9.5 -63.5t24 -55.5t40.5 -51t49.5 -45.5
t61.5 -44t65 -40t71 -40.5z" />
    <glyph glyph-name="sacute" unicode="&#x15b;" horiz-adv-x="862" 
d="M281 1167l225 142q16 9 39 6q17 -6 28 -27q9 -18 2 -39q-10 -20 -28 -26l-250 -90zM479 621q113 -70 159 -114q121 -114 101 -269q-9 -68 -41 -119t-74.5 -78.5t-99 -43.5t-106 -19.5t-103.5 -0.5q-70 6 -109 25q-81 39 -110 127l45 14q15 -39 40 -65.5t53 -37t46 -14
t35 -3.5q77 0 122.5 41.5t45.5 154.5q0 38 -11.5 67.5t-43.5 57t-50.5 39.5t-69.5 41q-5 3 -9 5.5t-8 4.5q-55 30 -91.5 55t-79 66.5t-62.5 95t-15 117.5q4 58 30.5 104t65.5 74t89 46t96.5 25t93.5 7q230 0 336 -211l45 8l24 -26l-235 -224l-27 31q23 37 35 119
q4 31 -2.5 73.5t-22.5 85.5t-51 73t-82 30q-135 0 -135 -147q0 -37 12.5 -67t40.5 -57t53 -45t70 -46z" />
    <glyph glyph-name="Scircumflex" unicode="&#x15c;" horiz-adv-x="1173" 
d="M600 1812l160 -172l-27 -30l-178 123l-180 -123l-27 30l162 172q16 19 45 19t45 -19zM625 868q46 -26 73.5 -42t70.5 -43t69 -49t59 -52.5t53 -61t38.5 -67.5t27 -80t8.5 -90q0 -188 -155 -295.5t-406 -107.5q-59 0 -110 15t-84 36.5t-60 50.5t-40.5 50.5t-23.5 43.5
l50 21q37 -80 108 -126t158 -46q147 0 228 84.5t81 224.5q0 30 -10.5 59t-23.5 51t-42.5 49.5t-49 43.5t-63 43.5t-64 40t-71.5 41.5q-54 31 -85 50t-79 51t-76.5 58t-62.5 63.5t-52.5 74t-31 84t-12.5 98.5q0 91 46.5 164t121.5 116.5t163.5 66.5t180.5 23q90 0 169 -25
t130.5 -59.5t94.5 -80.5t63.5 -77.5t34.5 -62.5l63 13l27 -31l-299 -285l-29 37q24 24 47 85t23 120q0 11 -1.5 28t-9.5 49t-20.5 62.5t-37 64t-57.5 58.5t-84.5 41t-113.5 16t-109 -16.5t-74.5 -41.5t-44.5 -60.5t-22.5 -68t-5.5 -69.5q0 -45 19 -87t44.5 -72.5t74 -66
t85 -57.5t99.5 -57z" />
    <glyph glyph-name="scircumflex" unicode="&#x15d;" horiz-adv-x="819" 
d="M455 1317l159 -170l-26 -31l-178 123l-181 -123l-26 31l162 172q15 18 45 18q31 0 45 -20zM459 621q113 -70 159 -114q121 -114 101 -269q-9 -68 -41 -119t-74.5 -78.5t-99 -43.5t-106 -19.5t-103.5 -0.5q-70 6 -109 25q-81 39 -110 127l45 14q15 -39 40 -65.5t53 -37
t46 -14t35 -3.5q77 0 122.5 41.5t45.5 154.5q0 38 -12 67.5t-43 56.5t-51 40t-68 40q-13 7 -19 11q-42 23 -72 42t-68 51t-60.5 64.5t-36.5 78.5t-10 98q4 58 30.5 104t65 74t88.5 46t96.5 25t93.5 7q231 0 336 -211l45 8l25 -26l-236 -224l-26 31q22 37 34 119
q4 31 -2 73.5t-22.5 85.5t-51 73t-81.5 30q-135 0 -135 -147q0 -37 12.5 -67t40.5 -57t53 -45t70 -46z" />
    <glyph glyph-name="Scedilla" unicode="&#x15e;" horiz-adv-x="1173" 
d="M522 -51q138 -4 211.5 -67t73.5 -144q0 -59 -23.5 -104.5t-61 -70.5t-77 -37.5t-78.5 -12.5q-61 0 -112.5 28t-81.5 80l-2 4l39 37l6 -6q52 -76 135 -76q51 0 83 40t32 104q0 73 -49 113t-154 52h-8l28 88q-115 0 -201 48t-130 149l49 21q37 -80 108 -126t158 -46
q147 0 228 84.5t81 224.5q0 26 -6 50.5t-22 48t-29.5 41.5t-43 41.5t-46.5 37t-57 38t-56.5 34.5t-62.5 36q-53 31 -85 50t-79.5 51t-76.5 58t-63 64t-52.5 74.5t-31 84t-12.5 98.5q0 91 46.5 164t121.5 116.5t163.5 66.5t180.5 23q90 0 169 -25t130.5 -59.5t94.5 -80.5
t63.5 -77.5t34.5 -62.5l63 13l27 -31l-299 -285l-29 37q24 24 47 85t23 120q0 11 -1.5 28t-9.5 49t-20.5 62.5t-37 64t-57.5 58.5t-84.5 41t-113.5 16t-109 -16.5t-74.5 -41.5t-44.5 -60.5t-22.5 -68t-5.5 -69.5q0 -45 19 -87t44.5 -72.5t74 -66t85 -57.5t99.5 -57
q46 -26 73.5 -42t70.5 -43t69 -49t59 -52.5t53 -61t38.5 -67.5t27 -80t8.5 -90q0 -176 -136 -281.5t-362 -119.5z" />
    <glyph glyph-name="scedilla" unicode="&#x15f;" horiz-adv-x="843" 
d="M410 -47q99 -4 151.5 -50.5t52.5 -105.5q0 -44 -17.5 -78.5t-45 -53t-57 -27.5t-58.5 -9q-44 0 -82 22t-61 60l-4 4l35 31l6 -6q35 -55 94 -55q35 0 57.5 28t22.5 72q0 117 -150 117h-10l27 78h-60q-66 6 -102 21q-86 36 -117 130l45 14q15 -39 40 -65.5t53 -37t46 -14
t35 -3.5q77 0 122.5 41.5t45.5 154.5q0 38 -11.5 67.5t-43.5 57t-50.5 39.5t-69.5 41q-5 3 -9 5.5t-8 4.5q-55 30 -91.5 55t-79 66.5t-62.5 95t-15 117.5q4 58 30.5 104t65.5 74t89 46t96.5 25t93.5 7q230 0 336 -211l45 8l24 -26l-235 -224l-27 31q23 37 35 119
q4 31 -2.5 73.5t-22.5 85.5t-51 73t-82 30q-135 0 -135 -147q0 -37 12.5 -67t40.5 -57t53 -45t70 -46q113 -70 159 -114q121 -114 101 -269q-31 -234 -315 -258z" />
    <glyph glyph-name="Scaron" unicode="&#x160;" horiz-adv-x="1167" 
d="M485 1630l-157 170l24 31l180 -123l181 123l26 -31l-161 -170q-17 -20 -46 -20q-27 0 -47 20zM633 868q46 -26 73.5 -42t70.5 -43t69 -49t59 -52.5t53 -61t38.5 -67.5t27 -80t8.5 -90q0 -188 -155 -295.5t-406 -107.5q-59 0 -110 15t-83.5 36.5t-59.5 50.5t-40.5 50.5
t-23.5 43.5l49 21q37 -80 108 -126t158 -46q147 0 228 84.5t81 224.5q0 35 -11 66.5t-37.5 62t-49 52t-69.5 52.5t-73 46.5t-83 48.5q-47 27 -74.5 43.5t-70.5 44t-69 49.5t-59 52.5t-53 60.5t-38.5 66t-27 77t-8.5 86q0 91 46.5 164t121.5 116.5t163.5 66.5t180.5 23
q90 0 169 -25t130.5 -59.5t94.5 -80.5t63.5 -77.5t34.5 -62.5l63 13l27 -31l-299 -285l-29 37q24 24 47 85t23 120q0 11 -1.5 28t-9.5 49t-20.5 62.5t-37 64t-57.5 58.5t-84.5 41t-113.5 16t-109 -16.5t-74.5 -41.5t-44.5 -60.5t-22.5 -68t-5.5 -69.5q0 -45 19 -87
t44.5 -72.5t74 -66t85 -57.5t99.5 -57z" />
    <glyph glyph-name="scaron" unicode="&#x161;" horiz-adv-x="839" 
d="M375 1137l-160 170l27 30l178 -123l180 123l27 -30l-160 -172q-19 -19 -47 -19q-27 0 -45 21zM471 621q113 -70 159 -114q121 -114 101 -269q-9 -68 -41 -119t-74.5 -78.5t-99 -43.5t-106 -19.5t-103.5 -0.5q-70 6 -109 25q-81 39 -110 127l45 14q15 -39 40 -65.5t53 -37
t46 -14t35 -3.5q77 0 122.5 41.5t45.5 154.5q0 38 -11.5 67.5t-43.5 57t-50.5 39.5t-69.5 41q-5 3 -9 5.5t-8 4.5q-55 30 -91.5 55t-79 66.5t-62.5 95t-15 117.5q4 58 30.5 104t65.5 74t89 46t96.5 25t93.5 7q230 0 335 -211l46 8l24 -26l-235 -224l-27 31q23 37 35 119
q4 31 -2.5 73.5t-22.5 85.5t-51 73t-82 30q-135 0 -135 -147q0 -37 12.5 -67t40.5 -57t53 -45t70 -46z" />
    <glyph glyph-name="uni0162" unicode="&#x162;" horiz-adv-x="1372" 
d="M713 -49q138 -6 211 -68t73 -143q0 -59 -23.5 -105t-60.5 -71.5t-76.5 -38t-78.5 -12.5q-60 0 -112 28.5t-81 79.5l-4 6l41 37l4 -8q57 -76 135 -76q51 0 83 40t32 104q0 75 -49 115t-154 52h-8l37 109h-383l10 55h6q38 0 57.5 1t49 4.5t45.5 12.5t34 24t28 39.5t16 58.5
q10 75 10 292v957q-102 -1 -176.5 -12t-127.5 -36t-85.5 -58t-51.5 -85t-25.5 -109.5t-6.5 -139.5v-9l-57 -8v504h1327v-504l-58 8v9q0 82 -7 139.5t-25.5 109.5t-52 85t-86 58t-127.5 36t-177 12v-957q0 -214 10 -292q5 -31 22.5 -65t41.5 -50q34 -25 166 -25h8l8 -55h-344
z" />
    <glyph glyph-name="uni0163" unicode="&#x163;" horiz-adv-x="655" 
d="M586 164l45 -8q-24 -92 -96.5 -136.5t-174.5 -44.5l-6 -18q99 -6 152 -52.5t53 -105.5q0 -44 -17.5 -78t-45 -52.5t-57 -28t-58.5 -9.5q-44 0 -82 22t-61 60l-5 6l35 31l4 -6q40 -55 97 -55q35 0 57.5 28t22.5 72q0 57 -38.5 87t-111.5 30h-10l26 74q-76 14 -124 61
t-48 109v802h-125v54q37 0 88 16.5t104 47t92 82.5t44 114h2l58 2v-262h208v-54h-208v-794q0 -63 13.5 -89t45.5 -26q33 0 70 34.5t51 86.5z" />
    <glyph glyph-name="Tcaron" unicode="&#x164;" horiz-adv-x="1355" 
d="M633 1630l-160 172l27 29l178 -123l180 123l27 -31l-160 -170q-20 -20 -47 -20q-25 0 -45 20zM16 1491h1327v-504l-57 8v9q0 82 -7 139.5t-25.5 109.5t-52 85t-86 58t-127.5 36t-177 12v-957q0 -214 10 -292q5 -31 22.5 -65t41.5 -50q34 -25 166 -25h8l8 -55h-776l10 55
h6q38 0 57.5 1t49 4.5t45.5 12.5t34 24t28 39.5t16 58.5q10 75 10 292v957q-102 -1 -176.5 -12t-127.5 -36t-85.5 -58t-51.5 -85t-25.5 -109.5t-6.5 -139.5v-9l-58 -8v504z" />
    <glyph glyph-name="tcaron" unicode="&#x165;" horiz-adv-x="657" 
d="M547 1403q15 -15 12 -39l-29 -268h-41l-26 270q-4 21 12 37q13 16 37 16q22 0 35 -16zM590 164l45 -8q-5 -20 -14 -39.5t-29 -46t-47.5 -46t-73 -33.5t-100.5 -14q-94 0 -159 50.5t-65 122.5v804h-124v54q36 0 87 16.5t104 46.5t92 82t44 113h2l58 4v-262h206v-54h-206
v-796q0 -64 13 -89.5t46 -25.5q32 0 68 34.5t53 86.5z" />
    <glyph glyph-name="Tbar" unicode="&#x166;" horiz-adv-x="1368" 
d="M391 786h162v658q-102 -1 -176.5 -12t-127.5 -36t-85.5 -58t-51.5 -85t-25.5 -109.5t-6.5 -139.5v-9l-57 -8v504h1327v-504l-58 8v9q0 82 -7 139.5t-25.5 109.5t-52 85t-86 58t-127.5 36t-177 12v-658h166v-77h-166v-222q0 -214 10 -292q5 -31 22.5 -65t41.5 -50
q34 -25 166 -25h8l8 -55h-776l10 55h6q38 0 57.5 1t49 4.5t45.5 12.5t34 24t28 39.5t16 58.5q10 75 10 292v222h-162v77z" />
    <glyph glyph-name="tbar" unicode="&#x167;" horiz-adv-x="655" 
d="M586 162l47 -8q-5 -20 -14 -39.5t-29 -46t-47.5 -46t-73 -33.5t-100.5 -14q-95 0 -159.5 50t-64.5 122v418h-116v80h116v307h-125v54q36 0 87 16.5t104 46.5t92.5 82t44.5 113l58 4v-262h208v-54h-208v-307h133v-80h-133v-409q0 -63 13.5 -89t47.5 -26q32 0 68.5 34.5
t50.5 86.5z" />
    <glyph glyph-name="Utilde" unicode="&#x168;" horiz-adv-x="1603" 
d="M1069 1761v-10q3 -33 -12 -57q-10 -22 -33 -34.5t-49 -12.5q-11 0 -35 4q-32 10 -49 18q-1 1 -11 6.5t-16 7.5q-2 1 -6 3.5t-6 3.5q-20 10 -29 10q-5 0 -10.5 -3.5t-9 -7t-9.5 -10t-8 -8.5l-8 -8l-30 12v11q0 37 21.5 63.5t57.5 30.5q26 0 56 -13l4 -2q12 -5 43 -20h2
q14 -8 33 -16q20 -5 24 -5q5 0 19 9q7 5 22 28l4 8zM1094 1491h512l-9 -55q-52 0 -81 -4t-56 -17.5t-42 -41.5t-25 -75q-21 -88 -21 -297v-407q0 -135 -34.5 -246t-102 -194t-175 -128.5t-247.5 -45.5q-295 0 -447.5 150.5t-152.5 440.5v433q0 229 -14 303q-12 76 -33 92
q-43 37 -156 37l-8 55h682l-10 -55q-38 0 -61 -2t-48 -9t-39.5 -20.5t-25.5 -37.5t-15 -60q-12 -94 -12 -303v-429q0 -538 363 -538q91 0 166 22.5t125 58t87.5 85.5t58.5 99t34 106t16.5 98.5t3.5 83.5v411q0 209 -18 297q-10 47 -25 75t-42.5 41.5t-56.5 17.5t-81 4z" />
    <glyph glyph-name="utilde" unicode="&#x169;" horiz-adv-x="1329" 
d="M819 1272v-12q0 -34 -14 -56q-10 -22 -33 -34.5t-49 -12.5q-11 0 -35 4q-27 9 -47 19q-18 7 -27 14l-12 6q-20 10 -27 10q-8 0 -14 -4q-8 -6 -26 -24l-9 -8l-30 12v10q0 29 16 55q14 17 27 25q15 12 36 12q21 2 56 -10l6 -2q8 -4 23.5 -12t17.5 -9l2 -2q7 -2 18.5 -7.5
t14.5 -6.5q10 -4 24 -4q11 0 19 8q5 4 22 29l6 8zM1280 145l25 -45q-30 -24 -175.5 -72.5t-248.5 -39.5q-10 61 -21 487l55 350h-14l-43 -250q-23 -133 -47 -230t-59 -186t-83 -135.5t-108 -46.5q-169 0 -258.5 89.5t-89.5 257.5v200q0 208 -10.5 294t-48.5 110
q-37 24 -138 24l-6 52q194 24 463 24v-684q0 -45 1 -76t4.5 -72.5t11.5 -69.5t20.5 -54t32.5 -39t47 -13q58 0 115 126.5t96.5 311.5t56.5 378q0 5 -0.5 13t-12 29t-34.5 37q-54 37 -147 37l-9 52q188 24 461 24v-555q0 -233 14 -299q12 -59 56 -59q32 0 94 30z" />
    <glyph glyph-name="Umacron" unicode="&#x16a;" horiz-adv-x="1601" 
d="M692 1720h328v-78h-328v78zM1090 1491h514l-11 -55q-54 0 -81.5 -3t-55 -16.5t-42 -41t-25.5 -75.5q-21 -89 -21 -296v-410q0 -135 -34.5 -246t-102 -194t-175 -128.5t-247.5 -45.5q-295 0 -447.5 150.5t-152.5 442.5v433q0 227 -14 301q-12 77 -33 94q-44 35 -156 35
l-8 55h682l-10 -55q-38 0 -61 -2t-48 -9t-39.5 -20.5t-25.5 -37.5t-15 -60q-12 -94 -12 -301v-431q0 -269 89.5 -402.5t272.5 -133.5q91 0 166 22t125 57.5t88 85.5t59 99t33.5 105.5t16.5 98t4 83.5v414q0 208 -18 296q-11 48 -25.5 75.5t-42 41t-55.5 16.5t-82 3z" />
    <glyph glyph-name="umacron" unicode="&#x16b;" horiz-adv-x="1333" 
d="M496 1231h327v-78h-327v78zM1282 147l25 -45q-30 -24 -175.5 -72.5t-248.5 -39.5q-10 61 -21 487l56 350h-15l-43 -249q-23 -133 -47 -230t-59 -186t-83 -135.5t-108 -46.5q-169 0 -258.5 89.5t-89.5 256.5v200q0 208 -10.5 294t-48.5 110q-37 24 -138 24l-6 52
q194 24 463 24v-684q0 -45 1 -76t4.5 -72.5t11.5 -69t20.5 -53.5t32.5 -39t47 -13q58 0 115 126.5t96.5 311t56.5 377.5q0 5 -0.5 13t-12 29.5t-34.5 37.5q-52 36 -147 36l-9 52q187 24 461 24v-555q0 -229 15 -299q12 -59 55 -59q32 0 94 30z" />
    <glyph glyph-name="Ubreve" unicode="&#x16c;" horiz-adv-x="1605" 
d="M969 1763h84v-14q0 -57 -48.5 -97t-117.5 -40q-68 0 -117 40t-49 97v14h86l-2 -16q-2 -4 -2 -10q0 -37 23.5 -60.5t60.5 -23.5q41 0 62.5 26t21.5 68zM1094 1491h514l-11 -55q-52 0 -81 -4t-56 -17.5t-42 -41.5t-25 -75q-21 -88 -21 -297v-409q0 -135 -34.5 -246
t-102.5 -194t-175.5 -129t-246.5 -46q-294 0 -447 151.5t-153 442.5v433q0 229 -14 303q-12 76 -33 92q-47 37 -156 37l-8 55h682l-10 -55q-38 0 -61 -2t-48 -9t-39.5 -20.5t-25.5 -37.5t-15 -60q-12 -94 -12 -303v-431q0 -536 363 -536q91 0 166 22t125 57.5t87.5 85.5
t58.5 99t34 105.5t16.5 98t3.5 83.5v413q0 209 -18 297q-10 47 -25 75t-42.5 41.5t-56.5 17.5t-81 4z" />
    <glyph glyph-name="ubreve" unicode="&#x16d;" horiz-adv-x="1329" 
d="M735 1274h86v-14q0 -57 -49 -96.5t-117 -39.5q-69 0 -117.5 39.5t-48.5 96.5v14h84q-2 -13 -2 -27q0 -37 23.5 -60.5t60.5 -23.5t60.5 23.5t23.5 60.5zM1278 147l25 -45q-30 -24 -175.5 -72.5t-248.5 -39.5q-10 61 -21 487l55 350h-14l-43 -249q-23 -133 -47 -230
t-59 -186t-83 -135.5t-108 -46.5q-169 0 -258.5 89.5t-89.5 256.5v200q0 208 -10.5 294t-48.5 110q-37 24 -138 24l-6 52q194 24 463 24v-684q0 -45 1 -76t4.5 -72.5t11.5 -69t20.5 -53.5t32.5 -39t47 -13q58 0 115 126.5t96.5 311t56.5 377.5q0 5 -0.5 13t-12 29.5
t-34.5 37.5q-52 36 -147 36l-9 52q188 24 461 24v-555q0 -233 14 -299q12 -59 56 -59q32 0 94 30z" />
    <glyph glyph-name="Uring" unicode="&#x16e;" horiz-adv-x="1605" 
d="M899 1858q66 0 112 -49.5t46 -118.5t-46 -118.5t-112 -49.5t-113 49.5t-47 118.5t47 118.5t113 49.5zM815 1688q0 -57 24 -96.5t58 -39.5t58 39.5t24 96.5t-24 97t-58 40t-58 -40t-24 -97zM1092 1491h512l-9 -55q-52 0 -81.5 -4t-56.5 -17.5t-42.5 -41.5t-25.5 -75
q-19 -93 -19 -297v-409q0 -279 -142.5 -445.5t-418.5 -166.5q-295 0 -447.5 150t-152.5 441v433q0 224 -12 303q-12 75 -33 92q-47 37 -156 37l-10 55h682l-8 -55q-38 0 -61 -2t-48 -9t-39.5 -20.5t-25.5 -37.5t-15 -60q-12 -94 -12 -303v-431q0 -269 88.5 -402.5
t271.5 -133.5q91 0 166 22t125 57.5t88 85.5t59 99t33.5 105.5t16.5 98t4 83.5v413q0 209 -18 297q-10 47 -25 75t-42.5 41.5t-56.5 17.5t-81 4z" />
    <glyph glyph-name="uring" unicode="&#x16f;" horiz-adv-x="1345" 
d="M672 1358q63 0 106 -47t43 -113t-43 -113t-106 -47t-107.5 47t-44.5 113t44.5 113t107.5 47zM592 1198q0 -53 23 -90t55 -37t56 37.5t24 89.5t-23.5 88.5t-56.5 36.5q-32 0 -55 -36.5t-23 -88.5zM1294 145l25 -45q-30 -24 -175.5 -72.5t-248.5 -39.5q-10 61 -21 487
l56 350h-15l-43 -250q-23 -133 -47 -230t-59 -186t-83 -135.5t-108 -46.5q-169 0 -258.5 89.5t-89.5 257.5v200q0 208 -10.5 294t-48.5 110q-37 24 -137 24l-6 52q194 24 462 24v-684q0 -45 1 -76t4.5 -72.5t11.5 -69.5t20.5 -54t32.5 -39t47 -13q58 0 115 126.5t96.5 311.5
t56.5 378q0 5 -0.5 13t-12 29t-34.5 37q-54 37 -147 37l-8 52q187 24 460 24v-555q0 -229 15 -299q12 -59 55 -59q32 0 94 30z" />
    <glyph glyph-name="Uhungarumlaut" unicode="&#x170;" horiz-adv-x="1607" 
d="M1055 1849q15 -12 18 -34q4 -21 -12 -37l-176 -195l-31 25l131 225q9 18 31 25q21 3 39 -9zM948 1815q0 -22 -12 -37l-176 -195l-33 25l131 225q13 19 33 25q17 3 37 -9q17 -11 20 -34zM1094 1491h512l-9 -57q-43 0 -67 -2t-50 -9t-41 -21.5t-27.5 -40t-20.5 -63.5
q-19 -93 -19 -297v-409q0 -136 -34.5 -247.5t-102.5 -194t-176 -128t-248 -45.5q-294 0 -447 151.5t-153 442.5v433q0 222 -12 301q-12 73 -33 94q-44 35 -156 35l-10 57h682l-8 -57q-40 0 -61.5 -1.5t-48 -8t-40 -20t-24.5 -38t-15 -61.5q-12 -70 -12 -301v-431
q0 -536 363 -536q91 0 166 22.5t124.5 57.5t87 85t58.5 99t33.5 105.5t16 98t3.5 83.5v413q0 209 -18 297q-7 38 -19.5 63.5t-27 40t-41.5 21.5t-51 9t-66 2z" />
    <glyph glyph-name="uhungarumlaut" unicode="&#x171;" horiz-adv-x="1331" 
d="M702 1325q0 -23 -12 -35l-176 -194l-33 22l131 228q16 20 33 22q22 4 37 -8q17 -11 20 -35zM809 1360q15 -12 18 -35q4 -22 -12 -35l-176 -194l-31 22l131 228q11 19 31 22q22 3 39 -8zM1278 145l25 -45q-30 -24 -175.5 -72.5t-248.5 -39.5q-10 61 -21 487l55 350h-14
l-43 -250q-23 -133 -47 -230t-59 -186t-83 -135.5t-108 -46.5q-169 0 -258.5 89.5t-89.5 257.5v200q0 208 -10.5 294t-48.5 110q-37 24 -138 24l-6 52q194 24 463 24v-684q0 -45 1 -76t4.5 -72.5t11.5 -69.5t20.5 -54t32.5 -39t47 -13q58 0 115 126.5t96.5 311.5t56.5 378
q0 5 -0.5 13t-12 29t-34.5 37q-54 37 -147 37l-9 52q188 24 461 24v-555q0 -233 14 -299q12 -59 56 -59q32 0 94 30z" />
    <glyph glyph-name="Uogonek" unicode="&#x172;" horiz-adv-x="1609" 
d="M1094 1491h512l-9 -55q-52 0 -81.5 -4t-56.5 -17.5t-42.5 -41.5t-25.5 -75q-19 -93 -19 -297v-407q0 -135 -34 -248.5t-116.5 -207t-207.5 -132.5q-43 -24 -76 -52.5t-49 -51.5t-25.5 -42.5t-11.5 -30.5l-2 -11q0 -40 23.5 -54t50.5 -14q117 0 211 146l86 -62
q-29 -55 -68.5 -93t-78.5 -55t-67.5 -23.5t-52.5 -6.5q-60 0 -105.5 40t-45.5 109q0 10 3 28t28 64.5t69 86.5q-58 -4 -92 -4q-294 0 -447 150.5t-153 440.5v433q0 224 -12 303q-12 71 -33 92q-43 37 -156 37l-10 55h682l-8 -55q-39 0 -61 -1.5t-48 -8.5t-40 -20.5t-25 -38
t-15 -60.5q-12 -70 -12 -303v-429q0 -538 363 -538q91 0 166 22.5t124.5 58t87 85.5t58.5 99t33.5 106t16 98.5t3.5 83.5v411q0 209 -18 297q-16 89 -60.5 113.5t-144.5 24.5z" />
    <glyph glyph-name="uogonek" unicode="&#x173;" horiz-adv-x="1337" 
d="M1079 -109l78 -57q-29 -53 -68 -90t-75.5 -52.5t-61.5 -21.5t-43 -6q-57 0 -99 36.5t-42 102.5q0 101 113 185q-10 64 -21 487l55 350h-14l-43 -250q-23 -133 -47 -230t-59 -186t-83 -135.5t-108 -46.5q-169 0 -258.5 89.5t-89.5 257.5v200q0 208 -10.5 294t-48.5 110
q-37 24 -138 24l-6 52q194 24 463 24v-684q0 -45 1 -76t4.5 -72.5t11.5 -69.5t20.5 -54t32.5 -39t47 -13q58 0 115 126.5t96.5 311.5t56.5 378q0 5 -0.5 13t-12 29t-34.5 37q-54 37 -147 37l-9 52q188 24 461 24v-555q0 -233 14 -299q12 -59 56 -59q32 0 94 30l25 -45
q-10 -9 -60 -31t-131 -47t-149 -32l-13 -6q-40 -22 -69 -48t-42 -45.5t-20.5 -39t-8.5 -26.5t-1 -11q0 -36 23 -49t47 -13q106 0 198 139z" />
    <glyph glyph-name="Wcircumflex" unicode="&#x174;" horiz-adv-x="2449" 
d="M1264 1810l159 -172l-26 -30l-178 125l-181 -125l-26 30l159 172q21 21 48 21q24 0 45 -21zM1903 1491h546l-8 -55q-83 0 -129 -11q-83 -21 -158 -178q-30 -66 -92 -237l-354 -1020h-192l-297 809l-283 -809h-193l-374 1020q-119 313 -162 364q-27 27 -47 37
q-30 18 -58 21q-36 4 -94 4l-8 55h682l-8 -55q-97 1 -117 -15q-21 -15 -23.5 -45.5t3 -50.5t18.5 -59q2 -6 88.5 -244.5t184.5 -508t124 -339.5l242 692l-53 144q-119 313 -162 364q-53 53 -105 58q-36 4 -94 4l-8 55h682l-8 -55q-97 1 -117 -15q-21 -15 -23.5 -45.5
t3 -50.5t18.5 -59q2 -6 88.5 -244.5t184.5 -508t124 -339.5l295 846q76 221 76 326q0 59 -27 71q-13 7 -60.5 13t-94.5 6z" />
    <glyph glyph-name="wcircumflex" unicode="&#x175;" horiz-adv-x="1822" 
d="M958 1323l160 -172l-26 -31l-179 123l-182 -123l-24 31l159 172q18 18 47 18q27 0 45 -18zM1436 1008h385l-9 -54h-6q-82 0 -112 -49q-40 -70 -123 -332l-189 -573h-188l-258 659l-215 -659h-189l-270 692q-63 165 -119 215q-50 47 -133 47l-8 54h635l-10 -54
q-22 0 -36 -1t-33 -5t-29.5 -12t-18.5 -23t-8 -36q0 -88 96 -332l139 -346l144 440q15 40 28 88q-60 142 -104 180q-50 47 -133 47l-8 54h634l-10 -54q-22 0 -36 -1t-33 -5t-29.5 -12t-18.5 -23t-8 -36q0 -86 97 -332l139 -346l143 440q57 159 57 219q0 51 -35.5 73.5
t-113.5 22.5h-6z" />
    <glyph glyph-name="Ycircumflex" unicode="&#x176;" horiz-adv-x="1519" 
d="M895 1810l160 -170l-27 -30l-178 123l-180 -123l-27 30l160 170q18 21 47 21q27 0 45 -21zM1016 1491h504l-11 -55q-129 0 -168 -23q-30 -17 -57.5 -60t-77.5 -141q-17 -30 -138.5 -277.5t-133.5 -275.5q0 -482 37 -540q34 -50 100 -58q20 -4 109 -4l8 -57h-768l10 57
q88 0 111 2t51.5 17t46.5 45q20 32 28.5 153.5t6.5 226.5l-2 105q-8 14 -188.5 313.5t-198.5 327.5q-42 72 -89.5 119.5t-82.5 60.5q-30 9 -103 9l-8 55h653l-8 -55q-70 0 -106 -9q-17 -6 -17 -28q0 -33 25 -78q6 -14 81 -144.5t167 -290.5t104 -181l258 524q47 96 47 151
q0 38 -20 43q-11 5 -61.5 9t-98.5 4z" />
    <glyph glyph-name="ycircumflex" unicode="&#x177;" horiz-adv-x="1177" 
d="M739 1321l160 -170l-27 -31l-178 123l-180 -123l-27 31l162 172q15 18 45 18q28 0 45 -20zM750 1008h428l-9 -56q-41 0 -74 -13t-46 -36q-34 -52 -127 -338l-187 -571q-27 -84 -49 -135q22 22 31 61l45 -10q-21 -90 -113 -131q-146 -304 -303 -320h-6l-12 -2
q-87 0 -138 54q-50 50 -43 114q4 29 15.5 52t26 39t39.5 28t45 19t53.5 12t55 7t58.5 5q113 7 174 29q72 174 76 184h-151l-273 686q-67 171 -121 219q-53 47 -133 47l-10 56h645l-10 -56q-30 0 -47.5 -2t-38.5 -9t-31 -24t-10 -45q0 -88 96 -335l142 -355l149 449
q57 172 57 241q0 27 -12.5 43.5t-41.5 24.5t-59 10t-81 2zM340 -496q123 12 248 256q-43 -10 -146 -18q-40 -3 -60 -5.5t-53.5 -7.5t-51 -13t-38 -21t-31 -32t-13.5 -44q-6 -44 28 -78q43 -43 117 -37z" />
    <glyph glyph-name="Ydieresis" unicode="&#x178;" horiz-adv-x="1515" 
d="M993 1774q38 0 67.5 -29.5t29.5 -67.5t-29 -67q-26 -29 -68 -29q-41 0 -67 29q-29 26 -29 67q0 42 29 68q29 29 67 29zM682 1774q38 0 70 -29q28 -28 28 -68t-29 -68t-69 -28q-42 0 -68 29q-28 28 -28 67q0 38 29 67.5t67 29.5zM1016 1491h502l-9 -55q-131 0 -170 -23
q-30 -17 -57 -59t-78 -140q-57 -111 -272 -555q0 -480 39 -538q31 -52 98 -60q20 -4 109 -4l10 -57h-768l10 57q88 0 111 2q22 2 51 17t47 45q19 33 27.5 154t7.5 226l-2 105q-12 19 -192.5 318.5t-194.5 322.5q-42 72 -89.5 119.5t-82.5 60.5q-22 9 -103 9l-10 55h655
l-10 -55q-80 0 -104 -9q-19 -6 -19 -28q0 -33 25 -78q7 -12 84.5 -146.5t163.5 -284.5t106 -185l258 526q47 92 47 149q0 35 -20 45q-38 11 -160 11z" />
    <glyph glyph-name="Zacute" unicode="&#x179;" horiz-adv-x="1374" 
d="M557 1659l231 145q19 9 39 6q21 -6 31 -26q9 -17 2 -41q-10 -21 -29 -27l-258 -92zM1329 1491v-113l-973 -1333h369q101 0 151.5 1t113.5 7.5t97 20.5q101 39 135.5 174t34.5 418l54 8v-674h-1219v129l946 1315q-467 0 -571 -14q-74 -9 -112.5 -28t-73.5 -65
q-56 -77 -56 -342l-55 -8v504h1159z" />
    <glyph glyph-name="zacute" unicode="&#x17a;" horiz-adv-x="985" 
d="M369 1176l225 139q16 13 39 6q20 -7 29 -25t2 -39q-7 -17 -29 -28l-250 -88zM963 1008v-56l-594 -905h166q73 0 110.5 1t84 9t71.5 23q69 43 69 209l43 12v-301h-841v61l577 900h-170q-96 2 -148 -3.5t-77 -27.5q-74 -71 -74 -207l-47 -16v301h830z" />
    <glyph glyph-name="Zdotaccent" unicode="&#x17b;" horiz-adv-x="1372" 
d="M700 1819q44 0 77.5 -32.5t33.5 -76.5q0 -46 -32.5 -78.5t-78.5 -32.5t-75 33q-33 29 -33 78q0 47 33 76q29 33 75 33zM1323 1491v-113l-973 -1333h369q101 0 151.5 1t113.5 7.5t97 20.5q101 39 135.5 174t34.5 418l54 8v-674h-1219v129l946 1315q-467 0 -571 -14
q-74 -9 -113 -28.5t-74 -64.5q-55 -75 -55 -342l-55 -8v504h1159z" />
    <glyph glyph-name="zdotaccent" unicode="&#x17c;" horiz-adv-x="985" 
d="M594 1315q33 -29 33 -76q0 -44 -32.5 -77.5t-76.5 -33.5q-40 0 -78 33q-32 37 -32 78q0 44 33 76.5t77 32.5q47 0 76 -33zM963 1008v-56l-592 -905h164q73 0 110.5 1t85 9t72.5 23q67 43 67 209l43 12v-301h-841v61l579 900h-172q-94 2 -146.5 -3.5t-76.5 -27.5
q-76 -70 -76 -207l-47 -16v301h830z" />
    <glyph glyph-name="Zcaron" unicode="&#x17d;" horiz-adv-x="1380" 
d="M672 1630l-160 170l27 31l178 -123l180 123l27 -31l-160 -172q-18 -18 -47 -18q-28 0 -45 20zM1337 1491v-113l-972 -1333h368q101 0 152 1t114 7.5t97 20.5q101 39 135.5 174t34.5 418l53 8v-674h-1219v129l947 1315q-468 0 -572 -14q-74 -9 -112.5 -28t-73.5 -65
q-56 -77 -56 -342l-55 -8v504h1159z" />
    <glyph glyph-name="zcaron" unicode="&#x17e;" horiz-adv-x="985" 
d="M471 1143l-160 172l27 31l178 -125l180 125l27 -31l-160 -172q-21 -21 -47 -21q-24 0 -45 21zM963 1008v-56l-592 -905h164q73 0 110.5 1t85 9t72.5 23q67 43 67 209l43 12v-301h-841v61l577 900h-170q-141 0 -181 -10q-28 -8 -42 -21q-76 -70 -76 -207l-47 -16v301h830z
" />
    <glyph glyph-name="florin" unicode="&#x192;" horiz-adv-x="1181" 
d="M913 1667q54 0 99 -18t74.5 -45t52 -62t33 -63.5t16.5 -55.5h-55q-22 90 -85 144.5t-145 54.5q-47 0 -77.5 -16.5t-54.5 -62.5t-35 -134.5t-11 -226.5v-92h233v-78h-233v-783q0 -260 -116.5 -400t-329.5 -140q-54 0 -99 18t-74.5 44.5t-52 61.5t-33 63.5t-16.5 55.5l55 2
q27 -90 88 -144t142 -54q32 0 54 6.5t46.5 31.5t39 70.5t24.5 129.5t10 202v836h-150v78h150v38q0 255 124 397t326 142z" />
    <glyph glyph-name="uni01C4" unicode="&#x1c4;" horiz-adv-x="2783" 
d="M565 1491q227 0 400 -34.5t288 -96.5t187.5 -156t103.5 -206t31 -253q0 -123 -27.5 -229.5t-92.5 -203t-163 -164.5t-248 -108t-339 -40h-670l10 55q109 0 156 37q45 39 45 395v517q0 217 -13 303q-12 78 -32 94q-47 37 -156 37l-10 53h530zM2748 1491v-113l-972 -1333
h368q101 0 152 1t114 7.5t97 20.5q101 39 135.5 174t34.5 418l53 8v-674h-1219v129l947 1315q-468 0 -572 -14q-74 -9 -112.5 -28t-73.5 -65q-55 -75 -55 -342l-56 -8v504h1159zM678 45q134 0 248.5 59t190.5 157t118.5 223.5t42.5 258.5q0 346 -164 523.5t-455 177.5
q-112 0 -147 -4v-979q0 -263 12 -330q12 -65 56 -86h98z" />
    <glyph glyph-name="uni01C5" unicode="&#x1c5;" horiz-adv-x="2508" 
d="M567 1491q227 0 400 -34.5t288 -96.5t187.5 -156t103.5 -206t31 -253q0 -123 -27.5 -229.5t-92.5 -203t-163 -164.5t-248 -108t-339 -40h-670l10 55q109 0 156 37q45 39 45 395v517q0 224 -12 303q-12 77 -33 94q-47 37 -156 37l-10 53h530zM680 45q134 0 248.5 59
t190.5 157t118.5 223.5t42.5 258.5q0 346 -163.5 523.5t-454.5 177.5q-113 0 -148 -4v-979q0 -263 12 -330q12 -65 56 -86h98zM1974 1145l-159 172l26 29l178 -123l181 123l26 -29l-160 -172q-21 -21 -47 -21q-24 0 -45 21zM2466 1010v-56l-594 -907h166q73 0 110.5 1t84 9
t71.5 23q29 18 46 62.5t20.5 78.5t3.5 68l43 12v-299h-842v61l577 900h-170q-67 0 -99.5 -1t-70.5 -8.5t-55 -23.5q-74 -68 -74 -205l-47 -16v301h830z" />
    <glyph glyph-name="uni01C6" unicode="&#x1c6;" horiz-adv-x="2138" 
d="M1151 143l25 -47q-18 -16 -73 -42.5t-157 -51.5t-194 -16q-3 16 -15 493l58 350h-17l-43 -270q-4 -29 -10 -63t-19.5 -93.5t-29 -113.5t-38.5 -113t-49 -101t-61 -70t-73 -28q-203 0 -314.5 138.5t-111.5 390.5q0 242 155 383t400 141q84 0 151 -18v188q0 151 -10 209
q-9 45 -25 55q-45 25 -137 25l-8 49q67 12 202.5 20.5t235.5 8.5v-1094q0 -229 15 -299q6 -31 19 -45t36 -14q30 0 88 28zM1602 1145l-160 172l26 29l179 -123l180 123l26 -29l-159 -172q-21 -21 -47 -21q-24 0 -45 21zM2093 1010v-56l-594 -907h166q73 0 110.5 1t84 9
t71.5 23q29 18 46 62.5t20.5 78.5t3.5 68l43 12v-299h-842v61l578 900h-170q-67 0 -100 -1t-71 -8.5t-55 -23.5q-73 -67 -73 -205l-47 -16v301h829zM735 864v101q-60 18 -151 18q-130 0 -206.5 -135t-76.5 -361q0 -98 8 -178.5t25.5 -146.5t49 -102.5t73.5 -36.5
q50 0 96.5 76.5t78 186t55.5 232t35.5 214t12.5 132.5z" />
    <glyph glyph-name="uni01C7" unicode="&#x1c7;" horiz-adv-x="1914" 
d="M1102 508v96l53 10v-614h-1118l10 55q54 0 90 4q53 6 80 58q13 24 21 135t8 235v517q0 308 -27 372q-24 52 -80 58q-36 4 -92 4l-10 53h686l-10 -53q-119 0 -156 -37q-22 -22 -34.5 -104t-12.5 -293v-549q0 -243 14 -322q6 -33 21.5 -60.5t40.5 -27.5q163 0 261 19
t157 65q98 78 98 379zM1155 1491h676l-8 -53q-118 0 -156 -35q-14 -13 -23 -43.5t-15.5 -117.5t-6.5 -234v-744q0 -218 -124.5 -353.5t-336.5 -135.5q-45 0 -87 12.5t-69 29.5t-47.5 35.5t-30 30t-9.5 13.5l36 24q3 -4 8.5 -11t25.5 -24t42 -30t57.5 -24t73.5 -11q19 0 31 1
t35.5 7.5t39.5 18.5t36 37.5t32 61.5t20.5 92.5t8.5 127.5v842q0 304 -31 368q-21 52 -78 58q-36 4 -90 4z" />
    <glyph glyph-name="uni01C8" unicode="&#x1c8;" horiz-adv-x="1564" 
d="M1108 508v96l53 10v-614h-1118l10 55q54 0 90 4q53 6 80 58q13 24 21 135t8 235v517q0 308 -27 372q-24 52 -80 58q-36 4 -92 4l-10 53h686l-10 -53q-119 0 -156 -37q-22 -22 -34.5 -104t-12.5 -293v-549q0 -243 14 -322q6 -33 21.5 -60.5t40.5 -27.5q163 0 261 19
t157 65q98 78 98 379zM1366 1212q-55 0 -94 40.5t-39 95.5q0 52 39 94q42 39 94 39q54 0 94.5 -39.5t40.5 -93.5t-40.5 -95t-94.5 -41zM1038 1008q200 22 465 22v-956q0 -115 -13 -207t-35 -155t-57 -109t-71 -72t-85.5 -41.5t-92.5 -20t-100 -4.5v48q45 0 77 10.5t53.5 36
t34 56t19 85.5t8.5 107.5t2 136.5v577q0 356 -61 408q-28 24 -138 24z" />
    <glyph glyph-name="uni01C9" unicode="&#x1c9;" horiz-adv-x="1085" 
d="M80 55q59 0 100 11.5t51 31.5q25 48 25 264q0 221 -4.5 589t-9.5 401q-13 76 -33 92q-46 43 -152 43l-6 51q198 25 465 25v-1205q0 -210 25 -260q10 -20 50.5 -31.5t98.5 -11.5l8 -55h-628zM903 1212q-55 0 -94 40.5t-39 95.5q0 52 39 94q42 39 94 39q54 0 94.5 -39.5
t40.5 -93.5t-40.5 -95t-94.5 -41zM575 1008q200 22 465 22v-956q0 -115 -13 -207t-35 -155t-57 -109t-71 -72t-85.5 -41.5t-92.5 -20t-100 -4.5v48q45 0 77 10.5t53.5 36t34 56t19 85.5t8.5 107.5t2 136.5v577q0 356 -61 408q-28 24 -137 24z" />
    <glyph glyph-name="uni01CA" unicode="&#x1ca;" horiz-adv-x="2414" 
d="M1694 1491h676l-9 -53q-117 0 -155 -35q-14 -13 -23 -43.5t-15.5 -117.5t-6.5 -234v-744q0 -218 -124.5 -353.5t-336.5 -135.5q-45 0 -87 12.5t-69.5 29.5t-48 35.5t-30 30t-9.5 13.5l37 24q3 -4 8.5 -11t25.5 -24t42 -30t57.5 -24t73.5 -11q19 0 31 1t35.5 7.5
t39.5 18.5t36 37.5t32 61.5t20.5 92.5t8.5 127.5v842q0 304 -31 368q-21 52 -78 58q-36 4 -90 4zM1649 1434q-39 0 -64 -2t-52.5 -10t-44.5 -22.5t-31.5 -39.5t-22.5 -62q-9 -44 -9 -229v-827l193 -242h-340l-934 1174q0 -932 10 -981q17 -85 66 -111.5t145 -26.5l10 -55
h-512l11 55q37 0 63 2.5t53 10.5t45 23t32.5 40.5t21.5 61.5q8 38 8 217v598q0 233 -12 290q-9 46 -26 74.5t-46.5 41.5t-58.5 16.5t-80 3.5l-11 53h363l952 -1188v768q0 182 -10 231q-8 37 -22.5 62t-31.5 39.5t-44.5 22.5t-52.5 10t-64 2l-10 53h516z" />
    <glyph glyph-name="uni01CB" unicode="&#x1cb;" horiz-adv-x="2068" 
d="M1636 1434q-39 0 -64 -2t-52.5 -10t-44.5 -22.5t-31.5 -39.5t-22.5 -62q-8 -39 -8 -229v-827l193 -242h-340l-934 1174q0 -932 10 -981q17 -85 66 -111.5t145 -26.5l10 -55h-512l10 55q37 0 63 2.5t53 10.5t45 23t32.5 40.5t21.5 61.5q9 42 9 217v598q0 228 -13 290
q-9 46 -26 74.5t-46.5 41.5t-58.5 16.5t-80 3.5l-10 53h363l952 -1188v768q0 182 -10 231q-8 37 -22.5 62t-31.5 39.5t-44.5 22.5t-52.5 10t-64 2l-11 53h517zM1886 1212q-55 0 -94 40.5t-39 95.5q0 52 39 94q42 39 94 39q54 0 94.5 -39.5t40.5 -93.5t-40.5 -95t-94.5 -41z
M1559 1008q200 22 464 22v-956q0 -115 -13 -207t-35 -155t-57 -109t-71 -72t-85.5 -41.5t-92.5 -20t-100 -4.5v48q45 0 77 10.5t53.5 36t34 56t19 85.5t8.5 107.5t2 136.5v577q0 356 -61 408q-28 24 -137 24z" />
    <glyph glyph-name="uni01CC" unicode="&#x1cc;" horiz-adv-x="1734" 
d="M1556 1212q-55 0 -94 40.5t-39 95.5q0 52 39 94q42 39 94 39q54 0 95 -39.5t41 -93.5t-41 -95t-95 -41zM1229 1008q200 22 465 22v-956q0 -115 -13.5 -207t-35 -155t-56.5 -109t-71.5 -72t-86 -41.5t-92.5 -20t-100 -4.5v48q45 0 77 10.5t53.5 36t34.5 56.5t19.5 85
t8.5 107t2 137v577q0 355 -62 408q-28 24 -137 24zM905 98q23 53 23 277v287q0 157 -27.5 238t-89.5 81q-59 0 -113.5 -90.5t-90 -225t-58 -254t-31.5 -210.5q-4 -58 25 -105q11 -19 50.5 -30t96.5 -11l10 -55h-624l8 55q59 0 100.5 11.5t51.5 31.5q24 46 24 262v166
q0 179 -12.5 277.5t-48.5 124.5q-32 24 -136 24l-6 54q172 22 461 22v-461l-47 -303h16l35 213q25 126 53 220t65.5 172t86 118.5t107.5 40.5q175 0 263.5 -83.5t88.5 -262.5v-326q0 -208 26 -258q10 -20 51 -31.5t97 -11.5l10 -55h-622l10 55q128 0 147 43z" />
    <glyph glyph-name="uni01CD" unicode="&#x1cd;" horiz-adv-x="1552" 
d="M643 1630l-160 170l27 31l178 -123l180 123l27 -31l-162 -170q-14 -20 -45 -20q-28 0 -45 20zM1038 68q23 10 23 49q0 25 -37.5 134.5t-75.5 205.5l-76 207q-156 -25 -297.5 -104.5t-222.5 -201.5q-63 -179 -63 -219q0 -84 207 -84l10 -55h-506l10 55q110 0 163.5 39
t88.5 148q4 14 72.5 213t135 392.5t67.5 196.5q29 85 40.5 118.5t26.5 81.5t20 72t5 40q0 55 -23 69q-21 13 -117 13l-10 53h373q6 -18 246.5 -656.5t253.5 -666.5q32 -67 72.5 -90t119.5 -23l8 -55h-643l11 55q89 0 118 13zM393 479q183 179 463 228l-199 550z" />
    <glyph glyph-name="uni01CE" unicode="&#x1ce;" horiz-adv-x="1120" 
d="M432 1137l-160 172l27 30l178 -125l180 125l27 -30l-162 -172q-18 -21 -45 -21q-24 0 -45 21zM1051 141l24 -45q-32 -30 -171 -72.5t-245 -35.5q-14 53 -20 315l53 266h-16l-41 -207q-13 -58 -24 -98t-28.5 -88.5t-38 -80.5t-48.5 -61t-64.5 -43t-81.5 -14q-83 0 -146 24
t-98.5 64t-53 86.5t-17.5 98.5q0 160 159.5 263t442.5 149v24q0 62 -1 93t-6 69t-16 57q-43 78 -147 78q-70 0 -130 -49.5t-67 -153.5q-4 -48 4 -92t18 -64l9 -20l-25 -33l-235 224l22 26l48 -8q16 31 29.5 52t45 55t67.5 55t96 37t132 16q175 0 293.5 -96t118.5 -252
l2 -209q0 -231 14 -297q12 -59 56 -59q33 0 86 26zM637 573v60q-168 -42 -250 -138.5t-82 -236.5q0 -83 27.5 -141t73.5 -58q55 0 102.5 71t73.5 166t40.5 171.5t14.5 105.5z" />
    <glyph glyph-name="uni01CF" unicode="&#x1cf;" horiz-adv-x="851" 
d="M412 1630l-158 170l25 31l180 -123l180 123l27 -31l-162 -172q-18 -18 -45 -18q-30 0 -47 20zM637 92q50 -35 156 -35l10 -57h-686l8 57q76 0 92 2q36 6 66.5 44.5t33.5 89.5q1 14 4 67t5 112t2 115v519q0 210 -13 299q-12 79 -32 96q-43 37 -158 37l-10 53h688l-10 -53
q-114 0 -156 -37q-24 -20 -34.5 -102.5t-10.5 -292.5v-519q0 -204 12 -303q11 -76 33 -92z" />
    <glyph glyph-name="uni01D0" unicode="&#x1d0;" horiz-adv-x="751" 
d="M326 1139l-158 172l25 30l180 -124l180 124l27 -30l-162 -172q-21 -21 -45 -21q-26 0 -47 21zM100 55q131 0 152 41q24 55 24 264q0 380 -12 459q-13 81 -53 107t-131 26l-6 52q191 24 461 24v-672q0 -212 24 -260q21 -41 148 -41l8 -55h-623z" />
    <glyph glyph-name="uni01D1" unicode="&#x1d1;" horiz-adv-x="1734" 
d="M821 1630l-159 170l26 31l178 -123l181 123l26 -31l-160 -170q-17 -20 -47 -20q-25 0 -45 20zM868 1511q174 0 325 -49.5t265.5 -142.5t180 -237t65.5 -322q0 -174 -66.5 -321t-180.5 -245.5t-266 -154.5t-323 -59q-172 3 -324 58.5t-266 154t-180.5 245.5t-66.5 322
q0 143 42.5 264.5t119 210.5t181.5 151.5t230 93.5t264 31zM868 27q115 2 208.5 45.5t155 113.5t103.5 164t60 193t18 205q0 99 -18 196.5t-59.5 192.5t-102.5 166.5t-155.5 116t-209.5 44.5q-114 0 -207.5 -44.5t-155 -116t-103.5 -166.5t-60 -192.5t-18 -196.5
q0 -106 18 -205t59 -193t102.5 -164t155 -113.5t209.5 -45.5z" />
    <glyph glyph-name="uni01D2" unicode="&#x1d2;" horiz-adv-x="1165" 
d="M539 1139l-158 172l25 30l180 -122l180 122l27 -30l-162 -172q-19 -19 -45 -19q-28 0 -47 19zM580 1028q156 0 284 -63t204.5 -184t76.5 -279t-73.5 -278.5t-199 -183.5t-282.5 -63q-116 0 -219 37t-179 104.5t-120.5 167t-44.5 218.5q0 157 73 277.5t198 183.5t282 63z
M309 504q0 -222 84.5 -351.5t196.5 -129.5q69 0 123.5 46t85.5 119t47 153.5t16 160.5q0 93 -16 176t-48.5 152t-88 110t-127.5 41q-119 0 -196 -137t-77 -340z" />
    <glyph glyph-name="uni01D3" unicode="&#x1d3;" horiz-adv-x="1605" 
d="M788 1630l-159 170l26 31l179 -123l180 123l26 -31l-161 -170q-14 -20 -45 -20q-26 0 -46 20zM1094 1491h514l-11 -55q-54 0 -81.5 -3t-55 -16.5t-42 -41t-25.5 -75.5q-21 -89 -21 -296v-410q0 -135 -34.5 -246t-102 -194t-175 -128.5t-247.5 -45.5q-295 0 -447.5 150.5
t-152.5 442.5v433q0 227 -14 301q-12 77 -33 94q-44 35 -156 35l-8 55h682l-10 -55q-38 0 -61 -2t-48 -9t-39.5 -20.5t-25.5 -37.5t-15 -60q-12 -94 -12 -301v-431q0 -536 363 -536q91 0 166 22t125 57.5t87.5 85.5t58.5 99t34 105.5t16.5 98t3.5 83.5v414q0 208 -18 296
q-11 48 -25.5 75.5t-42 41t-55.5 16.5t-82 3z" />
    <glyph glyph-name="uni01D4" unicode="&#x1d4;" horiz-adv-x="1337" 
d="M621 1139l-160 170l26 30l179 -122l180 122l26 -30l-159 -172q-19 -19 -47 -19q-27 0 -45 21zM1290 145l25 -45q-30 -24 -175.5 -72.5t-248.5 -39.5q-10 61 -21 487l56 350h-15l-43 -250q-23 -133 -47 -230t-59 -186t-83 -135.5t-108 -46.5q-169 0 -258.5 89.5
t-89.5 257.5v200q0 208 -10.5 294t-48.5 110q-37 24 -137 24l-7 52q194 24 463 24v-684q0 -45 1 -76t4.5 -72.5t11.5 -69.5t20.5 -54t32.5 -39t47 -13q58 0 115 126.5t96.5 311.5t56.5 378q0 5 -0.5 13t-12 29t-34.5 37q-54 37 -147 37l-8 52q188 24 460 24v-555
q0 -229 15 -299q12 -59 55 -59q32 0 94 30z" />
    <glyph glyph-name="Gcaron" unicode="&#x1e6;" horiz-adv-x="1646" 
d="M780 1630l-159 170l26 31l178 -123l181 123l26 -31l-160 -170q-17 -20 -47 -20q-25 0 -45 20zM410 827h1204l-10 -51q-125 0 -148 -47q-12 -22 -32.5 -316.5t-20.5 -412.5h-49l-15 307q-69 -146 -195.5 -236.5t-305.5 -90.5q-169 0 -312.5 47.5t-253.5 139.5t-172.5 240
t-62.5 338q0 118 33.5 229.5t101 208.5t160 169.5t219.5 114.5t272 42q204 0 344.5 -78.5t231.5 -244.5l63 12l27 -31l-297 -282l-31 39q20 20 34.5 62t14.5 93q0 113 -58 203t-145.5 136t-183.5 46q-116 0 -211.5 -63.5t-154.5 -166.5t-91 -228.5t-32 -255.5
q0 -133 39.5 -264t105.5 -233t161.5 -165t199.5 -63q99 0 182.5 39t137.5 100.5t92.5 140.5t55 157t17.5 152l-4 68q0 40 -33 63q-11 8 -35 13.5t-60 9t-68.5 5.5t-80.5 2.5t-75 0.5h-72h-53h-424z" />
    <glyph glyph-name="gcaron" unicode="&#x1e7;" horiz-adv-x="1042" 
d="M457 1139l-160 170l27 30l180 -122l180 122l27 -30l-162 -170q-18 -21 -45 -21q-29 0 -47 21zM803 180q125 -26 183 -85.5t58 -162.5q0 -84 -62.5 -148t-160 -98.5t-197.5 -51.5t-194 -17q-35 0 -69.5 1.5t-82.5 7t-89 15t-83.5 26t-72.5 39t-49 56t-19 74.5
q0 35 20.5 66.5t54 53t65 35.5t63.5 23l147 45l-10 11l-155 -47q-49 26 -82 72.5t-33 97.5q0 32 16 61t47.5 53t53 36.5t57.5 31.5q-174 98 -174 282q0 109 67.5 194.5t176.5 130t237 44.5q104 0 199 -29q61 0 106.5 14.5t67.5 32.5t35 41t15.5 34t2.5 16l45 -33v-150h-172
q88 -51 137 -127.5t49 -165.5q0 -86 -34 -152.5t-84.5 -104.5t-118.5 -62.5t-127 -32.5t-119 -8q-144 0 -258 49q-30 -19 -42.5 -28t-23 -26.5t-8.5 -39.5q1 -16 15 -27.5t38 -17t51 -9t61.5 -3.5t62.5 1t60.5 2t49.5 1q121 0 197 -8q81 42 138 90t84.5 93t38.5 81.5
t11 72.5h43q0 -209 -233 -350zM518 981q-203 0 -203 -313q0 -149 46 -236.5t145 -87.5q89 0 151 79t62 245q0 157 -47.5 235t-153.5 78zM465 -336q319 0 319 178q0 67 -48.5 99.5t-157.5 41.5t-320 1q-41 -26 -58.5 -54.5t-17.5 -76.5q0 -53 27 -92t71.5 -59t90 -29t94.5 -9
z" />
    <glyph glyph-name="uni01F1" unicode="&#x1f1;" horiz-adv-x="2838" 
d="M573 1491q227 0 400 -34.5t288 -96.5t187.5 -156t103.5 -206t31 -253q0 -123 -27.5 -229.5t-92.5 -203t-163 -164.5t-248 -108t-339 -40h-670l10 55q109 0 156 37q45 39 45 395v517q0 224 -12 303q-12 77 -33 94q-47 37 -156 37l-10 53h530zM2791 1491v-113l-972 -1333
h368q101 0 152 1t114 7.5t97 20.5q101 39 135.5 174t34.5 418l53 8v-674h-1219v129l947 1315q-468 0 -572 -14q-74 -9 -112.5 -28t-73.5 -65q-55 -75 -55 -342l-56 -8v504h1159zM686 45q134 0 248.5 59t190.5 157t118.5 223.5t42.5 258.5q0 346 -163.5 523.5t-454.5 177.5
q-113 0 -148 -4v-979q0 -263 12 -330q12 -65 56 -86h98z" />
    <glyph glyph-name="uni01F2" unicode="&#x1f2;" horiz-adv-x="2519" 
d="M575 1491q227 0 400 -34.5t288 -96.5t187.5 -156t103.5 -206t31 -253q0 -123 -27.5 -229.5t-92.5 -203t-163 -164.5t-248 -108t-339 -40h-670l10 55q109 0 156 37q45 39 45 395v517q0 224 -12 303q-12 77 -33 94q-47 37 -156 37l-10 53h530zM688 45q134 0 248.5 59
t190.5 157t118.5 223.5t42.5 258.5q0 346 -163.5 523.5t-454.5 177.5q-113 0 -148 -4v-979q0 -257 13 -330q12 -65 55 -86h98zM2476 1008v-56l-594 -905l164 -2q105 0 168.5 6.5t99.5 28.5q70 43 70 207l41 12v-299h-840v61l578 900h-170q-143 0 -183 -10q-29 -8 -43 -21
q-73 -67 -73 -207l-49 -16v301h831z" />
    <glyph glyph-name="uni01F3" unicode="&#x1f3;" horiz-adv-x="2136" 
d="M1147 143l24 -47q-12 -10 -48.5 -28.5t-93 -41t-133.5 -35t-148 -5.5q-3 16 -15 493l58 350h-17l-43 -270q-4 -29 -10 -63t-19.5 -93.5t-29 -113.5t-38.5 -113t-49 -101t-61 -70t-73 -28q-203 0 -314.5 138.5t-111.5 390.5q0 242 155 383t400 141q84 0 151 -18v188
q0 151 -10 209q-9 45 -25 55q-45 25 -137 25l-8 49q67 12 202.5 20.5t235.5 8.5v-1094q0 -229 15 -299q6 -31 19 -45t36 -14q30 0 88 28zM2091 1008v-56l-594 -905l164 -2q105 0 168.5 6.5t99.5 28.5q70 43 70 207l41 12v-299h-840v61l578 900h-170q-143 0 -183 -10
q-29 -8 -43 -21q-73 -67 -73 -207l-49 -16v301h831zM731 864v101q-60 18 -151 18q-130 0 -206.5 -135t-76.5 -361q0 -98 8 -178.5t25.5 -146.5t49 -102.5t73.5 -36.5q50 0 96.5 76.5t78 186t55.5 232t35.5 214t12.5 132.5z" />
    <glyph glyph-name="uni01F4" unicode="&#x1f4;" horiz-adv-x="1640" 
d="M668 1661l231 143q19 12 41 6q22 -7 31 -26t0 -41q-7 -21 -29 -27l-256 -92zM406 827h1204l-11 -51q-124 0 -147 -47q-12 -22 -32.5 -316.5t-20.5 -412.5h-49l-15 307q-69 -146 -195.5 -236.5t-305.5 -90.5q-169 0 -312.5 47.5t-253.5 139.5t-172.5 240t-62.5 338
q0 118 33.5 229.5t101 208.5t160 169.5t219.5 114.5t272 42q204 0 344.5 -78.5t231.5 -244.5l63 12l27 -31l-297 -282l-31 39q20 20 34.5 62t14.5 93q0 113 -58 203t-145.5 136t-183.5 46q-116 0 -211.5 -63.5t-154.5 -166.5t-91 -228.5t-32 -255.5q0 -133 39.5 -264
t105.5 -233t161.5 -165t199.5 -63q99 0 182.5 39t137.5 100.5t92.5 140.5t55 157t17.5 152l-4 68q0 40 -33 63q-11 8 -35 13.5t-60 9t-68.5 5.5t-80.5 2.5t-75 0.5h-72h-53h-424z" />
    <glyph glyph-name="AEacute" unicode="&#x1fc;" horiz-adv-x="2054" 
d="M1001 1659l232 145q20 10 39 4q20 -3 31 -24q9 -19 2 -41q-10 -21 -29 -27l-258 -92zM1937 532l50 9v-541h-1174l8 55q109 0 156 37q47 41 47 395v183q-39 -2 -86 -9t-123.5 -29t-147 -54t-148 -90t-134.5 -132l-4 -4q-13 -31 -27.5 -64t-20.5 -47t-7 -16
q-25 -67 -25 -108q0 -33 27 -47q34 -15 164 -15h6l10 -55h-508l10 55h6q100 0 148 25q42 23 89 111.5t134 291.5l242 561q54 128 79 200t25 124q0 42 -20 53q-30 17 -131 17h-7l-10 53h1346v-502l-49 6l-2 135q0 316 -488 316q-13 0 -41 -1t-43 -1v-672q166 0 244.5 20.5
t114.5 77.5q22 34 33.5 116t11.5 149l45 12v-799l-45 14q0 84 -6.5 140.5t-26.5 98.5t-46.5 65t-76.5 37t-105 18t-143 4v-270q0 -247 17 -324q12 -66 57 -86q118 0 203 9.5t150.5 33t107 59t67.5 92t36.5 126.5t10.5 167zM436 483q74 67 165.5 116t177.5 72t142 33t103 13
v287q0 210 -14 303q-12 77 -33 94q-40 32 -129 35q-45 -104 -412 -953z" />
    <glyph glyph-name="aeacute" unicode="&#x1fd;" horiz-adv-x="1579" 
d="M1536 522h-643v-20q0 -62 6 -117q78 53 179 84t194 31q47 0 89 -10t79.5 -30.5t59.5 -58t22 -88.5q0 -57 -28 -116.5t-79 -106.5q-119 -113 -282 -113q-183 0 -318 99t-174 272l29 156l14 67h-16l-41 -209q-13 -58 -24 -98t-28.5 -88.5t-38 -80.5t-48.5 -61t-64.5 -43
t-81.5 -14q-83 0 -146 24t-98.5 64.5t-53 87.5t-17.5 99q0 108 76.5 191t208 136t317.5 83v24q0 62 -1 93t-6 69t-16 57q-44 80 -147 80q-31 0 -62 -11t-61 -33.5t-50 -64t-24 -96.5q-4 -48 4 -92t18 -64l9 -20l-25 -33l-235 226l22 24l47 -8q16 31 29.5 52t45.5 55t68 55
t96 37t132 16q197 0 315 -115q121 115 304 115q142 0 244 -66t151 -175.5t49 -249.5v-15zM1092 985q-55 0 -96.5 -48t-62 -121t-30 -136t-10.5 -115h369q-1 49 -4 95t-14 108.5t-28 107.5t-49 77t-75 32zM397 59q50 0 93.5 57.5t70.5 143.5t43 157.5t23 127.5v6l2 14v6v62
q-168 -42 -250 -138.5t-82 -236.5q0 -83 27 -141t73 -58zM1475 313q0 41 -19 70.5t-51 44t-65.5 21t-71.5 6.5q-91 0 -190.5 -33t-172.5 -88q22 -143 85 -226t159 -83q74 0 149 38.5t126 106t51 143.5z" />
    <glyph glyph-name="Oslashacute" unicode="&#x1fe;" horiz-adv-x="1736" 
d="M717 1661l231 143q19 12 41 6q22 -7 31 -26q8 -23 0 -39q-6 -21 -29 -29l-256 -92zM1128 1479q272 -69 425 -254t153 -465q0 -175 -66 -322t-180 -245.5t-266 -154t-324 -58.5q-82 0 -180 20l-67 -227h-82l73 243q-269 76 -424 271t-155 473q0 177 65.5 321t179.5 237
t265 143t325 50q89 0 183 -16l65 221h80zM635 84l401 1354q-83 26 -166 26q-95 0 -176.5 -31t-139.5 -85t-103 -123.5t-71.5 -151t-40 -163t-13.5 -162.5q0 -138 29.5 -262t101 -234t178.5 -168zM870 25q115 3 208.5 46.5t155 114t103.5 164.5t60 193t18 205
q0 95 -17.5 189.5t-53 184.5t-97 165.5t-141.5 119.5l-399 -1354q77 -25 163 -28z" />
    <glyph glyph-name="oslashacute" unicode="&#x1ff;" horiz-adv-x="1175" 
d="M438 1176l226 139q16 12 38 6q19 -6 29 -27q9 -18 2 -39q-10 -20 -28 -26l-250 -90zM774 1001q169 -51 270 -186.5t101 -312.5q0 -237 -157 -381t-396 -144q-48 0 -119 11l-59 -205h-80l65 221q-169 49 -269.5 185t-100.5 315q0 238 155.5 381t395.5 143q55 0 120 -10
l60 205h80zM311 504q0 -262 117 -400l254 854q-48 23 -100 23q-78 0 -140 -63t-96.5 -172t-34.5 -242zM745 907l-251 -856q48 -28 96 -28q69 0 123.5 46t85.5 119t47 153.5t16 160.5q0 124 -29 232.5t-88 172.5z" />
    <glyph glyph-name="uni0218" unicode="&#x218;" horiz-adv-x="1173" 
d="M625 868q46 -26 73.5 -42t70.5 -43t69 -49t59 -52.5t53 -61t38.5 -67.5t27 -80t8.5 -90q0 -188 -155 -295.5t-406 -107.5q-59 0 -110 15t-84 36.5t-60 50.5t-40.5 50.5t-23.5 43.5l50 21q37 -80 108 -126t158 -46q147 0 228 84.5t81 224.5q0 30 -10.5 59t-23.5 51
t-42.5 49.5t-49 43.5t-63 43.5t-64 40t-71.5 41.5q-54 31 -85 50t-79 51t-76.5 58t-62.5 63.5t-52.5 74t-31 84t-12.5 98.5q0 91 46.5 164t121.5 116.5t163.5 66.5t180.5 23q90 0 169 -25t130.5 -59.5t94.5 -80.5t63.5 -77.5t34.5 -62.5l63 13l27 -31l-299 -285l-29 37
q24 24 47 85t23 120q0 11 -1.5 28t-9.5 49t-20.5 62.5t-37 64t-57.5 58.5t-84.5 41t-113.5 16t-109 -16.5t-74.5 -41.5t-44.5 -60.5t-22.5 -68t-5.5 -69.5q0 -45 19 -87t44.5 -72.5t74 -66t85 -57.5t99.5 -57zM551 -68q50 0 77 -35.5t27 -101.5q0 -19 -5 -44t-19.5 -63.5
t-50 -77t-86.5 -65.5l-21 43q48 18 91.5 76t43.5 109q-27 -27 -59 -29q-42 0 -70 25q-26 26 -26 71q0 40 27.5 66t70.5 26z" />
    <glyph glyph-name="uni0219" unicode="&#x219;" horiz-adv-x="843" 
d="M471 623q113 -70 159 -114q121 -114 101 -269q-9 -68 -41 -118.5t-74.5 -78.5t-99 -43.5t-105.5 -19t-104 -0.5q-66 6 -102 21q-86 36 -117 130l45 14q15 -39 40 -65.5t53 -37t46 -14t35 -3.5q77 0 122.5 41.5t45.5 154.5q0 38 -11.5 67.5t-43.5 57t-50.5 39.5t-69.5 41
q-5 3 -9 5.5t-8 4.5q-55 30 -91.5 55t-79 66.5t-62.5 95t-15 117.5q4 58 30.5 104t65.5 74t89 46t96.5 25t93.5 7q230 0 335 -211l46 8l24 -26l-235 -224l-27 31q23 37 35 119q4 31 -2.5 73.5t-22.5 85.5t-51 73t-82 30q-135 0 -135 -147q0 -37 12.5 -67t40.5 -57t53 -45
t70 -46zM418 -100q49 0 76.5 -35.5t27.5 -100.5q0 -20 -4.5 -43.5t-17 -60t-45 -73.5t-80.5 -66l-15 -6l-20 41l12 6q64 33 99 102q24 44 24 76q-27 -27 -59 -29q-42 0 -70 25q-27 30 -27 71t28 67t71 26z" />
    <glyph glyph-name="uni021A" unicode="&#x21a;" horiz-adv-x="1374" 
d="M25 1491h1327v-504l-58 8v9q0 82 -7 139.5t-25.5 109.5t-52 85t-86 58t-127.5 36t-177 12v-957q0 -214 10 -292q5 -31 22.5 -65t41.5 -50q34 -25 166 -25h8l8 -55h-776l10 55h6q38 0 57.5 1t49 4.5t45.5 12.5t34 24t28 39.5t16 58.5q10 75 10 292v957q-102 -1 -176.5 -12
t-127.5 -36t-85.5 -58t-51.5 -85t-25.5 -109.5t-6.5 -139.5v-9l-57 -8v504zM684 -68q50 0 77 -35.5t27 -101.5q0 -20 -5 -45t-19.5 -63t-50 -76.5t-86.5 -65.5l-21 43q48 18 91.5 75t43.5 108q-1 0 -5.5 -4.5t-7 -6t-8.5 -5t-10.5 -5.5t-12 -4t-15.5 -2q-42 0 -70 25
q-26 26 -26 71q0 40 27.5 66t70.5 26z" />
    <glyph glyph-name="uni021B" unicode="&#x21b;" horiz-adv-x="653" 
d="M586 162l45 -8q-7 -26 -21 -51.5t-42 -57t-79.5 -51t-119.5 -19.5q-95 0 -160.5 50.5t-65.5 124.5v802h-125v54q37 0 88 16.5t104 46.5t92 82t44 113h2l58 4v-262h208v-54h-208v-794q0 -64 13.5 -89.5t45.5 -25.5q33 0 70 34t51 85zM322 -96q51 0 77.5 -36t26.5 -101
q0 -20 -4.5 -43t-17 -59.5t-45 -73.5t-80.5 -66l-15 -8l-20 41l12 8q60 27 98 100q28 54 25 76q-4 -6 -20.5 -16.5t-36.5 -10.5q-45 -3 -70 25q-29 26 -29 72q0 40 28 66t71 26z" />
    <glyph glyph-name="uni0228" unicode="&#x228;" horiz-adv-x="1331" 
d="M983 -53q141 -4 216 -67.5t75 -145.5q0 -60 -24 -107t-62 -73t-78.5 -39t-79.5 -13q-61 0 -115.5 31.5t-85.5 83.5l41 37q61 -84 142 -84q52 0 84 40.5t32 106.5q0 78 -49 118t-166 52l41 113h-856l11 55q108 0 155 37q45 39 45 395v517q0 224 -12 303q-12 77 -33 94
q-47 37 -155 37l-11 53h1098v-502l-49 6v135q0 316 -488 316q-13 0 -41 -1t-43 -1v-672q166 0 244.5 20.5t114.5 77.5q22 34 33.5 116t11.5 149l45 12v-799l-45 14q0 84 -6.5 140.5t-26.5 98.5t-46.5 65t-76.5 37t-105 18t-143 4v-270q0 -256 15 -324q12 -65 59 -86
q118 0 203 9.5t151 33t107 59t67.5 92t37 126.5t10.5 167l49 9v-541h-273z" />
    <glyph glyph-name="uni0229" unicode="&#x229;" horiz-adv-x="978" 
d="M537 -43q99 -4 151.5 -51t52.5 -107q0 -44 -17.5 -78t-45 -52.5t-57 -28t-58.5 -9.5q-44 0 -83 22t-62 60l-4 6l35 31l6 -6q40 -55 96 -55q35 0 56.5 28t21.5 72q0 57 -38.5 87t-111.5 30h-10l27 71q-211 19 -335 158t-124 352q0 108 30.5 204t87.5 171.5t147 119.5
t202 44q142 0 244 -66t151 -175.5t49 -249.5v-15h-643v-20q0 -62 6 -117q78 53 179 84t194 31q47 0 89 -10t79.5 -30.5t59.5 -58t22 -88.5q0 -94 -60.5 -173t-150 -121t-180.5 -42zM502 983q-44 0 -80 -33.5t-56.5 -82t-35 -109t-19.5 -108.5t-6 -87h367q-1 49 -4 95
t-14 108.5t-28 107.5t-49 77t-75 32zM887 311q0 41 -19 70.5t-51.5 44t-66.5 21t-72 6.5q-91 0 -189.5 -33t-171.5 -88q22 -144 84 -226.5t158 -82.5q74 0 149.5 38t127 106t51.5 144z" />
    <glyph glyph-name="uni0237" unicode="&#x237;" horiz-adv-x="563" 
d="M33 1004q175 22 465 22v-954q0 -115 -13.5 -207t-35 -155t-56.5 -109t-71.5 -72t-86.5 -41.5t-93.5 -20t-100.5 -4.5v48q45 0 77 10t54 35.5t35 56.5t20 84.5t9 107t2 136.5v579q0 351 -64 406q-28 24 -135 24z" />
    <glyph glyph-name="uni02BC" unicode="&#x2bc;" horiz-adv-x="331" 
d="M166 1708q65 0 101 -47t36 -133q0 -27 -6 -58t-23.5 -79.5t-61.5 -98.5t-108 -88l-12 -8l-20 37l10 8q56 34 86.5 66t56.5 84q14 28 21.5 59.5t1.5 48.5v2l-2 2q-2 0 -6 -4q-35 -35 -76 -37q-56 -3 -90 31q-35 35 -35 94q0 53 35 87t92 34z" />
    <glyph glyph-name="circumflex" unicode="&#x2c6;" horiz-adv-x="626" 
d="M365 1589l159 -172l-26 -31l-179 123l-180 -123l-26 31l161 172q19 19 45 19q27 0 46 -19z" />
    <glyph glyph-name="caron" unicode="&#x2c7;" horiz-adv-x="622" 
d="M262 1403l-160 170l27 31l178 -123l180 123l27 -31l-162 -170q-21 -21 -45 -21t-45 21z" />
    <glyph glyph-name="uni02C9" unicode="&#x2c9;" horiz-adv-x="450" 
d="M63 1968v78h330v-78h-330z" />
    <glyph glyph-name="breve" unicode="&#x2d8;" horiz-adv-x="653" 
d="M410 1565h86v-17q0 -57 -48.5 -96t-117.5 -39t-117.5 39t-48.5 96v17h84l-2 -19q0 -42 21.5 -67t62.5 -25t62.5 25t21.5 67z" />
    </font>
</defs>
</svg>
